<svg id="Capa_1" enable-background="new 0 0 512.209 512.209" height="512" viewBox="0 0 512.209 512.209" width="512" xmlns="http://www.w3.org/2000/svg"><g><g><path d="m152.602 86.803h207.005c14.908 0 27.037-12.129 27.037-27.038v-.969c0-14.909-12.129-27.038-27.037-27.038h-207.005c-14.909 0-27.038 12.129-27.038 27.038v.969c0 14.909 12.129 27.038 27.038 27.038zm-12.06-28.007c0-6.65 5.41-12.059 12.06-12.059h207.005c6.65 0 12.059 5.41 12.059 12.059v.969c0 6.65-5.409 12.059-12.059 12.059h-207.005c-6.65 0-12.06-5.41-12.06-12.059z"/><path d="m172.512 320.197-57.115-12.417c-7.541-1.64-15.311.197-21.32 5.04-6.008 4.843-9.454 12.046-9.454 19.762v12.417c0 13.996 11.387 25.382 25.383 25.382h57.116c13.996 0 25.382-11.386 25.382-25.382-.001-11.854-8.408-22.285-19.992-24.802zm-5.391 35.205h-57.116c-5.737 0-10.404-4.667-10.404-10.404v-12.417c0-3.163 1.412-6.115 3.875-8.1 1.872-1.509 4.162-2.306 6.511-2.306.74 0 1.486.079 2.227.24l57.116 12.417c4.747 1.032 8.193 5.308 8.193 10.166.001 5.737-4.666 10.404-10.402 10.404z"/><path d="m418.132 312.82c-6.008-4.843-13.782-6.68-21.32-5.04l-57.116 12.417c-11.583 2.518-19.99 12.949-19.99 24.802 0 13.996 11.386 25.382 25.382 25.382h6.177c4.137 0 7.489-3.353 7.489-7.489s-3.353-7.489-7.489-7.489h-6.177c-5.736 0-10.403-4.667-10.403-10.404 0-4.858 3.445-9.134 8.192-10.166l57.117-12.417c3.09-.67 6.276.081 8.738 2.066 2.463 1.984 3.875 4.937 3.875 8.1v12.417c0 5.736-4.667 10.404-10.404 10.404h-17.055c-4.137 0-7.489 3.353-7.489 7.489s3.353 7.489 7.489 7.489h17.055c13.995 0 25.383-11.386 25.383-25.382v-12.417c.001-7.716-3.446-14.92-9.454-19.762z"/><path d="m291.415 316.533h-70.621c-4.137 0-7.489 3.353-7.489 7.489s3.353 7.489 7.489 7.489h70.621c4.137 0 7.489-3.353 7.489-7.489.001-4.136-3.352-7.489-7.489-7.489z"/><path d="m291.415 346.063h-70.621c-4.137 0-7.489 3.353-7.489 7.489s3.353 7.489 7.489 7.489h70.621c4.137 0 7.489-3.353 7.489-7.489.001-4.136-3.352-7.489-7.489-7.489z"/><path d="m405.099 106.385h-219.077c-4.137 0-7.489 3.353-7.489 7.489s3.353 7.489 7.489 7.489h219.077c6.886 0 12.487 5.602 12.487 12.487v123.376c0 6.146-4.398 11.328-10.458 12.321-19.805 3.247-51.715 7.96-91.256 11.969-3.579.363-7.163.682-10.75.979l51.97-64.352c2.599-3.218 2.096-7.933-1.121-10.532-3.219-2.599-7.933-2.096-10.532 1.121l-60.652 75.102c-29.487 1.425-59.12.656-88.449-2.318-7.234-.733-14.21-1.49-20.906-2.258l49.356-61.115c2.599-3.218 2.097-7.933-1.121-10.532-3.219-2.599-7.932-2.096-10.532 1.121l-55.253 68.417c-21.901-2.756-39.915-5.489-52.801-7.602-6.06-.993-10.458-6.175-10.458-12.321v-123.376c0-6.885 5.601-12.487 12.487-12.487h43.805c4.137 0 7.489-3.353 7.489-7.489s-3.353-7.489-7.489-7.489h-43.805c-15.144 0-27.465 12.321-27.465 27.465v123.376c0 13.518 9.678 24.916 23.013 27.103 13.484 2.21 80.444 10.901 92.169 12.09 20.331 2.061 40.805 3.092 61.278 3.092s40.947-1.031 61.278-3.092c39.92-4.048 72.156-8.809 92.169-12.09 13.334-2.186 23.013-13.585 23.013-27.103v-123.376c0-15.144-12.321-27.465-27.466-27.465z"/><path d="m482.86 128.48h-19.837v-68.865c0-14.053-4.835-27.837-13.614-38.811-10.577-13.221-26.354-20.804-43.287-20.804h-300.036c-16.931 0-32.709 7.583-43.286 20.805-8.779 10.974-13.614 24.757-13.614 38.811v68.864h-19.836c-13.473 0-24.434 10.961-24.434 24.434v79.585c0 13.473 10.961 24.434 24.434 24.434h19.836v130.228h-2.811c-10.429 0-18.914 8.485-18.914 18.915v17.999c0 10.43 8.485 18.915 18.914 18.915h12.49v40.485c0 15.844 12.891 28.734 28.735 28.734h57.367c15.844 0 28.735-12.89 28.735-28.734v-40.485h19.608v3.875c0 7.516 6.115 13.631 13.632 13.631h98.327c7.517 0 13.632-6.115 13.632-13.631v-3.875h19.608v40.485c0 15.844 12.89 28.734 28.734 28.734h57.368c15.844 0 28.734-12.89 28.734-28.734v-40.485h12.49c10.43 0 18.915-8.485 18.915-18.915v-17.999c0-10.43-8.485-18.915-18.915-18.915h-2.811v-130.228h19.837c13.473 0 24.434-10.961 24.434-24.434v-79.585c-.002-13.473-10.963-24.434-24.435-24.434zm-453.51 113.474c-5.213 0-9.455-4.242-9.455-9.456v-79.585c0-5.214 4.242-9.456 9.455-9.456h19.836v98.496h-19.836zm129.372 241.521c0 7.585-6.171 13.756-13.757 13.756h-57.366c-7.586 0-13.757-6.171-13.757-13.756v-40.485h84.88zm34.587-55.463h-146.935c-2.17 0-3.936-1.766-3.936-3.937v-17.999c0-2.171 1.766-3.937 3.936-3.937h146.935zm110.613 17.506h-95.634v-43.379h95.634zm-239.758-58.357v-327.546c0-10.665 3.67-21.126 10.332-29.454 7.719-9.649 19.234-15.183 31.59-15.183h300.036c12.357 0 23.871 5.534 31.59 15.183 6.662 8.328 10.332 18.789 10.332 29.454v327.545h-383.88zm374.202 96.314c0 7.585-6.171 13.756-13.756 13.756h-57.368c-7.585 0-13.756-6.171-13.756-13.756v-40.485h84.879v40.485zm27.468-81.336c2.171 0 3.937 1.766 3.937 3.937v17.999c0 2.171-1.766 3.937-3.937 3.937h-146.934v-25.872h146.934zm26.481-169.64c0 5.214-4.242 9.456-9.455 9.456h-19.837v-98.496h19.837c5.213 0 9.455 4.242 9.455 9.456z"/></g></g></svg>