<?xml version="1.0"?>
<svg xmlns="http://www.w3.org/2000/svg" viewBox="0 0 64 64" width="512" height="512"><g id="outline"><path d="M15,25a1,1,0,0,0,.707-.293l2-2a1,1,0,0,0-1.414-1.414l-2,2A1,1,0,0,0,15,25Z"/><path d="M22.293,24.707a1,1,0,0,0,1.414-1.414l-2-2a1,1,0,0,0-1.414,1.414Z"/><path d="M27,25a1,1,0,0,0,.707-.293l2-2a1,1,0,0,0-1.414-1.414l-2,2A1,1,0,0,0,27,25Z"/><path d="M36.293,24.707a1,1,0,0,0,1.414-1.414l-2-2a1,1,0,0,0-1.414,1.414Z"/><path d="M41,25a1,1,0,0,0,.707-.293l2-2a1,1,0,0,0-1.414-1.414l-2,2A1,1,0,0,0,41,25Z"/><path d="M48.293,24.707a1,1,0,0,0,1.414-1.414l-2-2a1,1,0,0,0-1.414,1.414Z"/><path d="M59,44H55V36.816A2.966,2.966,0,0,0,56,37a3,3,0,0,0,3-3V31A13.015,13.015,0,0,0,46,18H35V9a.987.987,0,0,0-.812-.962A2.978,2.978,0,0,0,35,6c0-1.424-1.77-3.212-2.312-3.726a1,1,0,0,0-1.376,0C30.77,2.788,29,4.576,29,6a2.978,2.978,0,0,0,.812,2.038A.987.987,0,0,0,29,9v9H18A13.015,13.015,0,0,0,5,31v3a3,3,0,0,0,3,3,2.966,2.966,0,0,0,1-.184V44H5a3,3,0,0,0,0,6H28v6H24a3,3,0,0,0,0,6H40a3,3,0,0,0,0-6H36V50H59a3,3,0,0,0,0-6ZM32,4.449A4.282,4.282,0,0,1,33,6a1,1,0,0,1-2,0A4.317,4.317,0,0,1,32,4.449ZM31,10h2v8H31ZM8,35a1,1,0,0,1-1-1V31A11.013,11.013,0,0,1,18,20H46A11.013,11.013,0,0,1,57,31v3a1,1,0,0,1-2,0V32a3,3,0,0,0-6,0v1a1,1,0,0,1-2,0V32a3,3,0,0,0-6,0v3a1,1,0,0,1-2,0V32a3,3,0,0,0-6,0v1a1,1,0,0,1-2,0V32a3,3,0,0,0-6,0v3a1,1,0,0,1-2,0V32a3,3,0,0,0-6,0v1a1,1,0,0,1-2,0V32a3,3,0,0,0-6,0v2A1,1,0,0,1,8,35Zm3,5V32a1,1,0,0,1,2,0v1a3,3,0,0,0,6,0V32a1,1,0,0,1,2,0v3a3,3,0,0,0,6,0V32a1,1,0,0,1,2,0v1a3,3,0,0,0,6,0V32a1,1,0,0,1,2,0v3a3,3,0,0,0,6,0V32a1,1,0,0,1,2,0v1a3,3,0,0,0,6,0V32a1,1,0,0,1,2,0v8Zm42,2v2H11V42ZM40,58a1,1,0,0,1,0,2H24a1,1,0,0,1,0-2ZM30,56V50h4v6Zm29-8H5a1,1,0,0,1,0-2H59a1,1,0,0,1,0,2Z"/></g></svg>
