<svg id="Capa_1" enable-background="new 0 0 511 511" height="512" viewBox="0 0 511 511" width="512" xmlns="http://www.w3.org/2000/svg"><g><path d="m88 67.5v376c0 20.678 16.822 37.5 37.5 37.5h260c20.678 0 37.5-16.822 37.5-37.5v-376c0-20.678-16.822-37.5-37.5-37.5h-260c-20.678 0-37.5 16.822-37.5 37.5zm320 0v338.5h-22.5v15h22.5v15h-42.5v15h41.21c-3.096 8.729-11.433 15-21.21 15h-260c-12.407 0-22.5-10.094-22.5-22.5v-338.5h22.5v-15h-22.5v-15h42.5v-15h-41.21c3.096-8.729 11.432-15 21.21-15h260c12.406 0 22.5 10.094 22.5 22.5z"/><path d="m73 67.5c0-28.948 23.551-52.5 52.5-52.5h170.429v-15h-170.429c-37.22 0-67.5 30.28-67.5 67.5v225.285h15z"/><path d="m385.5 0h-74.571v15h74.571c28.948 0 52.5 23.552 52.5 52.5v321.144h15v-321.144c0-37.22-30.28-67.5-67.5-67.5z"/><path d="m438 443.5c0 28.948-23.552 52.5-52.5 52.5h-260c-28.949 0-52.5-23.552-52.5-52.5v-135.715h-15v135.715c0 37.22 30.28 67.5 67.5 67.5h260c37.22 0 67.5-30.28 67.5-67.5v-39.856h-15z"/><path d="m378 257.292c0 31.583-14.219 73.259-41.394 91.805-17.773 12.13-55.301 16.543-88.411 20.437-20.376 2.396-39.624 4.659-52.484 8.586-5.1 1.557-10.917 5.248-17.074 9.156-6.631 4.208-15.713 9.972-20.37 9.972-.4 0-.619-.052-.71-.082-8.673-2.845-24.557-25.44-24.557-37.628 0-1.312.22-2.029.35-2.34 4.677-11.125 25.69-21.9 44.229-31.407l-6.845-13.348c-21.836 11.198-44.417 22.777-51.212 38.943-1.01 2.402-1.522 5.146-1.522 8.151 0 18.143 19.235 46.749 34.886 51.882 1.677.549 3.487.827 5.381.827 9.015 0 18.874-6.257 28.408-12.308 5.044-3.2 10.259-6.511 13.417-7.475 11.571-3.532 30.167-5.719 49.856-8.034 34.826-4.096 74.297-8.737 95.114-22.944 32.937-22.477 47.938-69.767 47.938-104.193 0-24.231-11.819-59.548-30.847-92.168l-12.957 7.557c17.498 29.999 28.804 63.211 28.804 84.611z"/><path d="m162.052 174.585-.552.415c.061.082.219.289.456.59-.14 1.657-.218 3.344-.218 5.067 0 13.521 4.544 28.077 12.155 38.938 3.887 5.547 10.348 12.009 17.188 18.85 11.499 11.498 27.246 27.246 27.246 36.869 0 .33-.021.649-.063.952-1.448 10.496-18.151 20.707-34.298 29.311l7.054 13.238c19.069-10.16 39.621-22.507 42.104-40.496.135-.979.204-1.989.204-3.005 0-15.836-16.809-32.646-31.639-47.476-6.364-6.364-12.375-12.376-15.511-16.851-3.965-5.658-6.85-12.623-8.326-19.781 8.681 6.686 20.205 12.895 33.081 12.895 1.046 0 2.102-.041 3.165-.126 14.379-1.15 22.236-12.087 28.549-20.875 1.512-2.105 2.94-4.094 4.388-5.879 7.112-8.772 14.077-15.177 22.585-20.768 1.964-1.29 4.35-2.598 6.876-3.982 9.037-4.952 20.285-11.115 23.114-23.042.903-3.808.844-7.799-.169-12.017 13.025 6.559 28.069 21.837 42.056 42.893l12.494-8.299c-17.753-26.726-37.059-44.767-54.361-50.798-4.676-1.63-10.168-2.456-16.325-2.456-36.056 0-91.125 27.834-110.916 50.62-5.808 6.688-9.324 15.321-10.337 25.213zm21.661-15.375c16.976-19.545 67.056-44.658 98.146-45.42 2.27 4.021 4.012 8.568 3.155 12.179-1.29 5.438-8.629 9.46-15.727 13.35-2.674 1.465-5.439 2.98-7.905 4.602-9.854 6.475-17.873 13.832-26 23.857-1.723 2.125-3.347 4.386-4.917 6.572-6.292 8.76-10.615 14.118-17.563 14.674-14.62 1.184-28.322-10.895-35.056-18.021.984-4.046 2.761-8.217 5.867-11.793z"/><path d="m280.5 259h15v15h-15z"/><path d="m250.5 210h15v15h-15z"/><path d="m329.5 270h15v15h-15z"/><path d="m335.5 436h15v15h-15z"/><path d="m160.5 60h15v15h-15z"/><path d="m239.5 320h15v15h-15z"/><path d="m299.5 310h15v15h-15z"/><path d="m319.5 210h15v15h-15z"/></g></svg>