<?xml version="1.0" encoding="UTF-8"?>
<svg xmlns="http://www.w3.org/2000/svg" id="Line" width="512" height="512" viewBox="0 0 512 512"><g><path d="M442,160H432v-7.869l1.431-.26A8,8,0,0,0,440,144V122.422l30.656-45.984A8,8,0,0,0,465.8,64.205l-72-16.615-3.6,15.59,60.723,14.012L427.719,112H303.339a48,48,0,1,0-94.678,0H84.281L61.076,77.192,256,32.21,374.2,59.487l3.6-15.59L257.8,16.2a8.006,8.006,0,0,0-3.6,0l-208,48a8,8,0,0,0-4.857,12.233L72,122.422V144a8,8,0,0,0,6.569,7.871l1.431.26V160H70a38.043,38.043,0,0,0-38,38v20a38.043,38.043,0,0,0,38,38H80.116a68.147,68.147,0,0,0,42.918,59.253A37.877,37.877,0,0,0,112,342v26h16V342a22.025,22.025,0,0,1,22-22h6.686l39.044,39.044A128.69,128.69,0,0,0,141.7,414.317a27.893,27.893,0,0,0-13.7-6.032V384H112v24.285A28.043,28.043,0,0,0,88,436v52a8,8,0,0,0,8,8H416a8,8,0,0,0,8-8V436a28.043,28.043,0,0,0-24-27.715V342a37.877,37.877,0,0,0-11.034-26.747A68.147,68.147,0,0,0,431.884,256H442a38.043,38.043,0,0,0,38-38V198A38.043,38.043,0,0,0,442,160Zm-26,56H400V157.949l16-2.909ZM88,137.323V128H424v9.323L256,167.869ZM224,104a32,32,0,1,1,63,8H225A32.04,32.04,0,0,1,224,104ZM112,157.949V216H96V155.04ZM384,408.285a27.881,27.881,0,0,0-13.7,6.039,128.515,128.515,0,0,0-54.1-55.2L355.314,320H362a22.025,22.025,0,0,1,22,22Zm-78.757-60.842L286.948,320h45.738ZM267.719,320l18.417,27.626A127.046,127.046,0,0,0,256,344a128.5,128.5,0,0,0-30.084,3.549L244.281,320Zm-60.962,27.443L179.314,320h45.738Zm-14.826,32.68A111.3,111.3,0,0,1,256,360a112.426,112.426,0,0,1,104.39,71.331A28.08,28.08,0,0,0,360,436v32a27.836,27.836,0,0,0,2.7,12h-12.04a96.6,96.6,0,0,0,.745-26.68,8,8,0,0,0-10.76-6.608L301.1,461.543a8,8,0,0,0-5.177,7.976c.051.832.076,1.667.076,2.481,0,1.751-.068,4.984-.171,8H216.171c-.1-3.016-.171-6.249-.171-8,0-.814.025-1.649.076-2.481a8,8,0,0,0-5.177-7.976l-39.548-14.831a8,8,0,0,0-10.76,6.608,96.6,96.6,0,0,0,.745,26.68H149.3a27.836,27.836,0,0,0,2.7-12V436a28.08,28.08,0,0,0-.39-4.669A111.846,111.846,0,0,1,191.931,380.123ZM104,480V436a12.013,12.013,0,0,1,12-12h8a12.013,12.013,0,0,1,12,12v32a12.013,12.013,0,0,1-12,12Zm73.607,0a80.128,80.128,0,0,1-1.592-14.451l24.019,9.008c.026,1.466.067,3.415.13,5.443Zm134.229,0c.063-2.028.1-3.977.13-5.443l24.019-9.008A80.128,80.128,0,0,1,334.393,480ZM408,436v44H388a12.013,12.013,0,0,1-12-12V436a12.013,12.013,0,0,1,12-12h8A12.013,12.013,0,0,1,408,436Zm56-218a22.025,22.025,0,0,1-22,22H424a8,8,0,0,0-8,8v4a52.059,52.059,0,0,1-52,52H148a52.059,52.059,0,0,1-52-52v-4a8,8,0,0,0-8-8H70a22.025,22.025,0,0,1-22-22V198a22.025,22.025,0,0,1,22-22H80v48a8,8,0,0,0,8,8h32a8,8,0,0,0,8-8V160.858l126.569,23.013a8,8,0,0,0,2.862,0L384,160.858V224a8,8,0,0,0,8,8h32a8,8,0,0,0,8-8V176h10a22.025,22.025,0,0,1,22,22Z"/><path d="M256,264a16.019,16.019,0,0,1-16-16H224a32,32,0,0,0,64,0H272A16.019,16.019,0,0,1,256,264Z"/><path d="M184,176a40.045,40.045,0,0,0-40,40h16a24,24,0,0,1,48,0h16A40.045,40.045,0,0,0,184,176Z"/><path d="M328,176a40.045,40.045,0,0,0-40,40h16a24,24,0,0,1,48,0h16A40.045,40.045,0,0,0,328,176Z"/><path d="M216.4,451.715a8,8,0,0,0,11.314,0,40,40,0,0,1,56.57,0,8,8,0,0,0,11.314,0l32.127-32.127a8,8,0,0,0,.348-10.941,95.882,95.882,0,0,0-144.148,0,8,8,0,0,0,.348,10.941ZM256,392a80,80,0,0,1,54.857,21.829l-21.314,21.315a56.054,56.054,0,0,0-67.086,0l-21.314-21.315A80,80,0,0,1,256,392Z"/></g></svg>
