<?xml version="1.0" encoding="iso-8859-1"?>
<!-- Generator: Adobe Illustrator 19.0.0, SVG Export Plug-In . SVG Version: 6.00 Build 0)  -->
<svg version="1.1" id="Capa_1" xmlns="http://www.w3.org/2000/svg" xmlns:xlink="http://www.w3.org/1999/xlink" x="0px" y="0px"
	 viewBox="0 0 405.6 405.6" style="enable-background:new 0 0 405.6 405.6;" xml:space="preserve">
<g>
	<g>
		<path d="M282.687,382.479c-0.268-3.616-3.143-6.491-6.759-6.759H7.288c-4.043,0.018-7.306,3.309-7.288,7.352
			c0.008,1.923,0.773,3.765,2.128,5.128l5.16,2.12h268.64C279.96,390.021,282.986,386.511,282.687,382.479z"/>
	</g>
</g>
<g>
	<g>
		<path d="M244.088,15.28H39.128c-7.868,0.044-14.236,6.412-14.28,14.28v334.48h233.52V29.56
			C258.346,21.682,251.966,15.302,244.088,15.28z M217.768,204.08h-36c-3.225-0.011-5.831-2.635-5.82-5.86
			c0-0.154,0.007-0.307,0.02-0.46v-1.48c1.126-19.12-13.461-35.533-32.581-36.659s-35.533,13.461-36.659,32.581
			c-0.08,1.358-0.08,2.72,0,4.078v1.96c0,3.225-2.615,5.84-5.84,5.84h-36c-9.901-0.044-17.916-8.059-17.96-17.96V62.48
			c0.022-9.91,8.05-17.938,17.96-17.96h152.84c9.901,0.044,17.916,8.059,17.96,17.96l0.04,123.64
			C235.684,196.021,227.669,204.036,217.768,204.08z"/>
	</g>
</g>
<g>
	<g>
		<path d="M336.528,104.36v184.6c0.002,11.046-8.951,20.001-19.997,20.003c-0.121,0-0.242-0.001-0.363-0.003h-14.16v11.48
			c14.2,0.12,25.76,1.84,36.8-9.12v0c2.94-2.947,5.277-6.438,6.88-10.28c1.562-3.808,2.363-7.884,2.36-12V104.36H336.528z"/>
	</g>
</g>
<g>
	<g>
		<path d="M290.088,294.16l-20.04-0.16v41.6l20-0.28l0.28-40.52C290.329,294.564,290.244,294.337,290.088,294.16z"/>
	</g>
</g>
<g>
	<g>
		<path d="M404.28,50.471c-0.845-0.853-1.992-1.339-3.192-1.351h-44.84l-23,24.64v18.96h20.6l20.28-31.8
			c1.071-1.679,2.929-2.69,4.92-2.68h22c1.2,0.006,2.353-0.469,3.2-1.32C406.038,55.148,406.052,52.261,404.28,50.471z"/>
	</g>
</g>
<g>
</g>
<g>
</g>
<g>
</g>
<g>
</g>
<g>
</g>
<g>
</g>
<g>
</g>
<g>
</g>
<g>
</g>
<g>
</g>
<g>
</g>
<g>
</g>
<g>
</g>
<g>
</g>
<g>
</g>
</svg>
