<svg height="512pt" viewBox="-1 0 511 512" width="512pt" xmlns="http://www.w3.org/2000/svg"><path d="m26.148438 512h190.742187c14.144531 0 25.648437-11.507812 25.648437-25.648438v-460.703124c0-14.140626-11.503906-25.648438-25.648437-25.648438-3.808594 0-187.972656 0-190.742187 0-14.140626 0-25.648438 11.507812-25.648438 25.648438v460.703124c0 14.140626 11.507812 25.648438 25.648438 25.648438zm-10.648438-486.351562c0-5.871094 4.777344-10.648438 10.648438-10.648438h54.585937l-65.234375 68.003906zm0 79.023437 86.023438-89.671875h115.367187c5.871094 0 10.648437 4.777344 10.648437 10.648438v460.703124c0 5.871094-4.777343 10.648438-10.648437 10.648438h-190.742187c-5.871094 0-10.648438-4.777344-10.648438-10.648438zm0 0"/><path d="m182.550781 80.230469c12.734375 0 23.097657-10.363281 23.097657-23.101563 0-12.734375-10.359376-23.097656-23.097657-23.097656s-23.097656 10.363281-23.097656 23.097656c0 12.738282 10.359375 23.101563 23.097656 23.101563zm0-31.199219c4.464844 0 8.097657 3.632812 8.097657 8.097656 0 4.46875-3.632813 8.101563-8.097657 8.101563-4.464843 0-8.097656-3.632813-8.097656-8.101563 0-4.464844 3.632813-8.097656 8.097656-8.097656zm0 0"/><path d="m144.617188 186.878906c0-12.738281-10.363282-23.097656-23.097657-23.097656-12.738281 0-23.097656 10.359375-23.097656 23.097656 0 12.734375 10.359375 23.097656 23.097656 23.097656 12.734375 0 23.097657-10.363281 23.097657-23.097656zm-23.097657 8.097656c-4.464843 0-8.097656-3.632812-8.097656-8.097656s3.632813-8.097656 8.097656-8.097656c4.464844 0 8.097657 3.632812 8.097657 8.097656s-3.632813 8.097656-8.097657 8.097656zm0 0"/><path d="m121.519531 365.761719c-12.738281 0-23.097656 10.363281-23.097656 23.097656 0 12.738281 10.359375 23.097656 23.097656 23.097656 12.734375 0 23.097657-10.359375 23.097657-23.097656 0-12.734375-10.363282-23.097656-23.097657-23.097656zm0 31.195312c-4.464843 0-8.097656-3.632812-8.097656-8.097656s3.632813-8.097656 8.097656-8.097656c4.464844 0 8.097657 3.632812 8.097657 8.097656s-3.632813 8.097656-8.097657 8.097656zm0 0"/><path d="m158.171875 243.1875c-12.734375 0-23.097656 10.363281-23.097656 23.097656 0 12.738282 10.363281 23.101563 23.097656 23.101563 12.738281 0 23.097656-10.363281 23.097656-23.101563 0-12.734375-10.359375-23.097656-23.097656-23.097656zm0 31.199219c-4.464844 0-8.097656-3.632813-8.097656-8.097657 0-4.464843 3.632812-8.097656 8.097656-8.097656s8.097656 3.632813 8.097656 8.097656c0 4.464844-3.632812 8.097657-8.097656 8.097657zm0 0"/><path d="m108.347656 272.746094c3.183594 24.667968 24.304688 43.796875 49.828125 43.796875 43.539063 0 66.332031-51.828125 37.25-83.949219 35.785157-57.617188-5.941406-132.625-73.90625-132.625-75.714843 0-115.21875 90.710938-63.617187 146.105469 13.4375 14.425781 31.160156 23.738281 50.445312 26.671875zm49.824219 28.796875c-19.710937 0-35.417969-16.207031-35.25-35.421875 0-.015625.003906-.03125.003906-.046875.167969-28.820313 33.484375-45.296875 56.347657-28.011719 8.585937 6.433594 14.152343 16.691406 14.152343 28.226562 0 19.4375-15.8125 35.253907-35.253906 35.253907zm-36.832031-69.429688c-24.859375-.101562-45.054688-20.355469-45.054688-45.234375 0-24.941406 20.292969-45.234375 45.234375-45.234375 38.511719 0 59.28125 45.242188 34.53125 74.433594-13.355469.589844-25.726562 6.335937-34.710937 16.035156zm.179687-117.144531c55.394531 0 89.992188 60.386719 62.175781 108.035156-3.359374-1.980468-7.175781-3.652344-10.769531-4.757812 24.492188-39.976563-4.496093-91.601563-51.40625-91.601563-33.214843 0-60.234375 27.019531-60.234375 60.234375 0 29.992188 22.035156 54.925782 50.761719 59.484375-1.59375 3.683594-2.738281 7.617188-3.371094 11.25-33.65625-6.101562-59.066406-35.855469-59.066406-70.734375 0-39.652344 32.257813-71.910156 71.910156-71.910156zm0 0"/><path d="m121.519531 328.625c-33.214843 0-60.234375 27.023438-60.234375 60.234375 0 33.214844 27.019532 60.234375 60.234375 60.234375 33.210938 0 60.234375-27.019531 60.234375-60.234375 0-33.210937-27.023437-60.234375-60.234375-60.234375zm0 105.46875c-24.941406 0-45.234375-20.289062-45.234375-45.230469 0-24.945312 20.292969-45.234375 45.234375-45.234375 24.941407 0 45.234375 20.289063 45.234375 45.234375 0 24.941407-20.292968 45.230469-45.234375 45.230469zm0 0"/><path d="m349.929688 57.128906c0-12.734375-10.359376-23.097656-23.097657-23.097656-12.734375 0-23.097656 10.363281-23.097656 23.097656 0 12.738282 10.363281 23.101563 23.097656 23.101563 12.738281 0 23.097657-10.363281 23.097657-23.101563zm-31.195313 0c0-4.464844 3.632813-8.097656 8.101563-8.097656 4.464843 0 8.097656 3.632812 8.097656 8.097656 0 4.46875-3.632813 8.101563-8.097656 8.101563-4.46875 0-8.101563-3.632813-8.101563-8.101563zm0 0"/><path d="m387.867188 163.78125c-12.738282 0-23.101563 10.359375-23.101563 23.097656 0 12.734375 10.363281 23.097656 23.101563 23.097656 12.734374 0 23.097656-10.363281 23.097656-23.097656 0-12.738281-10.363282-23.097656-23.097656-23.097656zm0 31.195312c-4.464844 0-8.101563-3.632812-8.101563-8.097656s3.636719-8.097656 8.101563-8.097656c4.464843 0 8.097656 3.632812 8.097656 8.097656s-3.632813 8.097656-8.097656 8.097656zm0 0"/><path d="m364.765625 388.859375c0 12.738281 10.363281 23.097656 23.101563 23.097656 12.734374 0 23.097656-10.359375 23.097656-23.097656 0-12.734375-10.363282-23.097656-23.097656-23.097656-12.738282 0-23.101563 10.363281-23.101563 23.097656zm31.199219 0c0 4.464844-3.632813 8.097656-8.097656 8.097656-4.46875 0-8.101563-3.632812-8.101563-8.097656s3.632813-8.097656 8.101563-8.097656c4.464843 0 8.097656 3.632812 8.097656 8.097656zm0 0"/><path d="m351.210938 243.1875c-12.734376 0-23.097657 10.363281-23.097657 23.097656 0 12.738282 10.363281 23.101563 23.097657 23.101563 12.738281 0 23.097656-10.363281 23.097656-23.101563 0-12.734375-10.359375-23.097656-23.097656-23.097656zm0 31.199219c-4.464844 0-8.097657-3.632813-8.097657-8.097657 0-4.464843 3.632813-8.097656 8.097657-8.097656 4.464843 0 8.101562 3.632813 8.101562 8.097656 0 4.464844-3.636719 8.097657-8.101562 8.097657zm0 0"/><path d="m327.632812 388.859375c0 33.214844 27.019532 60.234375 60.234376 60.234375 33.210937 0 60.230468-27.019531 60.230468-60.234375 0-33.210937-27.019531-60.234375-60.230468-60.234375-33.214844 0-60.234376 27.023438-60.234376 60.234375zm105.46875 0c0 24.941406-20.292968 45.234375-45.234374 45.234375-24.941407 0-45.234376-20.292969-45.234376-45.234375s20.292969-45.234375 45.234376-45.234375c24.941406 0 45.234374 20.292969 45.234374 45.234375zm0 0"/><path d="m451.480469 246.074219c29.597656-31.769531 31.046875-80.3125 4.027343-113.75-12.234374-15.140625-29.375-25.851563-48.257812-30.15625-4.039062-.921875-8.0625 1.605469-8.980469 5.644531-.921875 4.039062 1.605469 8.058594 5.644531 8.980469 32.890626 7.496093 55.859376 36.320312 55.859376 70.085937 0 34.878906-25.40625 64.632813-59.066407 70.734375-.613281-3.542969-1.742187-7.496093-3.371093-11.25 28.730468-4.558593 50.765624-29.492187 50.765624-59.484375 0-33.210937-27.019531-60.234375-60.234374-60.234375-46.902344 0-75.898438 51.625-51.410157 91.605469-3.53125 1.085938-7.367187 2.753906-10.765625 4.753906-24.792968-42.460937.058594-95.984375 46.519532-106.300781 4.042968-.898437 6.59375-4.90625 5.695312-8.949219-.898438-4.042968-4.898438-6.59375-8.949219-5.695312-18.996093 4.21875-36.25 14.902344-48.585937 30.082031-12.519532 15.410156-19.414063 34.847656-19.414063 54.738281 0 16.316406 4.480469 31.992188 13.003907 45.714844-29.125 32.164062-6.246094 83.949219 37.25 83.949219 25.523437 0 46.644531-19.128907 49.828124-43.796875 19.28125-2.933594 37.003907-12.246094 50.441407-26.671875zm-100.269531 55.46875c-19.4375 0-35.253907-15.816407-35.253907-35.253907 0-22.773437 21.601563-40 44.152344-34.109374 15.117187 3.964843 26.355469 17.773437 26.355469 34.109374 0 19.4375-15.8125 35.253907-35.253906 35.253907zm2.121093-85.464844c-24.800781-29.257813-3.890625-74.433594 34.535157-74.433594 24.941406 0 45.234374 20.292969 45.234374 45.234375 0 24.878906-20.195312 45.132813-45.054687 45.234375-8.96875-9.683593-21.328125-15.445312-34.714844-16.035156zm0 0"/><path d="m292.496094 512h190.742187c14.144531 0 25.648438-11.503906 25.648438-25.648438v-186.964843c0-4.144531-3.359375-7.5-7.5-7.5-4.144531 0-7.5 3.355469-7.5 7.5v186.964843c0 5.871094-4.777344 10.648438-10.648438 10.648438h-190.742187c-5.875 0-10.648438-4.777344-10.648438-10.648438v-460.703124c0-5.871094 4.773438-10.648438 10.648438-10.648438h115.367187l86.023438 89.671875v159.714844c0 4.140625 3.355469 7.5 7.5 7.5s7.5-3.359375 7.5-7.5c0-10.949219 0-228.53125 0-238.738281 0-14.144532-11.507813-25.648438-25.648438-25.648438-2.933593 0-187.171875 0-190.742187 0-14.144532 0-25.648438 11.503906-25.648438 25.648438v460.703124c0 14.144532 11.503906 25.648438 25.648438 25.648438zm190.742187-497c5.871094 0 10.648438 4.777344 10.648438 10.648438v57.355468l-65.238281-68.003906zm0 0"/></svg>