<svg id="Capa_1" enable-background="new 0 0 511.988 511.988" height="512" viewBox="0 0 511.988 511.988" width="512" xmlns="http://www.w3.org/2000/svg"><g><g><path d="m453.354 336.814v-93.492c0-1.454-.344-2.875-.915-4.204l-62.139-152.114c-7.846-19.191-26.309-31.591-47.037-31.591h-255.363c-29.296 0-54.57 22.616-57.849 51.686l-15.235 135.102c-.002.019-.001.037-.003.056l-14.577 129.288c-2.543 22.582 15.854 43.161 38.575 43.161l13.904.002c3.508 23.656 23.947 41.867 48.563 41.867 24.621 0 45.064-18.211 48.573-41.867l80.974-.002c5.522 0 10-4.477 10-10s-4.478-10-10-10h-61.649c-4.858-33.118-33.448-58.628-67.893-58.628-34.179 0-62.595 25.117-67.778 57.861-8.684-2.522-14.404-11.19-13.395-20.153l13.582-120.463h47.832c3.866 12.367 15.428 21.367 29.053 21.367h31.94c4.184 0 7.948 2.488 9.566 6.283l34.78 82.953c1.559 3.715 5.193 6.133 9.223 6.133h115.588c5.522 0 10-4.477 10-10v-106.737l111.68.003v83.482c-29.55 4.335-53.544 28.359-57.898 57.898h-56.109c-5.522 0-10 4.477-10 10s4.478 10 10 10h65.344c.013 0 10.101.002 10.101.002 3.508 23.656 23.947 41.867 48.563 41.867 24.621 0 45.064-18.211 48.573-41.867h10.061c5.522 0 10-4.477 10-10-.001-34.446-25.514-63.039-58.635-67.893zm-352.076 99.761c-13.549 0-24.966-9.309-28.19-21.867h56.39c-3.225 12.558-14.646 21.867-28.2 21.867zm.004-80.497c23.387 0 42.971 16.596 47.596 38.628h-86.6-8.592c4.625-22.033 24.209-38.628 47.596-38.628zm389.673 38.63s-92.326 0-95.188 0c4.679-22.299 24.917-38.545 47.635-38.629 23.368.02 42.932 16.609 47.553 38.629zm-115.012-161.386c-4.943-.037-8.955-4.067-8.955-9.02v-89.619c0-4.975 4.048-9.023 9.022-9.023h7.43l44.911 107.662zm-160.321 116.736v-42.874h32.866c6.346 0 11.508 5.163 11.508 11.508v31.366zm86.052 0h-21.678v-31.366c0-17.37-14.13-31.503-31.498-31.508-.005 0-.01-.001-.015-.001h-33.854l-10.3-98.753c-.572-5.493-5.477-9.485-10.983-8.909-5.493.573-9.481 5.491-8.909 10.983l11.186 107.248v35.338l-25.118-59.907c-4.79-11.234-15.776-18.494-27.987-18.494h-31.94c-5.752 0-10.432-4.679-10.432-10.431v-.937-107.23c0-5.752 4.68-10.431 10.432-10.431h180.667c5.392 0 9.842 4.112 10.377 9.366.036.35.054.706.054 1.065v107.23 106.737zm-10.431-244.398h-180.667c-16.78 0-30.432 13.651-30.432 30.431v97.23h-44.197l13.979-123.982c2.152-19.089 18.741-33.926 37.974-33.926h255.363c12.569 0 23.766 7.521 28.522 19.157l4.53 11.09h-.306c-16.003 0-29.022 13.02-29.022 29.023v89.619c0 3.148.511 6.178 1.442 9.02h-26.756v-97.23c.001-16.78-13.65-30.432-30.43-30.432zm152.111 330.915c-13.549 0-24.966-9.309-28.19-21.867h56.39c-3.225 12.558-14.645 21.867-28.2 21.867z"/><path d="m286.069 400.884c-1.64-3.934-5.716-6.462-9.972-6.144-4.354.324-8.049 3.521-9.014 7.776-1.978 8.723 8.172 15.506 15.498 10.366 3.771-2.646 5.263-7.737 3.488-11.998z"/></g></g></svg>