<svg width="38" height="38" viewBox="0 0 38 38" fill="none" xmlns="http://www.w3.org/2000/svg">
<g clip-path="url(#clip0)">
<path d="M25.1893 19.1947L38 27.2934V10.7539L25.1893 19.1947Z" fill="white"/>
<path d="M0 10.7539V27.2934L12.8108 19.1947L0 10.7539Z" fill="white"/>
<path d="M35.625 5.9375H2.37498C1.18985 5.9375 0.249353 6.821 0.071228 7.95863L19 20.4298L37.9287 7.95863C37.7506 6.821 36.8101 5.9375 35.625 5.9375Z" fill="white"/>
<path d="M23.0137 20.6293L19.6531 22.8428C19.4536 22.9735 19.228 23.0376 19 23.0376C18.772 23.0376 18.5464 22.9735 18.3469 22.8428L14.9862 20.627L0.0759888 30.0581C0.258864 31.1862 1.19461 32.0626 2.37499 32.0626H35.625C36.8054 32.0626 37.7411 31.1862 37.924 30.0581L23.0137 20.6293Z" fill="white"/>
</g>
<defs>
<clipPath id="clip0">
<rect width="38" height="38" fill="white"/>
</clipPath>
</defs>
</svg>
