<svg height="512pt" viewBox="0 -1 512 512" width="512pt" xmlns="http://www.w3.org/2000/svg"><path d="m496.484375 107.316406c8.554687 0 15.515625-6.960937 15.515625-15.515625v-40.695312c0-8.554688-6.960938-15.515625-15.515625-15.515625h-25.5625v-20.074219c0-8.554687-6.957031-15.515625-15.515625-15.515625h-90.777344c-8.554687 0-15.515625 6.960938-15.515625 15.515625v130.578125c0 4.148438 3.363281 7.507812 7.507813 7.507812 4.148437 0 7.507812-3.359374 7.507812-7.507812v-130.578125c0-.273437.226563-.5.5-.5h90.777344c.277344 0 .503906.226563.503906.5v288.035156h-43.769531v-112.496093c0-8.554688-6.960937-15.515626-15.515625-15.515626h-381.109375c-8.554687 0-15.515625 6.960938-15.515625 15.515626v174.523437c0 8.554687 6.960938 15.515625 15.515625 15.515625h238.652344v112.492188c0 8.554687 6.960937 15.515624 15.515625 15.515624h201.832031c8.554687 0 15.515625-6.960937 15.515625-15.515624v-174.519532c0-8.558594-6.960938-15.515625-15.515625-15.515625h-.59375v-17.167969h25.5625c8.554687 0 15.515625-6.960937 15.515625-15.515624v-40.695313c0-8.558594-6.960938-15.515625-15.515625-15.515625h-25.5625v-17.808594h25.5625c8.554687 0 15.515625-6.960937 15.515625-15.515625v-40.695312c0-8.554688-6.960938-15.515625-15.515625-15.515625h-25.5625v-17.804688zm-480.96875 258.761719c-.277344 0-.5-.226563-.5-.5v-174.523437c0-.273438.226563-.5.5-.5h381.109375c.277344 0 .5.226562.5.5v112.496093h-25.457031c-6.117188-11.675781-18.28125-19.203125-31.765625-19.203125-13.488282 0-25.652344 7.527344-31.769532 19.203125h-25.847656c-6.117187-11.675781-18.28125-19.203125-31.769531-19.203125-19.773437 0-35.859375 16.089844-35.859375 35.863282 0 19.777343 16.085938 35.863281 35.859375 35.863281 1.226563 0 2.445313-.058594 3.652344-.183594v10.1875zm336.90625-62.527344h-25.039063c3.527344-2.648437 7.886719-4.1875 12.519532-4.1875 4.628906 0 8.988281 1.539063 12.519531 4.1875zm-98.253906 37.171875c-1.195313.207032-2.414063.335938-3.648438.335938-11.496093 0-20.851562-9.351563-20.851562-20.847656 0-11.496094 9.355469-20.847657 20.851562-20.847657 5.183594 0 10.027344 1.921875 13.746094 5.179688-5.886719 2.207031-10.097656 7.875-10.097656 14.523437zm217.847656-21.65625v174.519532c0 .277343-.226563.5-.5.5h-201.832031c-.277344 0-.5-.222657-.5-.5v-147.289063c0-.027344 0-.054687 0-.082031v-27.148438c0-.277344.222656-.5.5-.5h7.792968.113282 89.09375c.019531 0 .042968.003906.0625.003906.019531 0 .039062-.003906.058594-.003906h104.710937c.273437 0 .5.222656.5.5zm24.46875-268.460937c.273437 0 .5.222656.5.5v40.691406c0 .277344-.226563.5-.5.5h-25.5625v-41.691406zm0 179.0625c.273437 0 .5.226562.5.503906v40.695313c0 .273437-.226563.5-.5.5h-25.5625v-41.699219zm0-89.53125c.273437 0 .5.222656.5.5v40.695312c0 .273438-.226563.5-.5.5h-25.5625v-41.695312zm0 0"/><path d="m88.347656 162.886719h201.683594c8.554688 0 15.515625-6.960938 15.515625-15.515625v-90.777344c0-8.558594-6.960937-15.515625-15.515625-15.515625h-20.351562v-25.5625c0-8.554687-6.957032-15.515625-15.515626-15.515625h-40.695312c-8.554688 0-15.515625 6.960938-15.515625 15.515625 0 4.144531 3.363281 7.507813 7.507813 7.507813 4.148437 0 7.507812-3.363282 7.507812-7.507813 0-.273437.226562-.5.5-.5h40.695312c.277344 0 .5.226563.5.5v25.5625h-74.515624v-25.5625c0-8.554687-6.960938-15.515625-15.515626-15.515625h-40.695312c-8.554688 0-15.515625 6.960938-15.515625 15.515625v25.5625h-20.074219c-8.554687 0-15.515625 6.957031-15.515625 15.515625v90.777344c0 8.554687 6.960938 15.515625 15.515625 15.515625zm35.089844-147.371094c0-.273437.226562-.5.5-.5h40.695312c.277344 0 .5.226563.5.5v25.5625h-41.695312zm-35.589844 41.078125c0-.277344.226563-.503906.5-.503906h201.683594c.277344 0 .5.226562.5.503906v90.777344c0 .273437-.222656.5-.5.5h-201.683594c-.273437 0-.5-.226563-.5-.5zm0 0"/><path d="m71.453125 200.558594c-19.777344 0-35.863281 16.089844-35.863281 35.863281 0 19.777344 16.085937 35.867187 35.863281 35.867187 19.773437 0 35.859375-16.089843 35.859375-35.867187 0-19.773437-16.085938-35.863281-35.859375-35.863281zm0 56.714844c-11.496094 0-20.851563-9.355469-20.851563-20.851563 0-11.492187 9.355469-20.847656 20.851563-20.847656 11.492187 0 20.847656 9.355469 20.847656 20.847656 0 11.496094-9.355469 20.851563-20.847656 20.851563zm0 0"/><path d="m71.453125 284.347656c-19.777344 0-35.863281 16.089844-35.863281 35.863282 0 19.777343 16.085937 35.863281 35.863281 35.863281 19.773437 0 35.859375-16.085938 35.859375-35.863281 0-19.773438-16.085938-35.863282-35.859375-35.863282zm0 56.710938c-11.496094 0-20.851563-9.351563-20.851563-20.847656 0-11.496094 9.355469-20.847657 20.851563-20.847657 11.492187 0 20.847656 9.351563 20.847656 20.847657 0 11.496093-9.355469 20.847656-20.847656 20.847656zm0 0"/><path d="m160.835938 200.558594c-11.296876 0-21.703126 5.160156-28.550782 14.15625-2.511718 3.300781-1.875 8.011718 1.425782 10.523437 3.296874 2.507813 8.007812 1.875 10.519531-1.425781 3.984375-5.234375 10.035156-8.238281 16.601562-8.238281 11.496094 0 20.851563 9.355469 20.851563 20.847656 0 11.5-9.355469 20.851563-20.851563 20.851563-6.550781 0-12.597656-2.992188-16.582031-8.210938-2.515625-3.296875-7.226562-3.925781-10.523438-1.410156-3.292968 2.515625-3.925781 7.226562-1.410156 10.523437 6.851563 8.96875 17.246094 14.109375 28.515625 14.109375 19.777344 0 35.867188-16.085937 35.867188-35.863281 0-19.773437-16.089844-35.863281-35.863281-35.863281zm0 0"/><path d="m160.835938 284.347656c-19.777344 0-35.863282 16.089844-35.863282 35.863282 0 19.777343 16.085938 35.863281 35.863282 35.863281 19.773437 0 35.863281-16.085938 35.863281-35.863281 0-19.773438-16.089844-35.863282-35.863281-35.863282zm0 56.710938c-11.496094 0-20.851563-9.351563-20.851563-20.847656 0-11.496094 9.355469-20.847657 20.851563-20.847657 11.496093 0 20.847656 9.351563 20.847656 20.847657 0 11.496093-9.351563 20.847656-20.847656 20.847656zm0 0"/><path d="m250.519531 272.289062c19.773438 0 35.863281-16.089843 35.863281-35.867187 0-19.773437-16.089843-35.863281-35.863281-35.863281-19.777343 0-35.863281 16.089844-35.863281 35.863281 0 19.777344 16.085938 35.867187 35.863281 35.867187zm0-56.714843c11.496094 0 20.847657 9.355469 20.847657 20.847656 0 11.5-9.351563 20.851563-20.847657 20.851563-11.496093 0-20.851562-9.355469-20.851562-20.851563 0-11.492187 9.355469-20.847656 20.851562-20.847656zm0 0"/><path d="m339.902344 272.289062c19.773437 0 35.863281-16.089843 35.863281-35.867187 0-19.773437-16.089844-35.863281-35.863281-35.863281-19.777344 0-35.863282 16.089844-35.863282 35.863281 0 19.777344 16.085938 35.867187 35.863282 35.867187zm0-56.714843c11.492187 0 20.847656 9.355469 20.847656 20.847656 0 11.5-9.355469 20.851563-20.847656 20.851563-11.496094 0-20.847656-9.355469-20.847656-20.851563 0-11.492187 9.351562-20.847656 20.847656-20.847656zm0 0"/><path d="m325.90625 328.570312c-19.773438 0-35.863281 16.085938-35.863281 35.863282 0 19.773437 16.089843 35.863281 35.863281 35.863281 19.777344 0 35.863281-16.089844 35.863281-35.863281 0-19.777344-16.085937-35.863282-35.863281-35.863282zm0 56.710938c-11.496094 0-20.847656-9.355469-20.847656-20.847656 0-11.496094 9.355468-20.847656 20.847656-20.847656 11.496094 0 20.847656 9.351562 20.847656 20.847656 0 11.492187-9.351562 20.847656-20.847656 20.847656zm0 0"/><path d="m325.90625 412.355469c-19.773438 0-35.863281 16.089843-35.863281 35.863281 0 19.777344 16.089843 35.863281 35.863281 35.863281 19.777344 0 35.863281-16.085937 35.863281-35.863281 0-19.773438-16.085937-35.863281-35.863281-35.863281zm0 56.710937c-11.496094 0-20.847656-9.351562-20.847656-20.847656s9.355468-20.847656 20.847656-20.847656c11.496094 0 20.847656 9.351562 20.847656 20.847656s-9.351562 20.847656-20.847656 20.847656zm0 0"/><path d="m379.425781 364.433594c0 19.773437 16.089844 35.863281 35.863281 35.863281 19.777344 0 35.867188-16.089844 35.867188-35.863281 0-19.777344-16.089844-35.863282-35.867188-35.863282-19.773437 0-35.863281 16.085938-35.863281 35.863282zm35.863281-20.847656c11.496094 0 20.851563 9.351562 20.851563 20.847656s-9.355469 20.847656-20.851563 20.847656c-11.496093 0-20.847656-9.355469-20.847656-20.847656 0-11.496094 9.351563-20.847656 20.847656-20.847656zm0 0"/><path d="m415.289062 412.355469c-19.773437 0-35.863281 16.089843-35.863281 35.863281 0 19.777344 16.089844 35.863281 35.863281 35.863281 19.777344 0 35.867188-16.085937 35.867188-35.863281 0-19.773438-16.089844-35.863281-35.867188-35.863281zm0 56.710937c-11.496093 0-20.847656-9.351562-20.847656-20.847656s9.355469-20.847656 20.847656-20.847656c11.496094 0 20.851563 9.351562 20.851563 20.847656s-9.355469 20.847656-20.851563 20.847656zm0 0"/></svg>