<svg height="852pt" viewBox="-186 -26 852 852.49995" width="852pt" xmlns="http://www.w3.org/2000/svg"><path d="m187.902344 394.636719c-1.242188-4.980469-5.242188-8.816407-10.28125-9.828125-5.035156-1.019532-10.207032.949218-13.292969 5.058594l-24.707031 32.945312-5.328125-15.839844c-1.703125-5.117187-6.316407-8.710937-11.703125-9.085937-5.375-.386719-10.457032 2.511719-12.863282 7.339843l-26.644531 53.277344c-3.28125 6.585938-.613281 14.597656 5.972657 17.882813 6.585937 3.285156 14.585937.617187 17.878906-5.96875l12.246094-24.527344 3.148437 9.457031c1.554687 4.734375 5.609375 8.199219 10.527344 8.996094 4.910156.796875 9.855469-1.214844 12.824219-5.210938l23.179687-30.886718 6.527344 26.121094c1.058593 4.714843 4.589843 8.480468 9.222656 9.84375 4.632813 1.375 9.644531.128906 13.097656-3.257813 3.449219-3.386719 4.800781-8.371094 3.515625-13.039063zm0 0"/><path d="m262.273438 476.453125c3.160156 1.578125 6.820312 1.835937 10.171874.71875 3.355469-1.121094 6.125-3.527344 7.699219-6.6875l12.253907-24.527344 3.148437 9.460938c1.578125 4.691406 5.632813 8.121093 10.527344 8.902343 4.886719.78125 9.808593-1.214843 12.765625-5.1875l23.183594-30.886718 6.523437 26.121094c1.0625 4.714843 4.59375 8.480468 9.226563 9.84375 4.636718 1.375 9.644531.128906 13.097656-3.257813 3.449218-3.386719 4.796875-8.371094 3.519531-13.039063l-13.324219-53.277343c-1.242187-4.980469-5.242187-8.816407-10.28125-9.828125-5.035156-1.019532-10.203125.949218-13.292968 5.058594l-24.710938 32.945312-5.324219-15.839844c-1.699219-5.117187-6.316406-8.710937-11.699219-9.085937-5.382812-.386719-10.460937 2.511719-12.871093 7.339843l-26.636719 53.277344c-1.597656 3.179688-1.859375 6.863282-.726562 10.230469 1.128906 3.371094 3.558593 6.152344 6.75 7.71875zm0 0"/><path d="m361.066406 527.839844c-1.242187-4.984375-5.242187-8.808594-10.28125-9.828125-5.035156-1.019531-10.203125.953125-13.292968 5.0625l-24.710938 32.9375-5.324219-15.832031c-1.699219-5.125-6.316406-8.710938-11.699219-9.09375-5.382812-.386719-10.460937 2.519531-12.871093 7.339843l-26.636719 53.289063c-3.289062 6.582031-.617188 14.585937 5.96875 17.871094 6.585938 3.289062 14.585938.617187 17.878906-5.96875l12.25-24.515626 3.144532 9.453126c1.554687 4.726562 5.609374 8.195312 10.527343 8.988281 4.910157.800781 9.859375-1.203125 12.820313-5.203125l23.183594-30.894532 6.523437 26.121094c1.0625 4.714844 4.59375 8.488282 9.226563 9.855469 4.636718 1.367187 9.644531.117187 13.097656-3.269531 3.449218-3.382813 4.796875-8.371094 3.519531-13.027344zm0 0"/><path d="m187.902344 661.042969c-1.242188-4.988281-5.242188-8.8125-10.28125-9.824219-5.035156-1.019531-10.207032.945312-13.292969 5.058594l-24.707031 32.941406-5.328125-15.839844c-1.703125-5.121094-6.316407-8.707031-11.703125-9.089844-5.375-.378906-10.457032 2.519532-12.863282 7.347657l-26.644531 53.277343c-3.28125 6.585938-.613281 14.585938 5.972657 17.875 6.585937 3.292969 14.585937.621094 17.878906-5.960937l12.246094-24.527344 3.148437 9.457031c1.554687 4.730469 5.609375 8.195313 10.527344 8.992188 4.910156.792969 9.855469-1.210938 12.824219-5.207031l23.179687-30.890625 6.527344 26.117187c1.058593 4.71875 4.589843 8.488281 9.222656 9.851563 4.632813 1.367187 9.644531.117187 13.097656-3.269532 3.449219-3.382812 4.800781-8.367187 3.515625-13.027343zm0 0"/><path d="m428.074219-1.75h-399.609375c-22.074219 0-39.96875 17.894531-39.96875 39.960938v719.296874c0 22.070313 17.894531 39.960938 39.96875 39.960938h399.609375c22.066406 0 39.953125-17.890625 39.953125-39.960938v-719.296874c0-22.066407-17.886719-39.960938-39.953125-39.960938zm13.316406 319.6875h-159.84375c-7.355469 0-13.324219 5.96875-13.324219 13.320312 0 7.359376 5.96875 13.324219 13.324219 13.324219h159.84375v412.925781c0 7.359376-5.964844 13.324219-13.316406 13.324219h-399.609375c-7.363282 0-13.324219-5.964843-13.324219-13.324219v-412.925781h159.839844c7.359375 0 13.320312-5.964843 13.320312-13.324219 0-7.351562-5.960937-13.320312-13.320312-13.320312h-159.839844v-279.726562c0-7.355469 5.960937-13.320313 13.324219-13.320313h399.609375c7.351562 0 13.316406 5.964844 13.316406 13.320313zm0 0"/><path d="m161.664062 610.988281c14.710938 0 26.636719-11.933593 26.636719-26.644531v-39.957031c0-14.714844-11.925781-26.644531-26.636719-26.644531h-39.960937c-14.71875 0-26.644531 11.929687-26.644531 26.644531v39.957031c0 14.710938 11.925781 26.644531 26.644531 26.644531zm-39.960937-66.601562h39.960937v39.957031h-39.960937zm0 0"/><path d="m334.828125 637.625h-39.964844c-14.710937 0-26.640625 11.933594-26.640625 26.644531v39.957031c0 14.710938 11.929688 26.640626 26.640625 26.640626h39.964844c14.714844 0 26.640625-11.929688 26.640625-26.640626v-39.957031c0-14.710937-11.925781-26.644531-26.640625-26.644531zm-39.964844 66.601562v-39.957031h39.964844v39.957031zm0 0"/><path d="m230.273438 164.914062c-30.464844-4.671874-41.972657-8.511718-41.972657-30.394531 0-15.53125 21.863281-28.042969 39.96875-28.042969 15.949219-1.710937 31.6875 4.808594 41.738281 17.316407 3.65625 6.339843 11.742188 8.550781 18.113282 4.941406 6.367187-3.609375 8.628906-11.679687 5.070312-18.074219-11.816406-17.226562-30.78125-28.1875-51.605468-29.824218v-15.980469c0-7.359375-5.964844-13.324219-13.316407-13.324219-7.363281 0-13.324219 5.964844-13.324219 13.324219v16.316406c-27.304687 5.183594-53.28125 25.640625-53.28125 53.347656 0 46.816407 38.867188 52.777344 64.589844 56.71875 30.464844 4.671875 41.96875 8.507813 41.96875 30.398438 0 9.941406-17.460937 21.511719-39.953125 21.511719-16.226562-.703126-31.949219-5.847657-45.453125-14.867188-3.839844-2.9375-8.96875-3.566406-13.40625-1.632812-4.433594 1.925781-7.476562 6.109374-7.941406 10.921874-.46875 4.808594 1.707031 9.5 5.683594 12.246094 14.359375 9.714844 30.675781 16.171875 47.792968 18.917969v22.566406c0 7.351563 5.960938 13.316407 13.324219 13.316407 7.351563 0 13.316407-5.964844 13.316407-13.316407v-22.488281c30.359374-4.472656 53.277343-23.976562 53.277343-47.175781 0-46.824219-38.863281-52.777344-64.589843-56.722657zm0 0"/><path d="m68.417969 64.855469c0 7.351562-5.960938 13.316406-13.316407 13.316406-7.359374 0-13.320312-5.964844-13.320312-13.316406 0-7.359375 5.960938-13.324219 13.320312-13.324219 7.355469 0 13.316407 5.964844 13.316407 13.324219zm0 0"/><path d="m414.75 64.855469c0 7.351562-5.964844 13.316406-13.316406 13.316406-7.359375 0-13.328125-5.964844-13.328125-13.316406 0-7.359375 5.96875-13.324219 13.328125-13.324219 7.351562 0 13.316406 5.964844 13.316406 13.324219zm0 0"/><path d="m414.75 118.132812c0 7.359376-5.964844 13.320313-13.316406 13.320313-7.359375 0-13.328125-5.960937-13.328125-13.320313 0-7.355468 5.96875-13.320312 13.328125-13.320312 7.351562 0 13.316406 5.964844 13.316406 13.320312zm0 0"/><path d="m414.75 171.417969c0 7.351562-5.964844 13.316406-13.316406 13.316406-7.359375 0-13.328125-5.964844-13.328125-13.316406 0-7.363281 5.96875-13.324219 13.328125-13.324219 7.351562 0 13.316406 5.960938 13.316406 13.324219zm0 0"/><path d="m414.75 224.695312c0 7.359376-5.964844 13.320313-13.316406 13.320313-7.359375 0-13.328125-5.960937-13.328125-13.320313 0-7.351562 5.96875-13.316406 13.328125-13.316406 7.351562 0 13.316406 5.964844 13.316406 13.316406zm0 0"/><path d="m414.75 277.976562c0 7.359376-5.964844 13.324219-13.316406 13.324219-7.359375 0-13.328125-5.964843-13.328125-13.324219 0-7.355468 5.96875-13.316406 13.328125-13.316406 7.351562 0 13.316406 5.960938 13.316406 13.316406zm0 0"/><path d="m68.417969 118.132812c0 7.359376-5.960938 13.320313-13.316407 13.320313-7.359374 0-13.320312-5.960937-13.320312-13.320313 0-7.355468 5.960938-13.320312 13.320312-13.320312 7.355469 0 13.316407 5.964844 13.316407 13.320312zm0 0"/><path d="m68.417969 171.417969c0 7.351562-5.960938 13.316406-13.316407 13.316406-7.359374 0-13.320312-5.964844-13.320312-13.316406 0-7.363281 5.960938-13.324219 13.320312-13.324219 7.355469 0 13.316407 5.960938 13.316407 13.324219zm0 0"/><path d="m68.417969 224.695312c0 7.359376-5.960938 13.320313-13.316407 13.320313-7.359374 0-13.320312-5.960937-13.320312-13.320313 0-7.351562 5.960938-13.316406 13.320312-13.316406 7.355469 0 13.316407 5.964844 13.316407 13.316406zm0 0"/><path d="m68.417969 277.976562c0 7.359376-5.960938 13.324219-13.316407 13.324219-7.359374 0-13.320312-5.964843-13.320312-13.324219 0-7.355468 5.960938-13.316406 13.320312-13.316406 7.355469 0 13.316407 5.960938 13.316407 13.316406zm0 0"/></svg>