<svg width="600" height="527" viewBox="0 0 600 527" fill="none" xmlns="http://www.w3.org/2000/svg">
<g clip-path="url(#clip0)">
<path d="M334.548 526.008C454.674 526.008 552.056 508.804 552.056 487.582C552.056 466.361 454.674 449.157 334.548 449.157C214.421 449.157 117.039 466.361 117.039 487.582C117.039 508.804 214.421 526.008 334.548 526.008Z" fill="#3F3D56"/>
<path d="M189.795 238.787C203.621 218.236 209.624 193.411 206.716 168.814C203.808 144.217 192.181 121.476 173.944 104.716C155.708 87.9559 132.069 78.2859 107.314 77.4598C82.5595 76.6336 58.3283 84.706 39.0149 100.213C19.7014 115.72 6.58456 137.635 2.04296 161.983C-2.49864 186.332 1.83575 211.502 14.2601 232.929C26.6845 254.356 46.3761 270.621 69.764 278.774C93.152 286.928 118.688 286.43 141.74 277.371C143.234 282.706 146.028 287.586 149.872 291.576C153.715 295.566 158.488 298.54 163.762 300.233C169.037 301.926 174.649 302.285 180.097 301.277C185.544 300.269 190.656 297.926 194.976 294.457C199.296 290.989 202.688 286.503 204.849 281.403C207.01 276.302 207.873 270.745 207.359 265.229C206.846 259.713 204.973 254.41 201.908 249.796C198.843 245.181 194.681 241.399 189.795 238.787V238.787Z" fill="#750ED5"/>
<path d="M145.3 176C149.1 174.267 151.967 172.367 153.9 170.3C155.9 168.167 157.267 165.867 158 163.4C158.733 160.933 159.1 158.333 159.1 155.6C159.1 152.333 158.5 149.767 157.3 147.9C156.1 145.967 154.333 145 152 145C149.467 145 147.6 146.233 146.4 148.7C145.267 151.1 144.7 154.533 144.7 159C139.9 159 136.133 158.433 133.4 157.3C130.667 156.1 129.3 154.067 129.3 151.2C129.3 149 130.067 146.933 131.6 145C133.2 143.067 135.633 141.533 138.9 140.4C142.233 139.2 146.467 138.6 151.6 138.6C156.667 138.6 161.1 139.333 164.9 140.8C168.7 142.267 171.667 144.4 173.8 147.2C175.933 149.933 177 153.233 177 157.1C177 162.433 175.367 166.7 172.1 169.9C168.9 173.033 163.9 176.033 157.1 178.9L155.2 187.7H147.2L145.3 176ZM151 211.9C148.533 211.9 146.433 211.267 144.7 210C143.033 208.733 142.2 206.467 142.2 203.2C142.2 199.933 143.033 197.667 144.7 196.4C146.433 195.133 148.533 194.5 151 194.5C153.333 194.5 155.4 195.133 157.2 196.4C159 197.667 159.9 199.933 159.9 203.2C159.9 206.467 159 208.733 157.2 210C155.4 211.267 153.333 211.9 151 211.9Z" fill="white"/>
<path d="M127 179H27V188H127V179Z" fill="white"/>
<path d="M127 193H27V202H127V193Z" fill="white"/>
<path d="M127 208H27V216H127V208Z" fill="white"/>
<path d="M410.205 161.743C396.379 141.193 390.376 116.368 393.284 91.7705C396.193 67.1733 407.819 44.4327 426.056 27.6725C444.292 10.9122 467.931 1.24224 492.686 0.416074C517.441 -0.410094 541.672 7.66227 560.985 23.1693C580.299 38.6763 593.415 60.5911 597.957 84.9397C602.499 109.288 598.164 134.458 585.74 155.885C573.316 177.312 553.624 193.577 530.236 201.731C506.848 209.884 481.312 209.387 458.26 200.328C456.766 205.662 453.972 210.543 450.128 214.532C446.285 218.522 441.512 221.497 436.238 223.189C430.963 224.882 425.351 225.241 419.903 224.233C414.456 223.225 409.344 220.882 405.024 217.413C400.704 213.945 397.312 209.46 395.151 204.359C392.99 199.258 392.127 193.701 392.641 188.185C393.154 182.669 395.027 177.367 398.092 172.752C401.158 168.138 405.319 164.355 410.205 161.743V161.743Z" fill="#750ED5"/>
<path d="M230.35 445.235C222.631 433.761 219.28 419.902 220.904 406.17C222.527 392.437 229.018 379.742 239.199 370.385C249.38 361.028 262.578 355.629 276.398 355.168C290.218 354.706 303.746 359.213 314.529 367.87C325.311 376.528 332.634 388.763 335.17 402.356C337.705 415.95 335.285 430.002 328.349 441.964C321.413 453.926 310.419 463.007 297.362 467.559C284.305 472.111 270.048 471.833 257.179 466.776C256.344 469.754 254.784 472.479 252.639 474.706C250.493 476.933 247.829 478.594 244.884 479.539C241.939 480.484 238.806 480.684 235.765 480.122C232.723 479.559 229.869 478.251 227.458 476.314C225.046 474.378 223.152 471.874 221.946 469.026C220.739 466.179 220.258 463.076 220.544 459.997C220.831 456.917 221.876 453.957 223.588 451.381C225.299 448.804 227.622 446.693 230.35 445.235V445.235Z" fill="#750ED5"/>
<path d="M255.618 418.33C259.313 418.33 262.309 415.334 262.309 411.638C262.309 407.943 259.313 404.947 255.618 404.947C251.922 404.947 248.926 407.943 248.926 411.638C248.926 415.334 251.922 418.33 255.618 418.33Z" fill="white"/>
<path d="M278.448 418.33C282.143 418.33 285.139 415.334 285.139 411.638C285.139 407.943 282.143 404.947 278.448 404.947C274.752 404.947 271.756 407.943 271.756 411.638C271.756 415.334 274.752 418.33 278.448 418.33Z" fill="white"/>
<path d="M301.278 418.33C304.974 418.33 307.969 415.334 307.969 411.638C307.969 407.943 304.974 404.947 301.278 404.947C297.582 404.947 294.586 407.943 294.586 411.638C294.586 415.334 297.582 418.33 301.278 418.33Z" fill="white"/>
<path d="M285.149 204.048C285.149 204.048 315.005 204.86 319.936 206.654C324.867 208.448 327.072 221.276 327.072 221.276L303.891 228.562L286.552 227.58L273.503 228.502L280.789 209.42L285.149 204.048Z" fill="#2F2E41"/>
<path d="M286.437 194.251C286.437 194.251 288.401 201.838 284.041 207.21C279.682 212.582 302.783 231.724 302.783 231.724L314.97 229.63C314.97 229.63 312.284 206.318 315.892 200.415C319.5 194.511 286.437 194.251 286.437 194.251Z" fill="#9F616A"/>
<path opacity="0.1" d="M286.437 194.251C286.437 194.251 288.401 201.838 284.041 207.21C279.682 212.582 302.783 231.724 302.783 231.724L314.97 229.63C314.97 229.63 312.284 206.318 315.892 200.415C319.5 194.511 286.437 194.251 286.437 194.251Z" fill="black"/>
<path d="M367.488 416.074L340.598 451.734L358.949 462.448L384.205 421.125L367.488 416.074Z" fill="#9F616A"/>
<path d="M348.626 452.335C348.626 452.335 338.724 440.83 339.165 443.395C339.606 445.961 332.119 467.72 339.085 469.824C346.05 471.929 405.783 477.511 406.605 470.766C407.427 464.021 388.785 459.301 388.785 459.301C388.785 459.301 377.711 448.657 375.255 449.739C372.8 450.822 348.626 452.335 348.626 452.335Z" fill="#2F2E41"/>
<path d="M361.455 450.131L382.933 486.721L399.148 477.331L377.49 447.374L361.455 450.131Z" fill="#9F616A"/>
<path d="M395.36 363.076L388.985 372.097C388.985 372.097 358.598 414.301 361.825 417.708C365.052 421.116 378.492 433.994 385.327 431.499C392.163 429.003 416.446 385.867 416.446 385.867L410.112 360.541L395.36 363.076Z" fill="#2F2E41"/>
<path d="M264.458 354.538C264.458 354.538 271.263 367.236 288.512 371.535C305.76 375.835 323.78 384.625 324.422 384.514C325.063 384.404 326.877 383.432 327.318 385.998C327.759 388.563 332.49 393.033 332.49 393.033C332.49 393.033 351.542 457.777 358.819 457.847C366.095 457.917 381.048 452.706 381.359 450.671C381.669 448.637 359.079 382.52 358.858 381.237L356.212 365.843C356.212 365.843 386.089 370.613 388.875 371.455C391.661 372.297 416.447 385.867 416.447 385.867C416.447 385.867 441.713 367.656 418.08 349.266C394.447 330.875 353.827 317.385 353.827 317.385L339.255 313.286L326.554 312.528L324.684 305.357L294.605 307.092L263.215 320.412L264.458 354.538Z" fill="#2F2E41"/>
<path d="M304.156 209.352C317.096 209.352 327.586 198.863 327.586 185.922C327.586 172.982 317.096 162.492 304.156 162.492C291.216 162.492 280.726 172.982 280.726 185.922C280.726 198.863 291.216 209.352 304.156 209.352Z" fill="#9F616A"/>
<path d="M282.959 204.754L285.777 204.27C285.777 204.27 290.867 223.867 306.612 227.104C306.612 227.104 314.381 217.797 314.049 216.227C313.717 214.656 320.202 206.278 323.65 210.968C327.097 215.658 322.808 298.282 325.704 299.766C328.601 301.249 334.815 302.822 329.814 308.305C324.812 313.787 304.948 321.163 300.548 318.618C296.149 316.072 287.159 294.504 283.27 287.248C279.381 279.992 273.157 255.307 273.157 255.307C273.157 255.307 265.21 228.277 270.1 222.153C274.991 216.029 282.959 204.754 282.959 204.754Z" fill="#D0CDE1"/>
<path d="M305.383 306.473C304.859 312.228 303.963 317.944 302.699 323.583C301.55 328.172 300.212 330.942 298.685 330.824C294.789 330.533 293.018 336.247 292.105 342.834C291.129 349.823 291.129 357.796 290.594 360.614C289.886 364.336 285.353 367.177 276.294 366.343C270.899 365.73 265.604 364.431 260.537 362.479C248.307 358.032 248.669 321.97 250.715 295.21C251.966 278.808 253.847 265.893 253.847 265.893C253.847 265.893 250.132 254.811 248.944 247.217C248.707 245.831 248.589 244.427 248.59 243.022C248.771 236.387 260.883 218.458 268.203 207.29C275.53 196.122 285.526 204.315 285.526 204.315L282.047 214.814C282.047 214.814 287.438 223.133 287.478 231.051C287.517 238.968 300.385 244.682 305.005 248.515C307.909 250.924 307.838 283.074 305.383 306.473Z" fill="#2F2E41"/>
<path d="M315.557 208.067C315.557 208.067 316.401 209.065 320.267 208.578C324.904 207.994 331.279 209.598 332.76 214.025C335.476 222.143 343.133 255.166 343.133 255.166C343.133 255.166 346.32 292.92 347.753 301.259C349.187 309.598 348.475 316.984 349.888 321.364C351.301 325.743 335.937 313.196 330.275 314.829C324.612 316.463 320.974 295.296 321.685 287.909C322.397 280.523 322.998 272.495 321.034 264.908C319.069 257.321 322.552 237.242 322.422 232.641C322.292 228.041 309.936 216.447 315.557 208.067Z" fill="#2F2E41"/>
<path d="M332.135 325.406C332.135 325.406 356.943 338.94 359.317 358.203C361.691 377.466 326.136 339.551 326.136 339.551L332.135 325.406Z" fill="#9F616A"/>
<path d="M346.296 311.745C346.296 311.745 353.898 350.061 365.74 348.026C377.581 345.991 359.125 309.54 359.125 309.54L346.296 311.745Z" fill="#9F616A"/>
<path d="M386.851 478.784C386.851 478.784 380.787 485.769 379.284 484.707C377.781 483.645 374.323 498.107 377.44 500.873C380.557 503.639 392.564 508.179 392.694 512.78C392.824 517.38 425.026 516.468 426.179 511.647C427.331 506.826 422.14 495.832 418.491 493.817C414.843 491.803 401.354 473.262 401.354 473.262C401.354 473.262 390.79 474.805 386.851 478.784Z" fill="#2F2E41"/>
<path opacity="0.1" d="M328.183 348.839C322.43 344.778 306.367 343.771 292.105 342.834C285.848 342.433 279.938 342.039 275.396 341.402C271.021 340.796 267.085 336.798 263.591 330.84C258.294 321.812 254.013 308.275 250.715 295.21C251.966 278.808 253.847 265.893 253.847 265.893C253.847 265.893 250.132 254.811 248.944 247.216C249.782 246.051 250.861 245.079 252.108 244.367C267.235 237.874 281.677 301.774 283.511 311.801C283.542 311.966 283.566 312.124 283.59 312.258C284.479 317.421 294.089 321.836 302.699 323.583C308.004 324.661 312.938 324.732 315.213 323.331C321.187 319.664 339.556 334.342 340.949 334.759C342.342 335.184 336.447 354.687 328.183 348.839Z" fill="black"/>
<path d="M252.11 240.434C252.11 240.434 241.116 245.626 245.947 269.89C250.778 294.154 260.509 335.405 275.393 337.47C290.276 339.534 319.912 339.063 328.18 344.906C336.448 350.749 342.342 331.246 340.948 330.825C339.555 330.404 321.184 315.731 315.211 319.399C309.238 323.068 285.024 316.663 283.591 308.325C282.158 299.986 267.485 233.829 252.11 240.434Z" fill="#2F2E41"/>
<path d="M331.337 228.798L343.42 256.836C343.42 256.836 344.636 256.229 346.05 260.609C347.463 264.988 348.124 268.837 350.6 271.713C353.075 274.59 364.09 315.621 364.421 317.545C364.751 319.47 349.208 326.103 345.734 320.757C342.261 315.411 331.337 228.798 331.337 228.798Z" fill="#2F2E41"/>
<path d="M290.826 185.596C291.724 185.357 291.856 184.164 291.886 183.235C292.047 178.261 295.043 173.157 299.804 171.709C301.631 171.208 303.544 171.102 305.416 171.4C308.086 171.756 310.665 172.616 313.015 173.935C314.255 174.632 315.471 175.472 316.878 175.685C317.807 175.826 321.83 176.995 322.755 177.16C324.789 177.522 326.679 179.341 328.631 178.664C330.498 178.016 330.911 175.599 330.956 173.623C331.059 169.121 327.642 162.891 324.632 159.542C322.348 157.001 318.909 155.828 315.547 155.218C311.619 154.587 307.639 154.345 303.665 154.495C298.284 154.591 292.755 155.007 287.903 157.335C283.052 159.663 278.976 164.296 278.744 169.672C278.695 170.792 278.811 171.917 278.717 173.034C278.487 175.759 277.04 178.22 276.361 180.869C275.876 182.812 275.804 184.836 276.148 186.81C276.493 188.783 277.248 190.662 278.363 192.326C280.164 194.976 282.994 197.372 282.89 200.574L286.794 196.53C287.377 196.084 287.79 195.453 287.964 194.74C288.137 194.027 288.061 193.276 287.748 192.613L286.366 187.222C286.01 186.26 285.969 185.21 286.246 184.223C287.727 180.562 289.329 185.996 290.826 185.596Z" fill="#2F2E41"/>
<path d="M468.258 455.165C468.097 454.901 464.281 448.53 462.959 435.302C461.746 423.166 462.526 402.71 473.135 374.175C493.233 320.118 468.503 276.502 468.25 276.068L469.47 275.36C469.534 275.47 475.916 286.591 479.685 304.298C484.666 327.775 482.852 352.185 474.457 374.667C454.393 428.632 469.309 454.178 469.462 454.43L468.258 455.165Z" fill="#3F3D56"/>
<path d="M460.4 272.894C465.462 272.894 469.565 268.79 469.565 263.728C469.565 258.666 465.462 254.562 460.4 254.562C455.337 254.562 451.234 258.666 451.234 263.728C451.234 268.79 455.337 272.894 460.4 272.894Z" fill="#750ED5"/>
<path d="M489.307 306.736C494.369 306.736 498.472 302.633 498.472 297.57C498.472 292.508 494.369 288.405 489.307 288.405C484.245 288.405 480.141 292.508 480.141 297.57C480.141 302.633 484.245 306.736 489.307 306.736Z" fill="#3F3D56"/>
<path d="M469.565 329.298C474.627 329.298 478.731 325.194 478.731 320.132C478.731 315.07 474.627 310.967 469.565 310.967C464.503 310.967 460.4 315.07 460.4 320.132C460.4 325.194 464.503 329.298 469.565 329.298Z" fill="#750ED5"/>
<path d="M493.537 348.334C498.599 348.334 502.703 344.231 502.703 339.169C502.703 334.107 498.599 330.003 493.537 330.003C488.475 330.003 484.371 334.107 484.371 339.169C484.371 344.231 488.475 348.334 493.537 348.334Z" fill="#750ED5"/>
<path d="M462.515 377.947C467.577 377.947 471.68 373.843 471.68 368.781C471.68 363.719 467.577 359.615 462.515 359.615C457.453 359.615 453.349 363.719 453.349 368.781C453.349 373.843 457.453 377.947 462.515 377.947Z" fill="#3F3D56"/>
<path d="M473.796 455.502C473.796 455.502 464.63 432.941 492.127 416.019L473.796 455.502Z" fill="#3F3D56"/>
<path d="M462.523 455.093C462.523 455.093 458.352 431.101 426.066 431.306L462.523 455.093Z" fill="#3F3D56"/>
<path d="M482.95 104.5C488.65 101.9 492.95 99.05 495.85 95.95C498.85 92.75 500.9 89.3 502 85.6C503.1 81.9 503.65 78 503.65 73.9C503.65 69 502.75 65.15 500.95 62.35C499.15 59.45 496.5 58 493 58C489.2 58 486.4 59.85 484.6 63.55C482.9 67.15 482.05 72.3 482.05 79C474.85 79 469.2 78.15 465.1 76.45C461 74.65 458.95 71.6 458.95 67.3C458.95 64 460.1 60.9 462.4 58C464.8 55.1 468.45 52.8 473.35 51.1C478.35 49.3 484.7 48.4 492.4 48.4C500 48.4 506.65 49.5 512.35 51.7C518.05 53.9 522.5 57.1 525.7 61.3C528.9 65.4 530.5 70.35 530.5 76.15C530.5 84.15 528.05 90.55 523.15 95.35C518.35 100.05 510.85 104.55 500.65 108.85L497.8 122.05H485.8L482.95 104.5ZM491.5 158.35C487.8 158.35 484.65 157.4 482.05 155.5C479.55 153.6 478.3 150.2 478.3 145.3C478.3 140.4 479.55 137 482.05 135.1C484.65 133.2 487.8 132.25 491.5 132.25C495 132.25 498.1 133.2 500.8 135.1C503.5 137 504.85 140.4 504.85 145.3C504.85 150.2 503.5 153.6 500.8 155.5C498.1 157.4 495 158.35 491.5 158.35Z" fill="white"/>
</g>
<defs>
<clipPath id="clip0">
<rect width="600" height="526.008" fill="white"/>
</clipPath>
</defs>
</svg>
