<?xml version="1.0"?>
<svg xmlns="http://www.w3.org/2000/svg" xmlns:xlink="http://www.w3.org/1999/xlink" xmlns:svgjs="http://svgjs.com/svgjs" version="1.1" width="512" height="512" x="0" y="0" viewBox="0 0 64 64" style="enable-background:new 0 0 512 512" xml:space="preserve" class=""><g transform="matrix(-1.8369701987210297e-16,-1,1,-1.8369701987210297e-16,0.4054999351501465,64.59450101852418)"><g xmlns="http://www.w3.org/2000/svg"><path d="m60 17h-3.295c.19.634.295 1.305.295 2s-.105 1.366-.295 2h3.295c1.105 0 2-.895 2-2s-.895-2-2-2z" fill="#ffffff" data-original="#000000" style="" class=""/><path d="m9 34.162c0 .499.459.89.948.831l9.691-2.711c3.461-1.978 7.437-3.15 11.673-3.265l14.868-4.159c-1.227-.803-2.183-1.98-2.714-3.368l-20.466 5.768v-16.594l20.471 5.832c.539-1.401 1.512-2.584 2.759-3.385l-33.586-9.88-1.364 4.093 9.72 2.77v17.727l-8.728 2.46c-1.11.191-2.031.837-2.613 1.719h-6.659v2h6.014c-.002.055-.014.107-.014.162z" fill="#ffffff" data-original="#000000" style="" class=""/><path d="m50 24c2.757 0 5-2.243 5-5s-2.243-5-5-5-5 2.243-5 5 2.243 5 5 5zm0-7c1.105 0 2 .895 2 2s-.895 2-2 2-2-.895-2-2 .895-2 2-2z" fill="#ffffff" data-original="#000000" style="" class=""/><path d="m35 54c0-1.654-1.346-3-3-3s-3 1.346-3 3 1.346 3 3 3 3-1.346 3-3zm-4 0c0-.552.448-1 1-1s1 .448 1 1-.448 1-1 1-1-.448-1-1z" fill="#ffffff" data-original="#000000" style="" class=""/><path d="m55 54c0-2.763-.49-5.413-1.388-7.87l-3.676 1.523-.766-1.848 3.67-1.521c-1-2.137-2.317-4.098-3.895-5.817l-2.804 2.804-1.414-1.414 2.804-2.804c-1.719-1.577-3.68-2.894-5.817-3.895l-1.52 3.67-1.848-.766 1.523-3.676c-2.158-.788-4.467-1.259-6.87-1.362v3.976h-2v-3.975c-2.403.103-4.712.574-6.87 1.362l1.523 3.676-1.848.766-1.52-3.67c-2.137 1-4.098 2.317-5.817 3.895l2.804 2.804-1.414 1.414-2.804-2.804c-1.577 1.719-2.894 3.68-3.895 5.817l3.67 1.521-.766 1.848-3.676-1.523c-.896 2.456-1.386 5.106-1.386 7.869v1h-6v6h2v-4h2v4h2v-2h2v2h2v-4h2v4h2v-2h2v2h2v-4h2v4h2v-2h2v2h2v-3.026c-1.207-.914-2-2.348-2-3.974h-11c0-5.542 2.826-10.415 7.108-13.285-.174-.728-.106-1.431.208-2.059.359-.717.976-1.251 1.737-1.503.301-.101.621-.153.947-.153 1.041 0 1.978.54 2.52 1.389 1.12-.251 2.283-.389 3.48-.389 8.837 0 16 7.163 16 16h-11c0 2.757-2.243 5-5 5-.342 0-.677-.035-1-.101v2.101h2v-2h2v2h2v-4h2v4h2v-2h2v2h2v-4h2v4h2v-2h2v2h2v-4h2v4h2v-2h2v2h2v-6h-6z" fill="#ffffff" data-original="#000000" style="" class=""/><path d="m26.978 39.761c-.208-.608-.801-.88-1.291-.71-.257.085-.462.263-.582.502-.12.238-.139.51-.054.765l4.108 9.578c.541-.376 1.157-.651 1.824-.79z" fill="#ffffff" data-original="#000000" style="" class=""/><path d="m10.549 3.189-4.139.518 3.105 2.587z" fill="#ffffff" data-original="#000000" style="" class=""/></g></g></svg>
