<svg width="155" height="155" viewBox="0 0 155 155" fill="none" xmlns="http://www.w3.org/2000/svg">
<mask id="mask0" mask-type="alpha" maskUnits="userSpaceOnUse" x="0" y="0" width="155" height="155">
<rect width="155" height="155" fill="#C4C4C4"/>
</mask>
<g mask="url(#mask0)">
<path d="M25 80H-3V160.5H77.5V125.5C77.5 125.5 91.1144 134.872 99 128.481C106.704 122.238 107.252 113.789 98.5 106.981C89.5 99.9813 77.5 111 77.5 111V80H47.5C47.5 80 57.2497 91.0504 49 101.5C41.5 111 28.7129 109.004 23.5 100C18 90.5 25 80 25 80Z" fill="#4DFFDF"/>
<path d="M74.5 25V-3L-6 -3L-6 77.5H29C29 77.5 19.6283 91.1144 26.0187 99C32.2619 106.704 40.7114 107.252 47.5187 98.5C54.5187 89.5 43.5 77.5 43.5 77.5H74.5V47.5C74.5 47.5 63.4496 57.2497 53 49C43.5 41.5 45.4958 28.7129 54.5 23.5C64 18 74.5 25 74.5 25Z" fill="#FFF500"/>
<path d="M129.921 74.5H157.921V-6L77.4211 -6L77.4211 29C77.4211 29 63.8067 19.6283 55.9211 26.0187C48.2172 32.2619 47.6688 40.7114 56.4211 47.5187C65.4211 54.5187 77.4211 43.5 77.4211 43.5V74.5H107.421C107.421 74.5 97.6714 63.4496 105.921 53C113.421 43.5 126.208 45.4958 131.421 54.5C136.921 64 129.921 74.5 129.921 74.5Z" fill="#4DFFDF"/>
<path d="M80 128.921V156.921H160.5V76.4211H125.5C125.5 76.4211 134.872 62.8067 128.481 54.9211C122.238 47.2172 113.789 46.6688 106.981 55.4211C99.9813 64.4211 111 76.4211 111 76.4211H80V106.421C80 106.421 91.0504 96.6714 101.5 104.921C111 112.421 109.004 125.208 100 130.421C90.5 135.921 80 128.921 80 128.921Z" fill="#FFF500"/>
<path d="M50.9062 126.766H45.4375V125.125C45.4375 124.823 45.193 124.578 44.8906 124.578C44.0539 124.578 43.3129 124.964 42.8109 125.558C42.6769 125.476 42.5363 125.404 42.3854 125.354L41.2638 124.98C40.8164 124.831 40.5156 124.414 40.5156 123.943V123.484H46.5312C47.1345 123.484 47.625 122.994 47.625 122.391V113.641C47.625 113.037 47.1345 112.547 46.5312 112.547H31.2188C30.6155 112.547 30.125 113.037 30.125 113.641V122.391C30.125 122.994 30.6155 123.484 31.2188 123.484H37.2344V123.943C37.2344 124.414 36.9336 124.831 36.4862 124.98L35.3646 125.354C34.6996 125.576 34.2112 126.113 34.0319 126.766H27.3906V117.469C27.3906 117.166 27.1462 116.922 26.8438 116.922H20.2812C19.9788 116.922 19.7344 117.166 19.7344 117.469V126.766H18.0938C17.7913 126.766 17.5469 127.01 17.5469 127.312V130.594V145.906C17.5469 146.209 17.7913 146.453 18.0938 146.453H20.2812C20.5837 146.453 20.8281 146.209 20.8281 145.906V142.078H26.2969V145.906C26.2969 146.209 26.5413 146.453 26.8438 146.453H29.0312C29.3337 146.453 29.5781 146.209 29.5781 145.906V131.141H42.1562V134.969H35.0469C33.5391 134.969 32.3125 136.195 32.3125 137.703V138.797C32.3125 139.099 32.557 139.344 32.8594 139.344H37.2344V139.758C37.2344 141.036 36.7586 142.237 35.8995 143.172H35.0469C34.1423 143.172 33.4062 143.908 33.4062 144.812C33.4062 145.717 34.1423 146.453 35.0469 146.453H42.7031C43.6077 146.453 44.3438 145.717 44.3438 144.812C44.3438 143.908 43.6077 143.172 42.7031 143.172H41.8505C40.9914 142.237 40.5156 141.036 40.5156 139.758V139.344H43.7969C44.7014 139.344 45.4375 138.608 45.4375 137.703V135.516V131.141H48.1719V145.906C48.1719 146.209 48.4163 146.453 48.7188 146.453H50.9062C51.2087 146.453 51.4531 146.209 51.4531 145.906V130.594V127.312C51.4531 127.01 51.2087 126.766 50.9062 126.766V126.766ZM46.5312 113.641L46.5318 120.203H31.2188V113.641H46.5312ZM31.2188 121.297H46.5323V122.391H31.2188V121.297ZM35.7108 126.391L36.8324 126.017C37.7266 125.719 38.3281 124.885 38.3281 123.943V123.484H39.4219V123.943C39.4219 124.886 40.0234 125.719 40.9176 126.017L42.0392 126.392C42.1284 126.422 42.212 126.464 42.288 126.517C42.2623 126.6 42.229 126.68 42.2115 126.766H35.2191C35.3362 126.595 35.5046 126.46 35.7108 126.391ZM26.2969 123.484H20.8281V121.297H26.2969V123.484ZM26.2969 118.016V120.203H20.8281V118.016H26.2969ZM20.8281 124.578H26.2969V126.766H20.8281V124.578ZM19.7344 145.359H18.6406V131.141H19.7344V145.359ZM26.2969 131.141V135.516H20.8281V131.141H26.2969ZM20.8281 140.984V136.609H26.2969V140.984H20.8281ZM28.4844 145.359H27.3906V131.141H28.4844V145.359ZM29.0312 130.047H26.8438H20.2812H18.6406V127.859H42.1562V130.047H29.0312ZM43.25 127.312C43.25 126.599 43.7072 125.991 44.3438 125.765V134.969H43.25V127.312ZM43.25 144.812C43.25 145.114 43.005 145.359 42.7031 145.359H35.0469C34.745 145.359 34.5 145.114 34.5 144.812C34.5 144.511 34.745 144.266 35.0469 144.266H42.7031C43.005 144.266 43.25 144.511 43.25 144.812ZM40.4549 143.172H37.2951C37.9666 142.17 38.3281 140.992 38.3281 139.758V139.344H39.4219V139.758C39.4219 140.992 39.7834 142.17 40.4549 143.172V143.172ZM44.3438 137.703C44.3438 138.005 44.0987 138.25 43.7969 138.25H33.4062V137.703C33.4062 136.799 34.1423 136.062 35.0469 136.062H44.3438V137.703ZM45.4375 127.859H50.3594V130.047H48.7188H45.4375V127.859ZM50.3594 145.359H49.2656V131.141H50.3594V145.359Z" fill="#1900FF"/>
<path d="M22.4688 132.234H24.6562V133.328H22.4688V132.234Z" fill="#1900FF"/>
<path d="M22.4688 137.703H24.6562V138.797H22.4688V137.703Z" fill="#1900FF"/>
<path d="M141.362 120.496C142.129 119.716 142.85 118.891 143.522 118.027C146.021 114.762 146.758 111.946 145.6 110.096C145.04 109.204 143.772 108.15 140.92 108.15C139.026 108.201 137.149 108.524 135.347 109.108C133.969 104.147 131.662 101 129.067 101C126.473 101 124.166 104.184 122.787 109.108C120.985 108.526 119.108 108.206 117.215 108.157C114.355 108.157 113.094 109.219 112.534 110.103C111.377 111.946 112.114 114.762 114.613 118.027C115.284 118.891 116.005 119.716 116.772 120.496C116.005 121.277 115.284 122.101 114.613 122.966C112.114 126.224 111.377 129.047 112.534 130.897C113.094 131.789 114.362 132.843 117.215 132.843C119.108 132.795 120.985 132.474 122.787 131.892C124.166 136.853 126.473 140 129.067 140C131.662 140 133.969 136.816 135.347 131.892C137.15 132.474 139.026 132.795 140.92 132.843C143.772 132.843 145.04 131.781 145.6 130.897C146.758 129.047 146.021 126.224 143.522 122.966C142.85 122.101 142.129 121.277 141.362 120.496ZM117.215 131.369C116.006 131.369 114.436 131.155 113.78 130.108C112.976 128.833 113.706 126.555 115.785 123.857C116.419 123.042 117.101 122.264 117.826 121.528C119.008 122.634 120.251 123.673 121.549 124.639C121.705 126.596 122.001 128.539 122.433 130.455C120.747 131.009 118.989 131.317 117.215 131.369ZM121.423 122.708C120.517 121.971 119.662 121.233 118.873 120.496C119.662 119.759 120.517 119.022 121.423 118.285C121.423 119.022 121.379 119.759 121.379 120.496C121.379 121.233 121.394 121.971 121.423 122.708ZM121.549 116.346L121.541 116.361C120.244 117.328 119.001 118.367 117.819 119.472C117.101 118.733 116.427 117.953 115.799 117.135C113.728 114.437 112.998 112.16 113.795 110.885C114.451 109.845 116.006 109.624 117.229 109.624C118.999 109.677 120.752 109.984 122.433 110.538C122.001 112.451 121.706 114.392 121.549 116.346ZM134.964 115.204C134.367 114.791 133.755 114.386 133.129 113.988C132.303 113.472 131.478 112.985 130.652 112.514C131.835 111.947 133.045 111.44 134.279 110.995C134.584 112.384 134.813 113.789 134.964 115.204ZM129.067 102.437C130.836 102.437 132.753 105.12 133.947 109.565C132.277 110.155 130.647 110.852 129.067 111.651C127.488 110.844 125.858 110.14 124.188 109.543C125.382 105.12 127.298 102.437 129.067 102.437ZM123.826 111.01C125.06 111.455 126.27 111.962 127.453 112.528C126.627 112.985 125.802 113.472 124.976 114.002C124.35 114.4 123.738 114.806 123.141 115.219C123.292 113.804 123.521 112.399 123.826 111.01ZM123.17 125.789C123.767 126.201 124.379 126.607 125.006 127.005C125.831 127.528 126.657 128.007 127.482 128.479C126.244 129.069 125.028 129.577 123.856 129.998C123.55 128.608 123.322 127.203 123.17 125.789ZM129.067 138.555C127.298 138.555 125.382 135.872 124.188 131.428C125.857 130.837 127.487 130.14 129.067 129.342C130.647 130.148 132.277 130.852 133.947 131.45C132.753 135.872 130.836 138.555 129.067 138.555ZM134.308 129.983C133.136 129.563 131.92 129.054 130.681 128.464C131.507 128.007 132.333 127.521 133.158 126.99C133.785 126.592 134.396 126.187 134.994 125.774C134.842 127.188 134.614 128.593 134.308 129.983ZM135.17 123.865C134.279 124.514 133.35 125.147 132.377 125.759C131.279 126.452 130.166 127.086 129.067 127.661C127.962 127.079 126.856 126.445 125.758 125.759C124.792 125.147 123.856 124.514 122.964 123.865C122.89 122.781 122.846 121.654 122.846 120.496C122.846 119.339 122.89 118.211 122.964 117.128C123.856 116.479 124.785 115.845 125.758 115.233C126.856 114.541 127.969 113.907 129.067 113.332C130.173 113.914 131.279 114.548 132.377 115.233C133.342 115.845 134.279 116.479 135.17 117.128C135.244 118.211 135.288 119.339 135.288 120.496C135.288 121.654 135.237 122.781 135.163 123.865H135.17V123.865ZM140.905 109.617C142.114 109.617 143.684 109.838 144.34 110.877C145.143 112.152 144.414 114.43 142.335 117.128C141.708 117.945 141.033 118.725 140.315 119.464V119.45C139.133 118.344 137.891 117.306 136.593 116.339C136.434 114.387 136.135 112.448 135.701 110.538C137.382 109.982 139.135 109.672 140.905 109.617ZM136.711 118.285C137.618 119.022 138.473 119.759 139.261 120.496C138.473 121.233 137.618 121.971 136.711 122.708C136.711 121.971 136.755 121.233 136.755 120.496C136.755 119.759 136.74 119.022 136.711 118.285ZM144.362 130.115C143.706 131.155 142.151 131.376 140.927 131.376C139.15 131.323 137.39 131.012 135.701 130.455C136.131 128.542 136.424 126.601 136.578 124.646C137.876 123.68 139.119 122.641 140.301 121.536C141.023 122.269 141.703 123.045 142.335 123.857L142.357 123.865C144.428 126.563 145.158 128.84 144.362 130.115Z" fill="#1900FF"/>
<path d="M129.067 117.017C127.146 117.017 125.588 118.575 125.588 120.496C125.588 122.418 127.146 123.975 129.067 123.975C130.989 123.975 132.546 122.418 132.546 120.496C132.546 118.575 130.989 117.017 129.067 117.017ZM129.067 122.501C127.96 122.501 127.062 121.604 127.062 120.496C127.062 119.389 127.96 118.491 129.067 118.491C130.175 118.491 131.072 119.389 131.072 120.496C131.072 121.604 130.175 122.501 129.067 122.501Z" fill="#1900FF"/>
<path d="M135.784 15.4097C135.518 15.0335 135.24 14.6666 134.944 14.3133C131.732 10.4584 126.898 8 121.5 8C121.49 8 121.482 8.00072 121.474 8.00072C121.468 8.00072 121.464 8 121.458 8C121.439 8 121.419 8.00215 121.398 8.00215C116.041 8.03303 111.25 10.4843 108.056 14.3133C107.762 14.6673 107.482 15.0335 107.216 15.4097C105.194 18.2637 104 21.7438 104 25.5004C104 29.2562 105.193 32.7377 107.216 35.591C107.482 35.9673 107.762 36.3342 108.056 36.6874C111.249 40.5165 116.041 42.9677 121.398 42.9986C121.419 42.9986 121.439 43.0007 121.458 43.0007C121.464 43.0007 121.468 43 121.473 43C121.482 43 121.49 43.0007 121.5 43.0007C126.898 43.0007 131.731 40.543 134.944 36.6881C135.238 36.3349 135.518 35.9673 135.784 35.591C137.806 32.737 139 29.2569 139 25.4996C139 21.7445 137.806 18.2637 135.784 15.4097ZM116.385 10.276C114.776 11.8276 113.439 14.0958 112.518 16.8177C111.284 16.3567 110.173 15.8017 109.216 15.1742C111.093 12.9441 113.562 11.2267 116.385 10.276ZM108.373 16.272C109.461 16.9986 110.719 17.634 112.11 18.1574C111.509 20.3502 111.165 22.7842 111.152 25.3525H105.439C105.47 21.9743 106.557 18.8482 108.373 16.272ZM105.493 26.7884H111.18C111.273 28.9381 111.599 30.9779 112.108 32.844C110.717 33.3674 109.46 34.0028 108.373 34.7302C106.764 32.4462 105.726 29.7308 105.493 26.7884ZM109.22 35.8237C110.178 35.1976 111.285 34.644 112.517 34.183C113.438 36.9057 114.776 39.1724 116.385 40.724C113.562 39.7741 111.098 38.053 109.22 35.8237ZM120.782 41.513C117.836 41.1095 115.293 38.0875 113.851 33.735C115.929 33.1118 118.282 32.7341 120.782 32.6731V41.513ZM120.782 31.2386C118.146 31.3017 115.661 31.7088 113.448 32.3881C112.995 30.6678 112.705 28.7801 112.618 26.7892H120.782V31.2386ZM120.782 25.3525H112.588C112.601 22.9407 112.915 20.6625 113.455 18.6148C115.665 19.2919 118.148 19.6997 120.782 19.7622V25.3525H120.782ZM120.782 18.3276C118.284 18.2666 115.932 17.8904 113.855 17.2671C115.296 12.9168 117.837 9.89191 120.782 9.48768V18.3276ZM137.56 25.3525H131.764C131.751 22.795 131.411 20.371 130.815 18.1862C132.237 17.6577 133.521 17.0122 134.627 16.2727C136.442 18.8489 137.529 21.9743 137.56 25.3525ZM133.783 15.1756C132.806 15.8154 131.67 16.379 130.406 16.845C129.477 14.0857 128.12 11.7903 126.487 10.233C129.362 11.1742 131.876 12.9111 133.783 15.1756ZM122.218 9.49845C125.133 9.94863 127.643 12.9678 129.069 17.2887C127.012 17.8982 124.686 18.2673 122.218 18.3276V9.49845ZM122.218 19.7629C124.821 19.7011 127.277 19.3019 129.467 18.6392C130.004 20.6812 130.316 22.9508 130.328 25.3532H122.218V19.7629ZM122.218 26.7884H130.299C130.212 28.7701 129.923 30.6491 129.474 32.3644C127.281 31.6995 124.823 31.301 122.22 31.2386L122.218 26.7884ZM122.218 41.5023V32.6738C124.688 32.7341 127.013 33.1032 129.073 33.7128C127.645 38.0351 125.132 41.0521 122.218 41.5023ZM126.487 40.7685C128.12 39.2119 129.479 36.9179 130.409 34.1579C131.67 34.6232 132.804 35.1861 133.78 35.8244C131.873 38.0882 129.362 39.8265 126.487 40.7685ZM134.627 34.7302C133.521 33.9906 132.237 33.3437 130.814 32.816C131.318 30.9578 131.642 28.9273 131.733 26.7892H137.507C137.273 29.7308 136.239 32.4469 134.627 34.7302Z" fill="#1900FF"/>
<g clip-path="url(#clip0)">
<path d="M18.3624 33.053C18.4021 33.0555 18.4411 33.0576 18.4808 33.0576C19.2638 33.0576 19.9285 32.454 19.9901 31.6599L20.4203 26.1103L23.3282 24.0146V32.0646C23.3282 32.4694 23.4377 32.8471 23.6128 33.1809L20.3486 46.7062C20.1136 47.6839 20.7137 48.6654 21.6892 48.9008C21.8336 48.9352 21.9769 48.9506 22.1184 48.9506C22.9394 48.9506 23.6834 48.3919 23.8846 47.5599L26.995 34.67L30.5296 36.3557L30.2332 41.1403C30.171 42.1417 30.9321 43.006 31.9348 43.0674C31.9739 43.0699 32.0118 43.0711 32.0497 43.0711C33.0024 43.0711 33.8028 42.3289 33.8631 41.3652L34.2371 35.3555C34.282 34.6156 33.8749 33.9208 33.2038 33.6024L28.1782 31.2063V25.885L29.9359 27.9832C30.1857 28.2816 30.5409 28.4721 30.926 28.5158L36.2707 29.122C36.3287 29.1278 36.3854 29.1315 36.4436 29.1315C37.2035 29.1315 37.8592 28.5603 37.9469 27.7874C38.0415 26.9557 37.4426 26.2052 36.6115 26.1105L31.8695 25.5737L28.0057 20.9623C27.8908 20.6694 27.7209 20.4048 27.5079 20.1799C27.3053 19.3962 26.6 18.815 25.7536 18.815C25.1233 18.815 24.5693 19.1347 24.2431 19.6206L18.0795 24.0632C17.7185 24.3241 17.4893 24.7314 17.4557 25.1746L16.9703 31.4241C16.904 32.26 17.5284 32.9892 18.3624 33.053Z" fill="#1900FF"/>
<path d="M27.3344 18.5249C29.4124 18.5249 31.0969 16.8404 31.0969 14.7625C31.0969 12.6845 29.4124 11 27.3344 11C25.2565 11 23.572 12.6845 23.572 14.7625C23.572 16.8404 25.2565 18.5249 27.3344 18.5249Z" fill="#1900FF"/>
<path d="M45.0552 31.4645L40.5911 32.858L41.6187 33.8854L36.7383 37.8001C36.595 37.915 36.5122 38.0888 36.5122 38.2725V43.7272H27.3344C27.0001 43.7272 26.7283 43.9984 26.7283 44.3332V49.7881H17.5508C17.2164 49.7881 16.9446 50.0591 16.9446 50.3941C16.9446 50.729 17.2162 51.0002 17.5508 51.0002H27.3344C27.6688 51.0002 27.9406 50.729 27.9406 50.3941V44.9393H37.1181C37.4519 44.9393 37.7243 44.6681 37.7243 44.3332V38.5637L42.4817 34.7472L43.6619 35.9274L45.0552 31.4645Z" fill="#1900FF"/>
</g>
</g>
<defs>
<clipPath id="clip0">
<rect width="40" height="40" fill="white" transform="translate(11 11)"/>
</clipPath>
</defs>
</svg>
