<svg width="167" height="167" viewBox="0 0 167 167" fill="none" xmlns="http://www.w3.org/2000/svg">
<path d="M31 86H3V166.5H83.5V131.5C83.5 131.5 97.1144 140.872 105 134.481C112.704 128.238 113.252 119.789 104.5 112.981C95.5 105.981 83.5 117 83.5 117V86H53.5C53.5 86 63.2497 97.0504 55 107.5C47.5 117 34.7129 115.004 29.5 106C24 96.5 31 86 31 86Z" fill="#750ED5"/>
<path d="M31 86H3V166.5H83.5V131.5C83.5 131.5 97.1144 140.872 105 134.481C112.704 128.238 113.252 119.789 104.5 112.981C95.5 105.981 83.5 117 83.5 117V86H53.5C53.5 86 63.2497 97.0504 55 107.5C47.5 117 34.7129 115.004 29.5 106C24 96.5 31 86 31 86Z" fill="white"/>
<path d="M80.5 31V3L0 3L0 83.5H35C35 83.5 25.6283 97.1144 32.0187 105C38.2619 112.704 46.7114 113.252 53.5187 104.5C60.5187 95.5 49.5 83.5 49.5 83.5H80.5V53.5C80.5 53.5 69.4496 63.2497 59 55C49.5 47.5 51.4958 34.7129 60.5 29.5C70 24 80.5 31 80.5 31Z" fill="#750ED5"/>
<path d="M80.5 31V3L0 3L0 83.5H35C35 83.5 25.6283 97.1144 32.0187 105C38.2619 112.704 46.7114 113.252 53.5187 104.5C60.5187 95.5 49.5 83.5 49.5 83.5H80.5V53.5C80.5 53.5 69.4496 63.2497 59 55C49.5 47.5 51.4958 34.7129 60.5 29.5C70 24 80.5 31 80.5 31Z" fill="white"/>
<path d="M135.921 80.5H163.921V0L83.4211 0L83.4211 35C83.4211 35 69.8067 25.6283 61.9211 32.0187C54.2172 38.2619 53.6688 46.7114 62.4211 53.5187C71.4211 60.5187 83.4211 49.5 83.4211 49.5V80.5H113.421C113.421 80.5 103.671 69.4496 111.921 59C119.421 49.5 132.208 51.4958 137.421 60.5C142.921 70 135.921 80.5 135.921 80.5Z" fill="#750ED5"/>
<path d="M135.921 80.5H163.921V0L83.4211 0L83.4211 35C83.4211 35 69.8067 25.6283 61.9211 32.0187C54.2172 38.2619 53.6688 46.7114 62.4211 53.5187C71.4211 60.5187 83.4211 49.5 83.4211 49.5V80.5H113.421C113.421 80.5 103.671 69.4496 111.921 59C119.421 49.5 132.208 51.4958 137.421 60.5C142.921 70 135.921 80.5 135.921 80.5Z" fill="white"/>
<path d="M86 134.921V162.921H166.5V82.4211H131.5C131.5 82.4211 140.872 68.8067 134.481 60.9211C128.238 53.2172 119.789 52.6688 112.981 61.4211C105.981 70.4211 117 82.4211 117 82.4211H86V112.421C86 112.421 97.0504 102.671 107.5 110.921C117 118.421 115.004 131.208 106 136.421C96.5 141.921 86 134.921 86 134.921Z" fill="#750ED5"/>
<path d="M86 134.921V162.921H166.5V82.4211H131.5C131.5 82.4211 140.872 68.8067 134.481 60.9211C128.238 53.2172 119.789 52.6688 112.981 61.4211C105.981 70.4211 117 82.4211 117 82.4211H86V112.421C86 112.421 97.0504 102.671 107.5 110.921C117 118.421 115.004 131.208 106 136.421C96.5 141.921 86 134.921 86 134.921Z" fill="white"/>
<path d="M36.9153 119.281C34.7443 120.161 32.7963 121.455 31.1259 123.125C29.455 124.795 28.1623 126.744 27.2816 128.914C26.4314 131.011 26 133.227 26 135.5C26 137.773 26.4314 139.989 27.2816 142.085C28.1623 144.256 29.4555 146.204 31.1259 147.874C32.7963 149.545 34.7438 150.838 36.9153 151.718C39.0123 152.57 41.2277 153 43.5007 153C45.7737 153 47.9887 152.568 50.0857 151.718C52.2562 150.838 54.2052 149.545 55.8751 147.874C57.546 146.204 58.8392 144.257 59.7194 142.085C60.5696 139.989 61 137.773 61 135.5C61 133.227 60.5691 131.011 59.7194 128.914C58.8392 126.744 57.545 124.795 55.8751 123.125C54.2052 121.455 52.2581 120.161 50.0857 119.281C47.9887 118.431 45.7737 118 43.5007 118C41.2277 118 39.0123 118.431 36.9153 119.281ZM30.3739 142.867C29.5309 142.338 28.7542 141.729 28.0665 141.011C27.0161 138.055 26.8381 134.855 27.534 131.817C27.8614 131.172 28.2338 130.552 28.6551 129.958C28.7852 129.775 28.9056 129.584 29.0449 129.406L32.9941 131.743C32.9941 131.773 32.9941 131.807 32.9941 131.842C32.9839 133.966 33.1996 136.074 33.6291 138.152C33.6305 138.162 33.632 138.167 33.6339 138.176L30.5712 142.978C30.5044 142.945 30.4382 142.908 30.3739 142.867ZM42.1161 150.986C42.7975 151.333 43.4983 151.627 44.2184 151.866C41.1595 151.999 38.0702 151.282 35.3392 149.715L41.9594 150.895C42.0102 150.927 42.062 150.958 42.1161 150.986ZM42.0919 149.791L34.2796 148.398C33.3655 147.288 32.5434 146.114 31.8368 144.859C31.6569 144.54 31.4562 144.23 31.3039 143.897L34.3637 139.099C34.4314 139.116 34.5069 139.134 34.5925 139.157C36.5066 139.669 38.4546 140.033 40.4162 140.319C40.5308 140.334 40.6266 140.349 40.7083 140.357L44.3761 146.699C43.7396 147.594 43.0959 148.483 42.4382 149.364C42.3289 149.51 42.2128 149.651 42.0919 149.791ZM55.0897 147.089C54.4678 147.712 53.8076 148.273 53.1165 148.773C53.0019 147.857 52.8041 146.959 52.5251 146.082L56.4385 138.782C57.5165 138.291 58.5563 137.734 59.5216 137.044C59.6478 136.954 59.7527 136.854 59.834 136.745C59.5506 140.518 57.9692 144.21 55.0897 147.089ZM54.9161 137.621C55.0616 137.899 55.2053 138.179 55.3494 138.463L51.5694 145.515C51.5477 145.519 51.5269 145.524 51.5051 145.527C49.4618 145.909 47.4021 146.112 45.3249 146.121L41.5527 139.599C42.1398 138.509 42.7216 137.414 43.2986 136.319C43.6903 135.577 44.0753 134.829 44.4597 134.082L52.2668 133.28C53.2229 134.682 54.1287 136.115 54.9161 137.621ZM53.3322 129.257C52.9618 130.236 52.5652 131.204 52.171 132.174L44.5657 132.955C44.4747 132.835 44.3804 132.717 44.2813 132.604C43.3832 131.587 42.4793 130.577 41.5769 129.563C41.5851 129.553 41.5933 129.545 41.6016 129.536C41.2374 129.172 40.8723 128.808 40.5081 128.444L42.6254 122.069C42.7714 122.03 42.9184 121.998 43.0669 121.982C44.2179 121.865 45.3704 121.733 46.5243 121.666C47.2309 121.626 47.9413 121.603 48.66 121.654L53.8985 127.559C53.7181 128.128 53.5421 128.7 53.3322 129.257ZM55.0897 123.91C56.5347 125.356 57.6538 127.006 58.445 128.769C57.4662 128.096 56.4196 127.541 55.3194 127.09C55.1482 127.019 54.9727 126.957 54.7942 126.895L49.6379 121.084C49.6736 120.833 49.6925 120.581 49.7002 120.328C51.6618 121.126 53.5005 122.322 55.0897 123.91ZM38.252 120.022C38.2723 120.037 38.282 120.05 38.2936 120.053C39.4722 120.461 40.5444 121.06 41.5551 121.772L39.5771 127.728C39.567 127.731 39.5573 127.734 39.5476 127.739C39.1428 127.906 38.7303 128.056 38.3318 128.237C36.6899 128.983 35.0891 129.81 33.5812 130.801L29.6779 128.492C29.6837 128.37 29.7045 128.246 29.7461 128.136C30.0082 127.437 30.266 126.735 30.5625 126.051C30.7907 125.524 31.0509 125.014 31.3348 124.517C31.5205 124.312 31.713 124.109 31.9113 123.91C33.765 122.057 35.9558 120.741 38.2883 119.963C38.2762 119.982 38.2636 120.002 38.252 120.022Z" fill="#750ED5"/>
<path d="M147.362 126.496C148.129 125.716 148.85 124.891 149.522 124.027C152.021 120.762 152.758 117.946 151.6 116.096C151.04 115.204 149.772 114.15 146.92 114.15C145.026 114.201 143.149 114.524 141.347 115.108C139.969 110.147 137.662 107 135.067 107C132.473 107 130.166 110.184 128.787 115.108C126.985 114.526 125.108 114.206 123.215 114.157C120.355 114.157 119.094 115.219 118.534 116.103C117.377 117.946 118.114 120.762 120.613 124.027C121.284 124.891 122.005 125.716 122.772 126.496C122.005 127.277 121.284 128.101 120.613 128.966C118.114 132.224 117.377 135.047 118.534 136.897C119.094 137.789 120.362 138.843 123.215 138.843C125.108 138.795 126.985 138.474 128.787 137.892C130.166 142.853 132.473 146 135.067 146C137.662 146 139.969 142.816 141.347 137.892C143.15 138.474 145.026 138.795 146.92 138.843C149.772 138.843 151.04 137.781 151.6 136.897C152.758 135.047 152.021 132.224 149.522 128.966C148.85 128.101 148.129 127.277 147.362 126.496ZM123.215 137.369C122.006 137.369 120.436 137.155 119.78 136.108C118.976 134.833 119.706 132.555 121.785 129.857C122.419 129.042 123.101 128.264 123.826 127.528C125.008 128.634 126.251 129.673 127.549 130.639C127.705 132.596 128.001 134.539 128.433 136.455C126.747 137.009 124.989 137.317 123.215 137.369ZM127.423 128.708C126.517 127.971 125.662 127.233 124.873 126.496C125.662 125.759 126.517 125.022 127.423 124.285C127.423 125.022 127.379 125.759 127.379 126.496C127.379 127.233 127.394 127.971 127.423 128.708ZM127.549 122.346L127.541 122.361C126.244 123.328 125.001 124.367 123.819 125.472C123.101 124.733 122.427 123.953 121.799 123.135C119.728 120.437 118.998 118.16 119.795 116.885C120.451 115.845 122.006 115.624 123.229 115.624C124.999 115.677 126.752 115.984 128.433 116.538C128.001 118.451 127.706 120.392 127.549 122.346ZM140.964 121.204C140.367 120.791 139.755 120.386 139.129 119.988C138.303 119.472 137.478 118.985 136.652 118.514C137.835 117.947 139.045 117.44 140.279 116.995C140.584 118.384 140.813 119.789 140.964 121.204ZM135.067 108.437C136.836 108.437 138.753 111.12 139.947 115.565C138.277 116.155 136.647 116.852 135.067 117.651C133.488 116.844 131.858 116.14 130.188 115.543C131.382 111.12 133.298 108.437 135.067 108.437ZM129.826 117.01C131.06 117.455 132.27 117.962 133.453 118.528C132.627 118.985 131.802 119.472 130.976 120.002C130.35 120.4 129.738 120.806 129.141 121.219C129.292 119.804 129.521 118.399 129.826 117.01ZM129.17 131.789C129.767 132.201 130.379 132.607 131.006 133.005C131.831 133.528 132.657 134.007 133.482 134.479C132.244 135.069 131.028 135.577 129.856 135.998C129.55 134.608 129.322 133.203 129.17 131.789ZM135.067 144.555C133.298 144.555 131.382 141.872 130.188 137.428C131.857 136.837 133.487 136.14 135.067 135.342C136.647 136.148 138.277 136.852 139.947 137.45C138.753 141.872 136.836 144.555 135.067 144.555ZM140.308 135.983C139.136 135.563 137.92 135.054 136.681 134.464C137.507 134.007 138.333 133.521 139.158 132.99C139.785 132.592 140.396 132.187 140.994 131.774C140.842 133.188 140.614 134.593 140.308 135.983ZM141.17 129.865C140.279 130.514 139.35 131.147 138.377 131.759C137.279 132.452 136.166 133.086 135.067 133.661C133.962 133.079 132.856 132.445 131.758 131.759C130.792 131.147 129.856 130.514 128.964 129.865C128.89 128.781 128.846 127.654 128.846 126.496C128.846 125.339 128.89 124.211 128.964 123.128C129.856 122.479 130.785 121.845 131.758 121.233C132.856 120.541 133.969 119.907 135.067 119.332C136.173 119.914 137.279 120.548 138.377 121.233C139.342 121.845 140.279 122.479 141.17 123.128C141.244 124.211 141.288 125.339 141.288 126.496C141.288 127.654 141.237 128.781 141.163 129.865H141.17V129.865ZM146.905 115.617C148.114 115.617 149.684 115.838 150.34 116.877C151.143 118.152 150.414 120.43 148.335 123.128C147.708 123.945 147.033 124.725 146.315 125.464V125.45C145.133 124.344 143.891 123.306 142.593 122.339C142.434 120.387 142.135 118.448 141.701 116.538C143.382 115.982 145.135 115.672 146.905 115.617ZM142.711 124.285C143.618 125.022 144.473 125.759 145.261 126.496C144.473 127.233 143.618 127.971 142.711 128.708C142.711 127.971 142.755 127.233 142.755 126.496C142.755 125.759 142.74 125.022 142.711 124.285ZM150.362 136.115C149.706 137.155 148.151 137.376 146.927 137.376C145.15 137.323 143.39 137.012 141.701 136.455C142.131 134.542 142.424 132.601 142.578 130.646C143.876 129.68 145.119 128.641 146.301 127.536C147.023 128.269 147.703 129.045 148.335 129.857L148.357 129.865C150.428 132.563 151.158 134.84 150.362 136.115Z" fill="#1900FF"/>
<path d="M135.067 123.017C133.146 123.017 131.588 124.575 131.588 126.496C131.588 128.418 133.146 129.975 135.067 129.975C136.989 129.975 138.546 128.418 138.546 126.496C138.546 124.575 136.989 123.017 135.067 123.017ZM135.067 128.501C133.96 128.501 133.062 127.604 133.062 126.496C133.062 125.389 133.96 124.491 135.067 124.491C136.175 124.491 137.072 125.389 137.072 126.496C137.072 127.604 136.175 128.501 135.067 128.501Z" fill="#1900FF"/>
<path d="M142.784 23.4097C142.518 23.0335 142.24 22.6666 141.944 22.3133C138.732 18.4584 133.898 16 128.5 16C128.49 16 128.482 16.0007 128.474 16.0007C128.468 16.0007 128.464 16 128.458 16C128.439 16 128.419 16.0022 128.398 16.0022C123.041 16.033 118.25 18.4843 115.056 22.3133C114.762 22.6673 114.482 23.0335 114.216 23.4097C112.194 26.2637 111 29.7438 111 33.5004C111 37.2562 112.193 40.7377 114.216 43.591C114.482 43.9673 114.762 44.3342 115.056 44.6874C118.249 48.5165 123.041 50.9677 128.398 50.9986C128.419 50.9986 128.439 51.0007 128.458 51.0007C128.464 51.0007 128.468 51 128.473 51C128.482 51 128.49 51.0007 128.5 51.0007C133.898 51.0007 138.731 48.543 141.944 44.6881C142.238 44.3349 142.518 43.9673 142.784 43.591C144.806 40.737 146 37.2569 146 33.4996C146 29.7445 144.806 26.2637 142.784 23.4097ZM123.385 18.276C121.776 19.8276 120.439 22.0958 119.518 24.8177C118.284 24.3567 117.173 23.8017 116.216 23.1742C118.093 20.9441 120.562 19.2267 123.385 18.276ZM115.373 24.272C116.461 24.9986 117.719 25.634 119.11 26.1574C118.509 28.3502 118.165 30.7842 118.152 33.3525H112.439C112.47 29.9743 113.557 26.8482 115.373 24.272ZM112.493 34.7884H118.18C118.273 36.9381 118.599 38.9779 119.108 40.844C117.717 41.3674 116.46 42.0028 115.373 42.7302C113.764 40.4462 112.726 37.7308 112.493 34.7884ZM116.22 43.8237C117.178 43.1976 118.285 42.644 119.517 42.183C120.438 44.9057 121.776 47.1724 123.385 48.724C120.562 47.7741 118.098 46.053 116.22 43.8237ZM127.782 49.513C124.836 49.1095 122.293 46.0875 120.851 41.735C122.929 41.1118 125.282 40.7341 127.782 40.6731V49.513ZM127.782 39.2386C125.146 39.3017 122.661 39.7088 120.448 40.3881C119.995 38.6678 119.705 36.7801 119.618 34.7892H127.782V39.2386ZM127.782 33.3525H119.588C119.601 30.9407 119.915 28.6625 120.455 26.6148C122.665 27.2919 125.148 27.6997 127.782 27.7622V33.3525H127.782ZM127.782 26.3276C125.284 26.2666 122.932 25.8904 120.855 25.2671C122.296 20.9168 124.837 17.8919 127.782 17.4877V26.3276ZM144.56 33.3525H138.764C138.751 30.795 138.411 28.371 137.815 26.1862C139.237 25.6577 140.521 25.0122 141.627 24.2727C143.442 26.8489 144.529 29.9743 144.56 33.3525ZM140.783 23.1756C139.806 23.8154 138.67 24.379 137.406 24.845C136.477 22.0857 135.12 19.7903 133.487 18.233C136.362 19.1742 138.876 20.9111 140.783 23.1756ZM129.218 17.4985C132.133 17.9486 134.643 20.9678 136.069 25.2887C134.012 25.8982 131.686 26.2673 129.218 26.3276V17.4985ZM129.218 27.7629C131.821 27.7011 134.277 27.3019 136.467 26.6392C137.004 28.6812 137.316 30.9508 137.328 33.3532H129.218V27.7629ZM129.218 34.7884H137.299C137.212 36.7701 136.923 38.6491 136.474 40.3644C134.281 39.6995 131.823 39.301 129.22 39.2386L129.218 34.7884ZM129.218 49.5023V40.6738C131.688 40.7341 134.013 41.1032 136.073 41.7128C134.645 46.0351 132.132 49.0521 129.218 49.5023ZM133.487 48.7685C135.12 47.2119 136.479 44.9179 137.409 42.1579C138.67 42.6232 139.804 43.1861 140.78 43.8244C138.873 46.0882 136.362 47.8265 133.487 48.7685ZM141.627 42.7302C140.521 41.9906 139.237 41.3437 137.814 40.816C138.318 38.9578 138.642 36.9273 138.733 34.7892H144.507C144.273 37.7308 143.239 40.4469 141.627 42.7302Z" fill="#750ED5"/>
<path d="M18.0604 57.2821C18.0921 57.7084 18.4721 58.0289 18.9092 57.9979C19.1303 57.9823 19.3346 57.877 19.4726 57.7078C19.4726 57.7078 21.9003 54.7974 25.4388 54.9909C28.2156 55.138 29.4057 51.7323 29.8341 49.921C29.9362 49.901 30.0333 49.8615 30.1197 49.8049L34.5389 46.8094C34.8997 46.5668 34.9905 46.0848 34.7418 45.7328C34.7145 45.6943 34.6838 45.6582 34.65 45.6252L34.4833 45.4626C38.2995 42.2659 56.9915 26.1738 57.9436 18.8747C58.0006 18.4508 57.6946 18.0621 57.2601 18.0066C57.2237 18.002 57.1869 17.9997 57.1502 18H57.055C49.5734 18.9289 33.0791 37.1728 29.7865 40.8804L29.6199 40.7178C29.4702 40.573 29.2675 40.4922 29.0566 40.4933H28.9852C28.7412 40.5042 28.5157 40.6241 28.3743 40.8184L25.3039 45.1298C25.1953 45.2836 25.1474 45.4705 25.1691 45.6561C23.5498 45.8089 22.0245 46.4687 20.8213 47.537C18.6792 49.5185 17.743 52.8004 18.0604 57.2821ZM56.0871 19.819C53.5641 27.0484 36.6572 41.5925 33.3647 44.3712L30.9131 41.9795C33.7693 38.775 48.6769 22.2882 56.0871 19.819ZM29.1677 42.4749L32.8648 46.0818L29.7707 48.1717L27.0256 45.4626L29.1677 42.4749ZM21.9241 48.6981C23.1802 47.6118 24.8262 47.0552 26.5019 47.15L28.4219 49.0232C28.1204 50.5325 27.1922 53.559 25.5419 53.4506C23.3732 53.384 21.2562 54.1038 19.5995 55.4708C19.5995 52.3747 20.3929 50.0913 21.9241 48.6981Z" fill="#1900FF"/>
</svg>
