<svg width="134" height="60" viewBox="0 0 134 60" fill="none" xmlns="http://www.w3.org/2000/svg">
<circle cx="128.018" cy="5" r="5" fill="#854FEE"/>
<path d="M29.8333 33.9873H23.9984V47H16.6742V11.4531H29.8822C34.0814 11.4531 37.3203 12.389 39.599 14.2607C41.8776 16.1325 43.0169 18.7773 43.0169 22.1953C43.0169 24.6204 42.488 26.6468 41.43 28.2744C40.3883 29.8857 38.8014 31.1715 36.6693 32.1318L44.3597 46.6582V47H36.4984L29.8333 33.9873ZM23.9984 28.0547H29.9066C31.7458 28.0547 33.1699 27.5908 34.179 26.6631C35.1881 25.7191 35.6927 24.4251 35.6927 22.7812C35.6927 21.1048 35.2126 19.7865 34.2523 18.8262C33.3083 17.8659 31.8516 17.3857 29.8822 17.3857H23.9984V28.0547ZM61.2542 38.1865L69.3109 11.4531H77.4652L65.0872 47H57.4456L45.1165 11.4531H53.2464L61.2542 38.1865ZM91.9671 32.7422L88.1585 36.8438V47H80.8343V11.4531H88.1585V27.5664L91.3812 23.1475L100.439 11.4531H109.448L96.8255 27.249L109.814 47H101.098L91.9671 32.7422Z" fill="url(#paint0_linear)"/>
<defs>
<linearGradient id="paint0_linear" x1="18.2428" y1="24.8718" x2="127.859" y2="45.7431" gradientUnits="userSpaceOnUse">
<stop stop-color="#4458DC"/>
<stop offset="1" stop-color="#854FEE"/>
</linearGradient>
</defs>
</svg>
