<svg width="383" height="283" viewBox="0 0 383 283" fill="none" xmlns="http://www.w3.org/2000/svg">
<g clip-path="url(#clip0)" filter="url(#filter0_d)">
<path d="M345.918 93.4878C338.747 93.4878 332.934 99.9565 332.934 107.936V118.074H336.044L337.844 114.318L337.394 118.074H357.382L359.019 114.66L358.61 118.074H360.86V110.114C360.86 100.932 354.171 93.4878 345.918 93.4878Z" fill="#2F2E41"/>
<path d="M333.722 140.36L331.566 148.649L351.695 147.929L351.335 141.081C351.335 141.081 336.238 137.117 333.722 140.36Z" fill="#FFB9B9"/>
<path d="M314.312 173.517L320.782 187.933L326.893 180.365L321.861 170.273L314.312 173.517Z" fill="#FFB9B9"/>
<path d="M330.487 226.496L331.206 243.074H339.114L338.035 226.496H330.487Z" fill="#FFB9B9"/>
<path d="M321.142 158.38L324.736 170.273L330.128 227.937C330.128 227.937 335.16 229.379 338.755 227.577L339.473 219.648L340.911 174.238C340.911 174.238 347.741 170.634 347.022 165.588C346.303 160.542 344.506 153.695 344.506 153.695L321.142 158.38Z" fill="#2F2E41"/>
<path d="M332.285 239.11H330.128C330.128 239.11 324.017 245.597 321.861 246.318C319.704 247.038 308.561 253.165 317.547 254.246C326.533 255.328 332.285 250.642 332.285 250.642C332.285 250.642 335.16 252.444 339.114 251.003C343.068 249.561 340.911 245.236 340.911 245.236C340.911 245.236 338.904 238.645 338.829 238.697C338.755 238.749 336.598 241.993 332.285 239.11Z" fill="#2F2E41"/>
<path d="M343.427 115.853C347.993 115.853 351.695 112.142 351.695 107.564C351.695 102.986 347.993 99.2749 343.427 99.2749C338.862 99.2749 335.16 102.986 335.16 107.564C335.16 112.142 338.862 115.853 343.427 115.853Z" fill="#FFB9B9"/>
<path d="M355.648 118.376L351.846 121.555L351.335 121.98L350.976 126.305H336.957C336.957 126.305 338.87 124.643 340.645 122.924C340.681 122.885 340.721 122.841 340.764 122.802C341.005 122.567 341.22 122.351 341.414 122.157C341.519 122.048 341.619 121.948 341.709 121.854C341.857 121.699 342 121.551 342.144 121.403C342.146 121.401 342.147 121.399 342.148 121.396C342.516 121.01 342.861 120.603 343.183 120.178L343.187 120.174C343.273 120.06 343.353 119.941 343.427 119.818C344.506 118.016 341.99 114.412 341.99 114.412L349.897 110.447C350.174 114.354 353.47 116.963 354.944 117.944C355.375 118.228 355.648 118.376 355.648 118.376Z" fill="#FFB9B9"/>
<path d="M375.058 178.923C369.667 180.365 369.307 169.553 369.307 169.553L361.949 154.796C360.394 151.678 359.324 148.339 358.778 144.896L357.086 134.234L356.572 134.85V134.853L355.648 135.315L350.034 126.305L348.46 123.782V120.899L353.851 118.376H356.008C356.008 118.376 356.055 118.369 356.137 118.362C357.129 118.257 363.585 117.825 363.916 124.142C364.046 126.622 364.035 128.676 363.967 130.288C363.763 134.747 364.185 139.213 365.221 143.555C365.601 145.12 366.017 146.479 366.432 147.208C367.87 149.731 372.902 169.553 372.902 169.553C372.902 169.553 380.45 177.481 375.058 178.923Z" fill="#FFB9B9"/>
<path d="M341.99 122.34L340.627 124.831L339.822 126.305L335.879 133.513C335.879 133.513 334.761 134.428 332.95 135.61C329.937 137.574 324.999 140.27 320.063 140.721C312.156 141.442 319.704 115.853 319.704 115.853C319.704 115.853 322.22 105.762 325.815 106.843C329.409 107.924 326.533 111.528 324.017 118.376C321.501 125.224 323.658 132.792 323.658 132.792C323.658 132.792 331.206 128.107 335.16 124.503C337.22 122.625 338.988 122.117 340.207 122.063H340.21C340.614 122.041 341.019 122.072 341.414 122.157C341.612 122.196 341.805 122.258 341.99 122.34Z" fill="#FFB9B9"/>
<path d="M343.183 120.178C343.169 120.217 343 120.538 341.709 121.854C342.236 121.327 342.728 120.767 343.183 120.178Z" fill="#D0CDE1"/>
<path d="M356.907 134.414L356.572 134.853L351.335 143.964C351.335 143.964 344.506 141.441 339.473 140.721C338.091 140.481 336.669 140.661 335.389 141.237C334.109 141.813 333.029 142.759 332.288 143.953L333.722 138.198L332.95 135.61C332.86 135.307 332.755 134.972 332.644 134.594C331.566 130.99 335.52 127.025 335.52 127.025L340.207 122.063H340.21C340.614 122.04 341.019 122.072 341.414 122.156C341.22 122.351 341.005 122.567 340.764 122.802C340.721 122.841 340.681 122.884 340.645 122.924C339.269 124.333 339.984 124.726 340.627 124.831C340.84 124.863 341.056 124.874 341.271 124.863C342.77 125.079 346.051 123.76 348.46 122.657C350.099 121.908 351.335 121.259 351.335 121.259L354.473 118.376L354.944 117.943C355.375 118.228 355.648 118.376 355.648 118.376H356.008C356.008 118.376 356.055 118.369 356.137 118.361L354.501 119.579C353.686 120.185 353.035 120.986 352.608 121.909C352.18 122.832 351.99 123.848 352.054 124.863L356.907 134.414Z" fill="#D0CDE1"/>
<path d="M337.317 144.685L332.062 146.743C332.062 146.743 303.529 135.675 299.216 144.685C294.902 153.695 314.312 175.319 314.312 175.319L322.939 171.355L319.345 160.543C319.345 160.543 340.192 178.202 348.819 168.471C357.446 158.741 351.695 144.982 351.695 144.982C351.695 144.982 346.303 140.721 337.317 144.685Z" fill="#2F2E41"/>
<path d="M322.22 183.969L318.985 186.491C318.985 186.491 321.861 198.024 320.782 199.826C319.704 201.628 317.547 206.674 321.501 206.313C325.455 205.953 329.768 199.826 330.128 197.664C330.487 195.501 333.003 189.014 333.003 189.014C333.003 189.014 337.317 178.923 334.082 178.563C330.847 178.202 325.694 177.961 325.694 177.961L322.22 183.969Z" fill="#2F2E41"/>
<path d="M349.61 97.468C348.985 96.6267 348.175 95.9411 347.243 95.4643C346.312 94.9875 345.283 94.7324 344.237 94.7188H343.982C339.067 94.7188 335.082 99.1782 335.082 104.679V104.679H336.729L336.995 102.649L337.385 104.679H347.153L347.971 102.962L347.767 104.679H349.688C350.585 109.144 349.297 113.609 345.823 118.075H349.096L350.733 114.64L350.324 118.075H356.564L357.791 110.175C357.791 104.259 354.363 99.2417 349.61 97.468Z" fill="#2F2E41"/>
<path d="M318.211 68.8007C334.578 68.8007 347.845 55.498 347.845 39.0883C347.845 22.6787 334.578 9.37598 318.211 9.37598C301.845 9.37598 288.578 22.6787 288.578 39.0883C288.578 55.498 301.845 68.8007 318.211 68.8007Z" fill="#FFD541"/>
<path d="M245.281 177.712C244.734 182.084 244.285 186.293 243.917 190.306H255.823C256.256 186.087 256.8 181.889 257.453 177.712H245.281Z" fill="#3F3D56"/>
<path d="M255.019 222.176C254.763 217.999 254.66 213.801 254.709 209.582H242.64C242.444 214.407 242.367 218.643 242.353 222.176H255.019Z" fill="#3F3D56"/>
<path d="M275.605 110.631C285.53 84.1202 295.253 66.2957 295.253 66.2957L285.128 60.2559C274.585 76.1962 266.616 93.4267 260.6 110.631H275.605Z" fill="#3F3D56"/>
<path d="M243.626 193.647C243.254 198.137 242.984 202.353 242.791 206.241H254.772C254.887 202.043 255.132 197.845 255.505 193.647H243.626Z" fill="#3F3D56"/>
<path d="M247.628 161.777C246.896 166.086 246.262 170.293 245.715 174.371H257.993C258.706 170.129 259.511 165.931 260.407 161.777H247.628Z" fill="#3F3D56"/>
<path d="M259.456 113.972C258.044 118.183 256.743 122.381 255.554 126.566H270.01C271.439 122.206 272.903 117.998 274.371 113.972H259.456Z" fill="#3F3D56"/>
<path d="M250.715 145.842C249.782 150.11 248.948 154.308 248.212 158.436H261.143C262.109 154.167 263.147 149.969 264.259 145.842H250.715Z" fill="#3F3D56"/>
<path d="M242.358 225.517C242.397 230.944 242.576 233.999 242.576 233.999L242.448 236.44H256.546C255.982 232.83 255.552 229.189 255.256 225.517H242.358Z" fill="#3F3D56"/>
<path d="M254.622 129.907C253.465 134.144 252.413 138.342 251.464 142.501H265.173C266.374 138.196 267.626 133.998 268.931 129.907H254.622Z" fill="#3F3D56"/>
<path d="M355.661 77.8436C350.643 67.3262 345.595 59.4814 340.675 53.7006L338.105 57.6589L338.324 51.0838C336.636 49.2934 334.824 47.6262 332.899 46.0951L329.388 51.5044L329.645 43.7693C327.556 42.4147 325.317 41.3068 322.974 40.4675L320.377 44.4681L320.535 39.7305C311.575 37.476 304.213 40.5643 299.947 43.201L297.386 42.8178L301.779 40.9785C301.378 38.5165 300.695 36.1092 299.743 33.8046L292.109 32.6626L298.049 30.1755C296.894 28.0013 295.586 25.9127 294.134 23.9256L287.644 22.9549L291.991 21.1349C287.208 15.2395 280.423 8.84628 271.011 2C271.011 2 270.314 8.09808 269.926 16.6004L276.301 23.1388L269.752 21.4406C269.683 24.0519 269.654 26.801 269.686 29.606L274.387 34.4278L269.763 33.2287C269.83 35.3735 269.939 37.5293 270.098 39.6609C266.095 38.691 261.916 38.7149 257.924 39.7306L258.081 44.4681L255.484 40.4675C253.141 41.3068 250.903 42.4147 248.814 43.7694L249.071 51.5044L245.559 46.0951C243.635 47.6262 241.822 49.2934 240.135 51.0838L240.353 57.6589L237.784 53.7006C232.863 59.4814 227.816 67.3262 222.798 77.8436C222.798 77.8436 228.906 77.4301 237.316 76.2787L242.58 68.8126L242.096 75.5776C244.67 75.1741 247.372 74.707 250.118 74.1692L254 68.6631L253.658 73.4399C257.487 72.6099 261.329 71.6376 264.957 70.5049L267.562 72.9349L262.902 71.9605C261.843 74.218 261.049 76.5906 260.534 79.031L266.185 84.3023L259.884 82.9847C259.61 85.4326 259.51 87.8971 259.587 90.3592L264.391 94.84L259.78 93.8758C260.399 101.45 262.387 110.57 266.287 121.554C266.287 121.554 270.301 116.92 275.418 110.128L273.849 101.121L278.292 106.236C279.822 104.121 281.397 101.871 282.952 99.5393L281.796 92.8968L284.933 96.5082C288.083 91.5765 291.029 86.4034 293.2 81.4762C296.005 85.146 299.01 88.6579 302.201 91.9958L304.604 87.857L304.715 94.5991C306.68 96.5953 308.649 98.5085 310.549 100.297L313.952 94.4353L314.102 103.577C320.401 109.283 325.214 113.076 325.214 113.076C326.982 101.553 327.224 92.2207 326.41 84.6648L322.063 86.4818L325.94 81.1746C325.553 78.7421 324.993 76.3404 324.264 73.9879L318.323 76.4709L321.148 72.6036C322.362 72.897 323.58 73.1758 324.801 73.4399L324.459 68.6631L328.341 74.1692C331.086 74.707 333.789 75.1741 336.363 75.5776L335.878 68.8126L341.142 76.2787C349.553 77.4301 355.661 77.8436 355.661 77.8436Z" fill="#00AE46"/>
<path d="M224.186 169.978C224.573 173.064 224.889 176.035 225.149 178.867H216.745C216.439 175.889 216.056 172.926 215.595 169.978H224.186Z" fill="#3F3D56"/>
<path d="M217.313 201.363C217.493 198.415 217.566 195.451 217.531 192.474H226.051C226.189 195.88 226.243 198.87 226.253 201.363H217.313Z" fill="#3F3D56"/>
<path d="M202.781 122.626C195.776 103.912 188.912 91.3303 188.912 91.3303L196.059 87.0669C203.501 98.3189 209.126 110.482 213.373 122.626H202.781Z" fill="#3F3D56"/>
<path d="M225.355 181.226C225.617 184.395 225.808 187.371 225.944 190.115H217.487C217.405 187.152 217.233 184.189 216.969 181.226H225.355Z" fill="#3F3D56"/>
<path d="M222.53 158.729C223.046 161.77 223.494 164.74 223.88 167.619H215.213C214.71 164.625 214.142 161.662 213.509 158.729H222.53Z" fill="#3F3D56"/>
<path d="M214.181 124.984C215.177 127.957 216.095 130.92 216.935 133.874H206.731C205.722 130.796 204.689 127.826 203.652 124.984H214.181Z" fill="#3F3D56"/>
<path d="M220.351 147.481C221.009 150.494 221.598 153.457 222.118 156.371H212.99C212.308 153.357 211.575 150.394 210.79 147.481H220.351Z" fill="#3F3D56"/>
<path d="M226.25 203.722C226.222 207.553 226.096 209.709 226.096 209.709L226.186 211.433H216.234C216.633 208.885 216.936 206.314 217.145 203.722H226.25Z" fill="#3F3D56"/>
<path d="M217.593 136.232C218.409 139.223 219.152 142.187 219.822 145.122H210.145C209.298 142.083 208.413 139.12 207.492 136.232H217.593Z" fill="#3F3D56"/>
<path d="M146.271 99.4821C149.813 92.058 153.376 86.5205 156.85 82.4399L158.663 85.234L158.509 80.5928C159.7 79.3289 160.98 78.1521 162.338 77.0713L164.817 80.8897L164.636 75.4296C166.11 74.4734 167.69 73.6913 169.344 73.0989L171.177 75.9228L171.066 72.5787C177.391 70.9872 182.588 73.1672 185.598 75.0284L187.407 74.7579L184.306 73.4596C184.588 71.7217 185.07 70.0225 185.742 68.3956L191.131 67.5895L186.939 65.8339C187.754 64.2992 188.677 62.8249 189.702 61.4222L194.283 60.737L191.215 59.4524C194.591 55.2908 199.38 50.778 206.024 45.9453C206.024 45.9453 206.516 50.2498 206.79 56.2515L202.29 60.8668L206.913 59.6681C206.961 61.5113 206.982 63.452 206.959 65.4319L203.641 68.8356L206.905 67.9891C206.857 69.5031 206.781 71.0248 206.669 72.5295C209.494 71.8448 212.444 71.8617 215.262 72.5787L215.151 75.9228L216.984 73.0989C218.638 73.6913 220.218 74.4734 221.693 75.4296L221.511 80.8896L223.99 77.0713C225.348 78.1521 226.628 79.3289 227.819 80.5927L227.665 85.234L229.479 82.4399C232.952 86.5205 236.515 92.0579 240.057 99.4821C240.057 99.4821 235.746 99.1902 229.809 98.3774L226.093 93.1072L226.435 97.8825C224.618 97.5977 222.71 97.268 220.772 96.8883L218.032 93.0016L218.273 96.3735C215.57 95.7876 212.859 95.1013 210.298 94.3018L208.458 96.0171L211.748 95.3292C212.495 96.9228 213.056 98.5975 213.42 100.32L209.43 104.041L213.879 103.111C214.072 104.839 214.142 106.579 214.088 108.317L210.697 111.479L213.952 110.799C213.515 116.146 212.111 122.583 209.358 130.337C209.358 130.337 206.525 127.065 202.913 122.271L204.021 115.913L200.885 119.524C199.805 118.031 198.693 116.442 197.595 114.797L198.411 110.108L196.197 112.657C193.99 109.271 192.039 105.725 190.361 102.046C188.381 104.637 186.26 107.116 184.008 109.472L182.311 106.55L182.233 111.309C180.846 112.719 179.456 114.069 178.115 115.331L175.713 111.194L175.607 117.647C171.16 121.674 167.763 124.352 167.763 124.352C166.515 116.218 166.344 109.631 166.919 104.297L169.988 105.58L167.251 101.833C167.524 100.116 167.919 98.4209 168.433 96.7604L172.628 98.5131L170.633 95.7832C169.776 95.9903 168.917 96.1871 168.055 96.3736L168.296 93.0017L165.556 96.8883C163.618 97.268 161.71 97.5977 159.893 97.8825L160.235 93.1072L156.52 98.3774C150.583 99.1902 146.271 99.4821 146.271 99.4821Z" fill="#00AE46"/>
<path d="M125.593 241.851C152.121 241.851 173.625 239.804 173.625 237.28C173.625 234.755 152.121 232.708 125.593 232.708C99.0653 232.708 77.5604 234.755 77.5604 237.28C77.5604 239.804 99.0653 241.851 125.593 241.851Z" fill="#3F3D56"/>
<path d="M241.197 241.851C267.724 241.851 289.229 239.804 289.229 237.28C289.229 234.755 267.724 232.708 241.197 232.708C214.669 232.708 193.164 234.755 193.164 237.28C193.164 239.804 214.669 241.851 241.197 241.851Z" fill="#3F3D56"/>
<path d="M277.669 190.752C277.669 190.752 281.137 214.898 264.487 229.173C253.711 238.41 238.347 239.921 225.738 233.421C221.056 231.008 216.06 227.341 211.289 221.807C209.488 219.71 207.828 217.496 206.32 215.178C204.131 211.808 202.2 208.274 200.546 204.609C199.504 202.327 198.509 199.885 197.56 197.282C197.378 196.783 197.209 196.293 197.046 195.807C188.4 170.042 205.216 162.526 220.652 160.723C223.891 160.358 227.149 160.193 230.408 160.23C234.235 160.249 238.056 160.519 241.848 161.04C241.848 161.04 242.164 161.043 242.734 161.066C245.675 161.203 248.604 161.529 251.503 162.042C263.428 164.142 281.681 170.646 277.669 190.752Z" fill="#E8CDCD"/>
<path d="M171.509 197.282C163.908 218.202 152.963 228.454 143.331 233.421C130.722 239.921 115.358 238.41 104.582 229.173C103.55 228.288 102.571 227.343 101.652 226.342C99.7641 224.293 98.1235 222.029 96.7637 219.596C95.0433 216.501 93.7205 213.2 92.8267 209.771C91.8444 206.011 91.2798 202.153 91.1431 198.269C91.0242 195.76 91.1102 193.246 91.4004 190.752C87.6457 171.929 103.4 165.03 115.211 162.503C118.627 161.778 122.092 161.309 125.577 161.102C126.622 161.043 127.221 161.04 127.221 161.04C133.434 160.199 139.717 160.012 145.969 160.482C162.28 161.801 181.815 168.919 171.509 197.282Z" fill="#E8CDCD"/>
<path opacity="0.2" d="M125.577 161.102L92.8266 209.771C91.8444 206.011 91.2798 202.153 91.1431 198.268L115.211 162.502C118.627 161.777 122.092 161.309 125.577 161.102Z" fill="white"/>
<path opacity="0.2" d="M145.969 160.481L101.652 226.342C99.7641 224.293 98.1235 222.029 96.7637 219.596L136.688 160.266C139.783 160.169 142.881 160.241 145.969 160.481Z" fill="white"/>
<path opacity="0.2" d="M230.408 160.23L200.547 204.609C199.505 202.327 198.509 199.885 197.56 197.282C197.378 196.783 197.209 196.293 197.046 195.807L220.652 160.723C223.891 160.358 227.149 160.193 230.408 160.23Z" fill="white"/>
<path opacity="0.2" d="M251.503 162.042L211.29 221.806C209.488 219.71 207.828 217.496 206.32 215.178L242.734 161.066C245.675 161.203 248.604 161.529 251.503 162.042Z" fill="white"/>
<path d="M285.484 188.466H278.031C281.33 161.353 241.848 161.04 241.848 161.04C235.589 160.194 229.258 160.011 222.961 160.494V160.387H145.783V160.468C139.593 160.017 133.372 160.209 127.221 161.04C127.221 161.04 87.7395 161.353 91.038 188.466H83.9105V195.65H91.103C91.031 203.454 92.5758 218.879 104.582 229.172C115.358 238.409 130.722 239.921 143.331 233.42C152.963 228.454 163.908 218.202 171.509 197.282C174.113 190.115 174.811 184.305 174.138 179.602C181.065 179.253 188.005 179.253 194.931 179.602C194.258 184.305 194.956 190.115 197.56 197.282C205.161 218.202 216.106 228.454 225.738 233.42C238.347 239.921 253.711 238.409 264.487 229.172C276.493 218.879 278.038 203.454 277.966 195.65H285.484V188.466ZM168.076 197.416C160.844 217.323 150.293 226.635 141.243 230.932C130.233 236.16 117.113 234.707 107.663 227.004C96.2394 217.692 94.7186 203.381 94.761 196.087C94.7805 193.188 94.6503 190.295 94.5363 187.399C93.6342 164.638 127.697 164.37 127.697 164.37C127.697 164.37 183.222 155.737 168.076 197.416ZM195.232 177.967C188.111 177.413 180.958 177.413 173.837 177.967C172.051 169.972 166.029 165.466 158.878 162.999H210.191C203.04 165.466 197.018 169.972 195.232 177.967H195.232ZM274.885 187.294C274.767 190.217 274.637 193.139 274.657 196.061C274.702 203.424 273.165 217.869 261.637 227.262C252.102 235.036 238.868 236.506 227.761 231.236C218.623 226.903 207.968 217.506 200.664 197.403C185.381 155.339 241.418 164.053 241.418 164.053C241.418 164.053 275.793 164.321 274.885 187.294Z" fill="#3F3D56"/>
<path d="M133.536 234.747C133.499 234.687 132.629 233.231 132.328 230.208C132.051 227.434 132.229 222.759 134.647 216.238C139.228 203.884 133.592 193.917 133.534 193.818L133.812 193.656C134.897 195.738 135.681 197.965 136.14 200.269C137.276 205.634 136.862 211.213 134.949 216.351C130.376 228.683 133.775 234.521 133.81 234.579L133.536 234.747Z" fill="#3F3D56"/>
<path d="M131.745 193.092C132.898 193.092 133.834 192.154 133.834 190.997C133.834 189.841 132.898 188.903 131.745 188.903C130.591 188.903 129.656 189.841 129.656 190.997C129.656 192.154 130.591 193.092 131.745 193.092Z" fill="#3F3D56"/>
<path d="M138.333 200.826C139.487 200.826 140.423 199.888 140.423 198.731C140.423 197.575 139.487 196.637 138.333 196.637C137.18 196.637 136.244 197.575 136.244 198.731C136.244 199.888 137.18 200.826 138.333 200.826Z" fill="#3F3D56"/>
<path d="M133.834 205.982C134.988 205.982 135.923 205.044 135.923 203.888C135.923 202.731 134.988 201.793 133.834 201.793C132.68 201.793 131.745 202.731 131.745 203.888C131.745 205.044 132.68 205.982 133.834 205.982Z" fill="white"/>
<path d="M139.298 210.333C140.451 210.333 141.387 209.395 141.387 208.238C141.387 207.081 140.451 206.144 139.298 206.144C138.144 206.144 137.208 207.081 137.208 208.238C137.208 209.395 138.144 210.333 139.298 210.333Z" fill="white"/>
<path d="M132.227 217.1C133.381 217.1 134.316 216.162 134.316 215.005C134.316 213.848 133.381 212.911 132.227 212.911C131.073 212.911 130.138 213.848 130.138 215.005C130.138 216.162 131.073 217.1 132.227 217.1Z" fill="#3F3D56"/>
<path d="M134.798 234.824C134.798 234.824 132.709 229.668 138.976 225.801L134.798 234.824Z" fill="#3F3D56"/>
<path d="M132.229 234.73C132.229 234.73 131.278 229.247 123.919 229.294L132.229 234.73Z" fill="#3F3D56"/>
<path d="M112.346 113.415C112.342 113.752 112.256 114.083 112.095 114.38C111.934 114.676 111.704 114.929 111.424 115.116L111.346 115.165H76.5673L76.7073 114.737C76.7301 114.662 79.2766 107.254 90.5472 108.684C91.6088 108.318 101.984 104.922 108.194 108.739C110.949 110.431 112.346 112.004 112.346 113.415Z" fill="#F1F1F1"/>
<path d="M176.823 138.556C176.819 138.894 176.733 139.225 176.572 139.521C176.412 139.818 176.182 140.07 175.902 140.258L175.824 140.307H141.045L141.185 139.879C141.208 139.804 143.754 132.395 155.025 133.825C156.086 133.46 166.461 130.064 172.671 133.881C175.426 135.572 176.823 137.146 176.823 138.556Z" fill="#F1F1F1"/>
<path d="M191.477 37.3382C191.473 37.6755 191.387 38.0067 191.227 38.3031C191.066 38.5995 190.836 38.8522 190.556 39.0393L190.478 39.0883H155.699L155.839 38.6606C155.862 38.5855 158.408 31.177 169.679 32.6071C170.74 32.2414 181.115 28.8457 187.325 32.6626C190.08 34.3539 191.477 35.9277 191.477 37.3382Z" fill="#F1F1F1"/>
<path d="M11.4304 205.743L14.4059 214.977C14.4059 214.977 11.7138 223.643 12.989 233.304C14.2642 242.964 13.5557 243.248 13.5557 243.248C13.5557 243.248 0.814517 242.513 2.08971 246.349C3.3649 250.184 15.8228 247.936 15.8228 247.936C15.8228 247.936 18.2154 247.291 19.3489 240.471C20.4823 233.652 23.3322 220.518 23.3322 220.518L20.6524 208.119L11.4304 205.743Z" fill="#FFB8B8"/>
<path d="M12.4222 186.849C12.4222 186.849 7.03809 188.838 7.03809 194.236C7.03809 199.634 9.02172 207.022 10.2969 207.448C11.5721 207.874 20.0734 213.699 21.632 209.579C23.1905 205.459 12.4222 186.849 12.4222 186.849Z" fill="#D0CDE1"/>
<path d="M57.479 250.778L68.8141 250.352L77.4573 249.073L74.9069 257.597L53.937 258.166L57.479 250.778Z" fill="#FFB8B8"/>
<path d="M73.7733 251.914C73.7733 251.914 73.6316 248.789 72.3564 248.931C71.0812 249.073 71.9313 247.795 73.0648 247.51C74.1983 247.226 77.4572 245.806 77.4572 245.806L90.3508 246.658C90.3508 246.658 98.7104 254.045 95.3099 258.023C91.9093 262.001 83.1247 258.449 83.1247 258.449L73.6316 258.591C73.6316 258.591 70.5144 253.477 73.7733 251.914Z" fill="#2F2E41"/>
<path d="M78.8742 240.976L82.9829 260.296L91.4845 258.591L86.6669 234.44L81.566 231.741L78.8742 240.976Z" fill="#FFB8B8"/>
<path d="M29.9916 238.56C29.9916 238.56 6.188 249.357 16.2479 260.296C16.2479 260.296 16.2479 265.411 26.8745 264.416C37.5011 263.422 58.0459 261.575 59.0377 262.143C60.0295 262.711 63.1467 250.92 60.4546 250.352C57.7625 249.784 54.5037 249.073 54.5037 249.073C54.5037 249.073 57.3374 248.647 57.3374 246.232C57.3374 246.232 65.4137 245.664 67.8224 240.549C70.2311 235.435 72.4981 231.599 72.4981 231.599L78.024 245.806C78.024 245.806 84.3999 234.014 89.2173 239.271C89.2173 239.271 83.8332 205.317 79.7242 202.192C75.6152 199.067 72.7815 198.072 68.9559 200.913C65.1303 203.755 61.5881 211 61.5881 211L29.9916 238.56Z" fill="#2F2E41"/>
<path d="M86.8086 254.472C85.818 255.221 84.8718 256.027 83.9748 256.887C82.8413 258.023 81.2828 257.455 81.1411 256.887C80.9994 256.319 78.449 257.313 78.1656 261.433C77.8823 265.553 76.182 269.246 80.716 270.525C85.25 271.804 85.1084 275.497 85.1084 275.497C88.6959 277.223 92.8132 277.478 96.5851 276.208C102.961 274.077 100.694 271.804 100.694 271.804L92.1928 257.739C92.1928 257.739 89.9257 253.477 86.8086 254.472Z" fill="#2F2E41"/>
<path d="M63.2883 184.007C63.2883 184.007 76.8904 188.695 78.3073 189.69C79.7242 190.684 86.1001 195.372 82.983 197.788C79.8658 200.203 77.3155 201.765 71.2229 199.919C65.1303 198.072 58.3292 192.389 58.3292 192.389L63.2883 184.007Z" fill="#FFB8B8"/>
<path d="M49.6863 177.757C49.6863 177.757 55.0704 176.762 58.896 178.893C62.7216 181.024 65.9804 185.286 65.9804 185.286C65.9804 185.286 62.4382 192.816 59.8878 193.952C57.3374 195.089 52.6617 189.406 52.6617 189.406L49.6863 177.757Z" fill="#D0CDE1"/>
<path d="M24.8908 173.637C24.8908 173.637 25.0325 179.177 24.4658 179.746C23.899 180.314 31.2668 197.077 39.343 189.69C47.4193 182.303 41.185 179.319 41.185 179.319C41.185 179.319 38.2095 173.779 38.3512 173.211C38.4929 172.642 25.1742 173.211 25.1742 173.211L24.8908 173.637Z" fill="#FFB8B8"/>
<path opacity="0.1" d="M24.8908 173.637C24.8908 173.637 25.0325 179.177 24.4658 179.746C23.899 180.314 31.2668 197.077 39.343 189.69C47.4193 182.303 41.185 179.319 41.185 179.319C41.185 179.319 38.2095 173.779 38.3512 173.211C38.4929 172.642 25.1742 173.211 25.1742 173.211L24.8908 173.637Z" fill="black"/>
<path d="M27.1578 184.292C27.1578 184.292 32.542 187.985 34.809 187.133C37.076 186.281 39.9098 182.587 40.1931 182.303C40.4765 182.019 54.9287 211.142 54.9287 211.142C54.9287 211.142 52.8034 221.797 47.1359 224.922C41.4683 228.048 41.5392 230.534 40.8307 232.665C40.1223 234.796 30.9834 225.917 30.9834 225.917L25.1742 201.197V186.139L27.1578 184.292Z" fill="#D0CDE1"/>
<path d="M24.82 177.686C24.82 177.686 23.0489 177.33 21.2069 178.893C19.365 180.456 10.722 186.28 11.1471 186.849C11.5721 187.417 15.3977 195.515 16.2478 198.782C17.098 202.05 18.3732 202.476 18.3732 202.476C18.3732 202.476 21.3486 204.607 20.9235 206.17C20.4985 207.732 18.6565 229.042 21.2069 233.73C23.7573 238.418 23.3322 242.538 22.6238 243.675C21.9153 244.811 29.4248 240.407 29.4248 240.407C29.4248 240.407 40.6182 231.315 41.4683 228.616C42.0181 226.76 42.3975 224.858 42.6018 222.933C42.6018 222.933 35.3757 194.236 33.1087 192.673C30.8417 191.111 24.82 177.686 24.82 177.686Z" fill="#575A89"/>
<path d="M40.3857 177.798C40.3857 177.798 43.877 175.626 44.5855 176.194C45.2939 176.762 51.9532 176.762 52.0949 177.33C52.2366 177.899 52.52 191.537 57.3374 195.089C62.1548 198.64 59.0377 205.743 59.0377 205.743L62.5799 211.426C62.5799 211.426 43.3106 230.035 44.5855 223.644C44.6563 223.288 44.5855 223.217 44.5855 223.217C44.5855 223.217 37.076 190.969 38.0678 189.264C39.0596 187.559 40.8617 179.828 40.3857 177.798Z" fill="#575A89"/>
<path d="M70.0894 190.827L50.8198 197.504C50.8198 197.504 31.6919 202.05 34.6673 207.306C37.6428 212.563 50.253 203.612 50.253 203.612L75.9136 200.73C75.9136 200.73 86.1002 192.105 70.0894 190.827Z" fill="#FFB8B8"/>
<path d="M32.5419 178.893C38.3326 178.893 43.0269 174.187 43.0269 168.38C43.0269 162.574 38.3326 157.868 32.5419 157.868C26.7513 157.868 22.057 162.574 22.057 168.38C22.057 174.187 26.7513 178.893 32.5419 178.893Z" fill="#FFB8B8"/>
<path d="M24.1922 157.932L22.2527 157.225C22.2527 157.225 26.308 153.159 31.9501 153.513L30.3632 151.922C30.3632 151.922 34.2422 150.507 37.7686 154.22C39.6223 156.171 41.7671 158.465 43.1041 161.05H45.1812L44.3143 162.788L47.3484 164.526L44.2342 164.214C44.5292 165.715 44.4277 167.267 43.9396 168.716L43.2344 170.661C43.2344 170.661 40.4133 165.004 40.4133 164.297V166.065C40.4133 166.065 38.4738 164.473 38.4738 163.413L37.4159 164.65L36.887 162.706L30.3632 164.65L31.4211 163.059L27.3658 163.59L28.9527 161.645C28.9527 161.645 24.3685 163.943 24.1922 165.888C24.0158 167.832 21.7238 170.307 21.7238 170.307L20.6659 168.539C20.6659 168.539 19.079 160.584 24.1922 157.932Z" fill="#2F2E41"/>
<path d="M41.858 168.951C41.858 168.951 42.2026 171.35 40.5484 172.768C40.0207 173.213 39.373 173.49 38.6876 173.566C38.0022 173.641 37.31 173.51 36.6988 173.19C36.1506 172.902 35.6631 172.51 35.2634 172.036C35.0845 171.828 34.9195 171.608 34.7697 171.377C34.5522 171.043 34.3604 170.692 34.1961 170.327C34.0926 170.101 33.9937 169.858 33.8995 169.6C33.8813 169.55 33.8645 169.501 33.8483 169.453C32.9894 166.893 34.66 166.147 36.1935 165.967C36.5153 165.931 36.839 165.915 37.1628 165.918C37.543 165.92 37.9226 165.947 38.2993 165.999C38.2993 165.999 38.3307 165.999 38.3873 166.002C38.6795 166.015 38.9705 166.047 39.2585 166.099C40.4433 166.307 42.2566 166.953 41.858 168.951Z" fill="#64ABAD"/>
<path d="M31.3113 169.6C30.5562 171.678 29.4688 172.696 28.5118 173.19C27.9007 173.51 27.2085 173.641 26.5231 173.566C25.8377 173.49 25.19 173.213 24.6623 172.768C24.5597 172.68 24.4625 172.586 24.3711 172.487C24.1836 172.283 24.0206 172.058 23.8855 171.816C23.7146 171.509 23.5832 171.181 23.4944 170.84C23.3968 170.467 23.3407 170.083 23.3271 169.698C23.3153 169.448 23.3239 169.199 23.3527 168.951C22.9797 167.081 24.5449 166.395 25.7183 166.144C26.0576 166.072 26.4018 166.026 26.748 166.005C26.8519 165.999 26.9114 165.999 26.9114 165.999C27.5286 165.915 28.1528 165.897 28.7739 165.943C30.3944 166.075 32.3352 166.782 31.3113 169.6Z" fill="#64ABAD"/>
<path opacity="0.2" d="M26.748 166.005L23.4944 170.84C23.3968 170.466 23.3407 170.083 23.3271 169.697L25.7183 166.144C26.0576 166.072 26.4018 166.025 26.748 166.005Z" fill="white"/>
<path opacity="0.2" d="M28.7739 165.944L24.3712 172.487C24.1836 172.283 24.0207 172.058 23.8856 171.816L27.8519 165.922C28.1594 165.912 28.4672 165.92 28.7739 165.944Z" fill="white"/>
<path opacity="0.2" d="M37.1628 165.918L34.1961 170.327C34.0926 170.101 33.9937 169.858 33.8995 169.6C33.8813 169.55 33.8645 169.501 33.8483 169.453L36.1935 165.967C36.5153 165.931 36.839 165.915 37.1628 165.918Z" fill="white"/>
<path opacity="0.2" d="M39.2585 166.098L35.2634 172.036C35.0845 171.828 34.9195 171.608 34.7697 171.377L38.3873 166.001C38.6795 166.015 38.9705 166.047 39.2585 166.098Z" fill="white"/>
<path d="M42.6345 168.724H41.894C42.2217 166.03 38.2993 165.999 38.2993 165.999C37.6775 165.915 37.0485 165.897 36.4229 165.945V165.934H28.7555V165.942C28.1405 165.897 27.5225 165.916 26.9114 165.999C26.9114 165.999 22.989 166.03 23.3167 168.724H22.6086V169.437H23.3232C23.316 170.213 23.4695 171.745 24.6623 172.768C25.19 173.213 25.8377 173.49 26.5231 173.565C27.2085 173.641 27.9008 173.51 28.5119 173.19C29.4689 172.696 30.5562 171.678 31.3113 169.599C31.5406 169.044 31.6303 168.441 31.5725 167.843C32.2606 167.808 32.9501 167.808 33.6383 167.843C33.5805 168.441 33.6701 169.044 33.8994 169.599C34.6545 171.678 35.7419 172.696 36.6989 173.19C37.31 173.51 38.0022 173.641 38.6876 173.565C39.373 173.49 40.0207 173.213 40.5484 172.768C41.7412 171.745 41.8947 170.213 41.8876 169.437H42.6345V168.724ZM30.9703 169.613C30.2518 171.59 29.2036 172.516 28.3045 172.942C27.7682 173.199 27.1706 173.298 26.5804 173.229C25.9902 173.16 25.4314 172.926 24.9684 172.552C23.8335 171.627 23.6824 170.205 23.6866 169.481C23.6886 169.193 23.6756 168.905 23.6643 168.618C23.5747 166.356 26.9587 166.33 26.9587 166.33C26.9587 166.33 32.475 165.472 30.9703 169.613ZM33.6681 167.681C32.9607 167.626 32.2501 167.626 31.5426 167.681C31.3651 166.886 30.7669 166.439 30.0565 166.193H35.1543C34.4438 166.439 33.8456 166.886 33.6681 167.681ZM41.5814 168.607C41.5698 168.897 41.5568 169.188 41.5588 169.478C41.5633 170.21 41.4106 171.645 40.2653 172.578C39.7983 172.955 39.2347 173.192 38.6393 173.261C38.0439 173.331 37.4409 173.231 36.8998 172.973C35.992 172.542 34.9334 171.609 34.2078 169.611C32.6895 165.432 38.2566 166.298 38.2566 166.298C38.2566 166.298 41.6717 166.325 41.5814 168.607Z" fill="#3F3D56"/>
</g>
<defs>
<filter id="filter0_d" x="0" y="0" width="383" height="283" filterUnits="userSpaceOnUse" color-interpolation-filters="sRGB">
<feFlood flood-opacity="0" result="BackgroundImageFix"/>
<feColorMatrix in="SourceAlpha" type="matrix" values="0 0 0 0 0 0 0 0 0 0 0 0 0 0 0 0 0 0 127 0"/>
<feOffset dx="2" dy="2"/>
<feGaussianBlur stdDeviation="2"/>
<feColorMatrix type="matrix" values="0 0 0 0 0 0 0 0 0 0 0 0 0 0 0 0 0 0 0.4 0"/>
<feBlend mode="normal" in2="BackgroundImageFix" result="effect1_dropShadow"/>
<feBlend mode="normal" in="SourceGraphic" in2="effect1_dropShadow" result="shape"/>
</filter>
<clipPath id="clip0">
<rect width="375" height="275" fill="white" transform="translate(2 2)"/>
</clipPath>
</defs>
</svg>
