<svg width="30" height="30" viewBox="0 0 30 30" fill="none" xmlns="http://www.w3.org/2000/svg">
<path d="M15 30C10.9934 30 7.22654 28.4397 4.39336 25.6066C1.56029 22.7735 0 19.0066 0 15C0 10.9934 1.56029 7.22654 4.39336 4.39336C7.22654 1.56029 10.9934 0 15 0C19.0066 0 22.7735 1.56029 25.6066 4.39336C28.4397 7.22654 30 10.9934 30 15C30 19.0066 28.4397 22.7735 25.6066 25.6066C22.7735 28.4397 19.0066 30 15 30V30ZM15 2.34375C8.02131 2.34375 2.34375 8.02131 2.34375 15C2.34375 21.9787 8.02131 27.6562 15 27.6562C21.9787 27.6562 27.6562 21.9787 27.6562 15C27.6562 8.02131 21.9787 2.34375 15 2.34375ZM20.2918 20.3862C20.7494 19.9285 20.7495 19.1865 20.2918 18.7289C19.834 18.2712 19.0921 18.2713 18.6345 18.7289C16.5783 20.785 13.2329 20.7851 11.1767 18.7289C10.1807 17.7329 9.63217 16.4086 9.63217 15C9.63217 13.5914 10.1807 12.2671 11.1767 11.2711C13.2329 9.21492 16.5783 9.21504 18.6345 11.2711C19.0922 11.7288 19.8342 11.7288 20.2918 11.2711C20.7494 10.8134 20.7494 10.0714 20.2918 9.61383C17.3218 6.64389 12.4893 6.64395 9.51943 9.61383C8.08066 11.0525 7.28836 12.9654 7.28836 15C7.28836 17.0346 8.08066 18.9475 9.51943 20.3862C11.0044 21.8711 12.955 22.6136 14.9056 22.6136C16.8563 22.6136 18.8068 21.8711 20.2918 20.3862Z" fill="white"/>
</svg>
