<svg width="675" height="544" viewBox="0 0 675 544" fill="none" xmlns="http://www.w3.org/2000/svg">
<circle cx="400" cy="400" r="400" fill="#2D7CBF"/>
<g clip-path="url(#clip0)">
<path d="M466.491 255.856H421.347V284.727H466.491V255.856Z" fill="#A0616A"/>
<path d="M396.15 301H351.006V329.871H396.15V301Z" fill="#A0616A"/>
<path d="M598.463 265.304V203.887H564.342V163.992H541.245V203.887H507.124V265.304H488.227V127.247H449.906V114.123H398.988V101H348.594V114.123H300.825V127.247H259.355V264.78H237.308V203.362H203.187V163.467H180.09V203.362H145.969V264.78H123.922V482.627H174.316V405.462H208.961V482.627H344.395V392.863H403.187V482.627H485.077V483.152H535.471V405.987H570.116V483.152H620.51V265.304H598.463ZM142.032 291.551H161.98V307.299H142.032V291.551ZM142.295 335.646H162.242V351.394H142.295V335.646ZM162.505 395.488H142.557V379.74H162.505V395.488ZM214.736 253.231H168.541V243.782H214.736V253.231ZM214.736 239.583H168.541V230.134H214.736V239.583ZM214.736 225.934H168.541V216.486H214.736V225.934ZM221.297 291.551H241.245V307.299H221.297V291.551ZM221.56 335.646H241.507V351.394H221.56V335.646ZM241.77 395.488H221.822V379.74H241.77V395.488ZM323.397 369.241H286.652V352.968H323.397V369.241ZM323.397 322.522H286.652V306.249H323.397V322.522ZM323.397 275.803H286.652V259.53H323.397V275.803ZM323.397 229.084H286.652V212.811H323.397V229.084ZM323.397 182.365H286.652V166.092H323.397V182.365ZM392.164 369.241H355.418V352.968H392.164V369.241ZM392.164 322.522H355.418V306.249H392.164V322.522ZM392.164 275.803H355.418V259.53H392.164V275.803ZM392.164 229.084H355.418V212.811H392.164V229.084ZM392.164 182.365H355.418V166.092H392.164V182.365ZM460.93 369.241H424.185V352.968H460.93V369.241ZM460.93 322.522H424.185V306.249H460.93V322.522ZM460.93 275.803H424.185V259.53H460.93V275.803ZM460.93 229.084H424.185V212.811H460.93V229.084ZM460.93 182.365H424.185V166.092H460.93V182.365ZM503.187 292.076H523.135V307.824H503.187V292.076ZM503.45 336.171H523.397V351.919H503.45V336.171ZM523.66 396.013H503.712V380.265H523.66V396.013ZM575.891 253.756H529.696V244.307H575.891V253.756ZM575.891 240.108H529.696V230.659H575.891V240.108ZM575.891 226.459H529.696V217.01H575.891V226.459ZM582.452 292.076H602.4V307.824H582.452V292.076ZM582.715 336.171H602.662V351.919H582.715V336.171ZM602.925 396.013H582.977V380.265H602.925V396.013Z" fill="white"/>
<path d="M154.992 429.456C154.845 431.533 154.616 433.856 154.26 436.296L160.678 429.179L160.713 429.298C160.321 427.585 159.689 425.936 158.836 424.4L158.877 424.512L154.992 429.456Z" fill="#A0616A"/>
<path d="M155.017 429.092L158.781 424.303C157.98 422.842 156.822 421.608 155.415 420.716C155.346 420.675 155.276 420.636 155.207 420.598C155.228 421.164 155.326 424.484 155.017 429.092Z" fill="#A0616A"/>
<path d="M151.622 447.867C151.457 448.371 151.286 448.865 151.11 449.351L160.561 443.809L160.574 443.948C160.772 443.087 160.936 442.225 161.068 441.363L151.631 447.931L151.622 447.867Z" fill="#A0616A"/>
<path d="M152.937 443.216L161.449 436.196L161.473 436.328C161.503 434.006 161.258 431.69 160.743 429.426L154.203 436.679C153.86 438.965 153.437 441.144 152.937 443.216Z" fill="#A0616A"/>
<path d="M154.057 436.541L143.872 425.177L143.926 425.048C142.969 426.396 142.15 427.838 141.482 429.35L153.105 441.725C153.504 439.919 153.814 438.17 154.057 436.541Z" fill="#A0616A"/>
<path d="M141.372 429.606L141.373 429.607C141.391 429.565 141.407 429.519 141.426 429.477L141.372 429.606Z" fill="#A0616A"/>
<path d="M140.806 431L140.753 431.13C140.77 431.086 140.789 431.045 140.806 431.001L140.806 431Z" fill="#A0616A"/>
<path d="M153.038 442.027L141.373 429.607C141.176 430.058 140.987 430.523 140.806 431.001L152.729 443.341C152.837 442.9 152.94 442.462 153.038 442.027Z" fill="#A0616A"/>
<path d="M161.093 441.197C161.325 439.635 161.452 438.059 161.472 436.48L152.844 443.595C152.502 444.975 152.126 446.301 151.716 447.574L161.074 441.062L161.093 441.197Z" fill="#A0616A"/>
<path d="M139.259 442.083L148.702 454.403C149.478 452.903 150.163 451.358 150.754 449.777L139.232 437.675C139.117 439.188 139.105 440.707 139.194 442.221L139.259 442.083Z" fill="#A0616A"/>
<path d="M155.034 420.588L155.119 420.55C153.051 419.445 150.812 419.564 148.666 420.684L154.851 429.084C155.184 424.098 155.037 420.637 155.034 420.588Z" fill="#A0616A"/>
<path d="M150.803 450.175C150.261 451.598 149.642 452.991 148.949 454.346L158.447 449.432L158.457 449.569C159.172 448.36 159.732 447.065 160.122 445.715C160.273 445.185 160.411 444.652 160.535 444.118L150.971 449.726C150.915 449.876 150.86 450.027 150.803 450.175Z" fill="#A0616A"/>
<path d="M154.825 429.455L148.499 420.862L148.558 420.74C146.748 421.788 145.192 423.223 144.002 424.944L154.105 436.216C154.454 433.803 154.681 431.508 154.825 429.455Z" fill="#A0616A"/>
<path d="M150.857 449.499C151.561 447.578 152.162 445.62 152.656 443.635L140.703 431.264C140.419 432.037 140.157 432.84 139.919 433.675C139.589 434.872 139.368 436.097 139.26 437.333L150.848 449.504L150.857 449.499Z" fill="#A0616A"/>
<path d="M163.134 462.846C161.696 464.351 160.038 465.994 158.208 467.647L167.69 466.258L167.641 466.373C168.432 464.803 168.997 463.13 169.32 461.403L169.28 461.515L163.134 462.846Z" fill="#A0616A"/>
<path d="M169.034 456.383C169.007 456.307 168.978 456.233 168.949 456.16C168.605 456.608 166.563 459.229 163.386 462.581L169.339 461.293C169.654 459.657 169.549 457.967 169.034 456.383Z" fill="#A0616A"/>
<path d="M148.795 474.876C148.347 475.158 147.9 475.43 147.455 475.692L158.269 477.452L158.19 477.567C158.892 477.03 159.568 476.471 160.219 475.891L148.762 474.93L148.795 474.876Z" fill="#A0616A"/>
<path d="M152.774 472.132L163.808 472.155L163.743 472.271C165.246 470.502 166.535 468.562 167.582 466.49L157.919 467.905C156.197 469.447 154.482 470.856 152.774 472.132Z" fill="#A0616A"/>
<path d="M149.055 474.71L160.416 475.663L160.344 475.779C161.519 474.724 162.622 473.591 163.645 472.387L152.462 472.365C151.319 473.209 150.183 473.991 149.055 474.71Z" fill="#A0616A"/>
<path d="M135.139 480.333C135.219 480.251 135.304 480.163 135.388 480.076C137.705 479.707 139.969 479.061 142.131 478.15L142.44 469.962C142.531 469.753 142.62 469.543 142.707 469.332L142.378 478.046C143.932 477.386 145.445 476.634 146.909 475.792L145.854 460.57C145.935 460.528 146.017 460.485 146.102 460.44L147.155 475.643L147.166 475.644C148.933 474.614 150.644 473.489 152.291 472.275L151.142 457.295C151.224 457.235 151.305 457.177 151.386 457.116L152.535 472.095C152.9 471.825 153.258 471.553 153.612 471.281L152.664 456.117C152.745 456.05 152.826 455.983 152.907 455.916L153.856 471.091C155.314 469.954 156.669 468.806 157.895 467.705L157.299 452.456L157.423 452.392C156.999 452.503 156.569 452.634 156.135 452.776C156.951 451.844 157.685 450.843 158.329 449.785L148.74 454.746C148.076 456.008 147.329 457.223 146.505 458.386C146.334 458.547 146.162 458.709 145.993 458.878L146.006 459.06C145.928 459.163 145.85 459.267 145.771 459.368L145.754 459.123C145.632 459.247 145.514 459.378 145.395 459.506C146.609 457.99 147.675 456.36 148.577 454.64L139.204 442.41C139.268 443.504 139.374 444.604 139.512 445.695C138.642 444.28 137.585 442.989 136.37 441.856L136.443 441.951L134.277 447.853C134.779 449.874 135.279 452.154 135.695 454.585L139.545 445.952C139.563 446.087 139.581 446.221 139.6 446.355L135.759 454.967C136.139 457.247 136.411 459.45 136.575 461.575L141.185 454.335C141.211 454.439 141.237 454.543 141.264 454.645L136.605 461.964C136.706 463.382 136.758 464.759 136.762 466.097L142.396 458.663C142.426 458.761 142.456 458.856 142.485 458.95L136.79 466.462L136.763 466.405C136.761 466.935 136.752 467.458 136.734 467.974L143.09 460.818C143.124 460.917 143.155 461.009 143.184 461.093L136.718 468.373C136.712 468.533 136.706 468.694 136.697 468.852C136.622 470.373 136.463 471.889 136.223 473.393L136.836 472.771C136.72 473.012 136.607 473.25 136.497 473.484L136.148 473.838C136.108 474.068 136.062 474.292 136.018 474.518C135.889 474.801 135.765 475.077 135.646 475.346C135.761 474.83 135.869 474.311 135.961 473.787L123.266 465.053C126.578 473.527 132.815 481.587 133.214 482.099C133.538 481.493 133.832 480.87 134.103 480.234C134.181 480.227 134.26 480.219 134.338 480.211C134.306 480.289 134.272 480.366 134.239 480.444C134.2 480.448 134.16 480.454 134.12 480.458C134.151 480.467 134.188 480.477 134.221 480.486C134.031 480.93 133.833 481.367 133.622 481.789C133.899 481.54 134.321 481.146 134.825 480.646C137.81 481.408 145.852 483.038 152.738 480.631L142.188 478.336C139.93 479.292 137.562 479.962 135.139 480.333ZM142.552 466.983L142.805 466.727L142.791 467.111L142.538 467.367L142.552 466.983Z" fill="#A0616A"/>
<path d="M168.823 456.042L168.912 456.067C168.024 453.897 166.225 452.56 163.857 452.054L163.263 462.468C166.699 458.841 168.793 456.081 168.823 456.042Z" fill="#A0616A"/>
<path d="M146.693 476.131C145.368 476.882 144.003 477.559 142.604 478.161L153.054 480.434L152.975 480.546C154.297 480.071 155.554 479.431 156.715 478.64C157.17 478.327 157.615 478.005 158.052 477.673L147.109 475.892C146.97 475.972 146.832 476.053 146.693 476.131Z" fill="#A0616A"/>
<path d="M158.139 467.485C159.947 465.85 161.586 464.226 163.006 462.738L163.615 452.085L163.738 452.028C161.676 451.68 159.561 451.794 157.548 452.36L158.139 467.485Z" fill="#A0616A"/>
<path d="M136.287 441.781C135.074 440.639 133.591 439.824 131.977 439.411C131.899 439.393 131.821 439.378 131.743 439.363C131.938 439.894 133.058 443.022 134.188 447.499L136.287 441.781Z" fill="#A0616A"/>
<path d="M135.578 454.881L122.378 447.221L122.39 447.082C121.897 448.66 121.563 450.284 121.396 451.929L136.275 460.105C136.095 458.264 135.85 456.505 135.578 454.881Z" fill="#A0616A"/>
<path d="M121.37 452.206L121.371 452.206C121.375 452.161 121.376 452.112 121.381 452.066L121.37 452.206Z" fill="#A0616A"/>
<path d="M121.262 453.707L121.253 453.847C121.255 453.799 121.261 453.755 121.263 453.707L121.262 453.707Z" fill="#A0616A"/>
<path d="M136.304 460.412L121.371 452.206C121.323 452.697 121.287 453.197 121.263 453.707L136.416 461.757C136.383 461.305 136.346 460.857 136.304 460.412Z" fill="#A0616A"/>
<path d="M136.527 468.489L121.828 460.541C122.188 462.015 122.645 463.464 123.198 464.877L123.217 464.725L136.005 473.522C136.28 471.856 136.454 470.176 136.527 468.489Z" fill="#A0616A"/>
<path d="M131.576 439.406L131.645 439.344C129.336 438.932 127.244 439.737 125.549 441.466L134.027 447.543C132.803 442.698 131.593 439.453 131.576 439.406Z" fill="#A0616A"/>
<path d="M134.118 447.904L125.445 441.687L125.464 441.552C124.066 443.108 123.03 444.955 122.431 446.959L135.522 454.557C135.109 452.153 134.615 449.9 134.118 447.904Z" fill="#A0616A"/>
<path d="M136.54 468.193C136.616 466.148 136.581 464.101 136.437 462.06L121.246 453.989C121.214 454.812 121.214 455.657 121.246 456.525C121.302 457.765 121.47 458.998 121.75 460.208L136.533 468.201L136.54 468.193Z" fill="#A0616A"/>
<path d="M604.336 427.881C604.189 429.958 603.959 432.281 603.604 434.721L610.022 427.604L610.057 427.723C609.665 426.01 609.033 424.361 608.18 422.825L608.221 422.937L604.336 427.881Z" fill="#A0616A"/>
<path d="M604.361 427.517L608.124 422.728C607.324 421.267 606.166 420.033 604.758 419.141C604.689 419.1 604.62 419.062 604.551 419.023C604.571 419.589 604.67 422.909 604.361 427.517Z" fill="#A0616A"/>
<path d="M600.966 446.293C600.801 446.796 600.63 447.291 600.454 447.776L609.905 442.234L609.918 442.374C610.116 441.512 610.28 440.65 610.412 439.789L600.974 446.356L600.966 446.293Z" fill="#A0616A"/>
<path d="M602.28 441.642L610.793 434.622L610.817 434.753C610.847 432.432 610.602 430.115 610.087 427.852L603.547 435.105C603.203 437.391 602.781 439.57 602.28 441.642Z" fill="#A0616A"/>
<path d="M603.401 434.967L593.216 423.602L593.27 423.474C592.313 424.822 591.494 426.263 590.826 427.776L602.449 440.151C602.847 438.344 603.158 436.596 603.401 434.967Z" fill="#A0616A"/>
<path d="M590.716 428.032L590.717 428.032C590.735 427.99 590.751 427.944 590.769 427.902L590.716 428.032Z" fill="#A0616A"/>
<path d="M602.382 440.452L590.717 428.032C590.519 428.484 590.331 428.948 590.15 429.426L602.073 441.766C602.181 441.325 602.284 440.887 602.382 440.452Z" fill="#A0616A"/>
<path d="M590.149 429.426L590.097 429.555C590.114 429.511 590.133 429.47 590.15 429.426L590.149 429.426Z" fill="#A0616A"/>
<path d="M610.437 439.623C610.669 438.061 610.795 436.484 610.815 434.905L602.188 442.02C601.846 443.4 601.47 444.727 601.06 446L610.418 439.487L610.437 439.623Z" fill="#A0616A"/>
<path d="M588.603 440.508L598.046 452.828C598.821 451.328 599.507 449.784 600.098 448.202L588.575 436.1C588.461 437.613 588.449 439.132 588.538 440.647L588.603 440.508Z" fill="#A0616A"/>
<path d="M604.378 419.013L604.463 418.975C602.395 417.87 600.156 417.989 598.01 419.109L604.195 427.509C604.528 422.523 604.38 419.062 604.378 419.013Z" fill="#A0616A"/>
<path d="M600.147 448.6C599.605 450.023 598.986 451.416 598.293 452.772L607.791 447.857L607.801 447.994C608.516 446.785 609.076 445.49 609.466 444.141C609.617 443.61 609.754 443.077 609.879 442.543L600.315 448.151C600.259 448.301 600.204 448.452 600.147 448.6Z" fill="#A0616A"/>
<path d="M604.169 427.88L597.843 419.288L597.902 419.165C596.092 420.213 594.536 421.649 593.346 423.37L603.448 434.641C603.798 432.228 604.024 429.933 604.169 427.88Z" fill="#A0616A"/>
<path d="M600.201 447.924C600.905 446.003 601.506 444.045 601.999 442.06L590.047 429.689C589.762 430.462 589.501 431.265 589.263 432.1C588.933 433.297 588.712 434.522 588.604 435.759L600.192 447.93L600.201 447.924Z" fill="#A0616A"/>
<path d="M612.478 461.271C611.04 462.776 609.382 464.419 607.552 466.072L617.034 464.683L616.985 464.798C617.775 463.228 618.34 461.555 618.664 459.828L618.623 459.941L612.478 461.271Z" fill="#A0616A"/>
<path d="M618.378 454.808C618.351 454.733 618.322 454.659 618.293 454.585C617.948 455.034 615.906 457.654 612.729 461.006L618.683 459.718C618.998 458.082 618.893 456.393 618.378 454.808Z" fill="#A0616A"/>
<path d="M598.139 473.301C597.691 473.583 597.244 473.855 596.799 474.117L607.612 475.877L607.534 475.992C608.236 475.455 608.912 474.896 609.563 474.316L598.105 473.355L598.139 473.301Z" fill="#A0616A"/>
<path d="M602.118 470.557L613.152 470.58L613.087 470.696C614.59 468.928 615.879 466.987 616.926 464.916L607.263 466.33C605.541 467.872 603.826 469.281 602.118 470.557Z" fill="#A0616A"/>
<path d="M598.398 473.135L609.76 474.088L609.688 474.204C610.863 473.149 611.966 472.016 612.988 470.813L601.806 470.79C600.662 471.635 599.527 472.416 598.398 473.135Z" fill="#A0616A"/>
<path d="M584.482 478.758C584.563 478.676 584.648 478.588 584.732 478.502C587.049 478.133 589.313 477.486 591.475 476.575L591.784 468.387C591.875 468.178 591.964 467.969 592.051 467.757L591.722 476.472C593.276 475.812 594.789 475.059 596.253 474.218L595.198 458.995C595.279 458.953 595.361 458.91 595.445 458.866L596.499 474.068L596.509 474.07C598.277 473.039 599.988 471.914 601.635 470.7L600.486 455.72C600.568 455.661 600.649 455.602 600.73 455.542L601.879 470.52C602.243 470.25 602.602 469.979 602.955 469.706L602.008 454.542C602.089 454.475 602.17 454.409 602.251 454.341L603.199 469.516C604.658 468.379 606.013 467.231 607.239 466.131L606.642 450.882L606.766 450.817C606.343 450.928 605.913 451.059 605.479 451.202C606.295 450.27 607.029 449.269 607.673 448.21L598.084 453.172C597.42 454.433 596.673 455.649 595.849 456.811C595.677 456.973 595.506 457.134 595.337 457.303L595.35 457.485C595.271 457.588 595.194 457.692 595.114 457.793L595.097 457.548C594.976 457.672 594.858 457.803 594.739 457.931C595.953 456.415 597.019 454.785 597.921 453.065L588.547 440.836C588.611 441.929 588.718 443.029 588.856 444.121C587.985 442.706 586.928 441.414 585.713 440.281L585.787 440.376L583.621 446.279C584.123 448.299 584.622 450.579 585.039 453.01L588.889 444.378C588.906 444.512 588.925 444.646 588.943 444.781L585.103 453.392C585.483 455.672 585.755 457.875 585.919 460L590.529 452.76C590.555 452.864 590.581 452.968 590.608 453.071L585.948 460.389C586.05 461.807 586.102 463.185 586.105 464.522L591.74 457.088C591.77 457.186 591.799 457.281 591.829 457.375L586.134 464.888L586.107 464.83C586.105 465.36 586.095 465.883 586.078 466.399L592.434 459.243C592.467 459.343 592.499 459.435 592.528 459.519L586.062 466.798C586.055 466.958 586.05 467.119 586.041 467.278C585.966 468.798 585.807 470.314 585.567 471.818L586.18 471.197C586.064 471.438 585.951 471.675 585.841 471.91L585.492 472.263C585.452 472.493 585.406 472.717 585.362 472.943C585.233 473.226 585.109 473.502 584.99 473.771C585.105 473.255 585.213 472.736 585.304 472.212L572.61 463.479C575.922 471.952 582.158 480.012 582.558 480.524C582.882 479.918 583.176 479.295 583.447 478.659C583.525 478.652 583.604 478.645 583.682 478.636C583.65 478.715 583.616 478.791 583.583 478.869C583.543 478.873 583.503 478.879 583.464 478.883C583.495 478.892 583.532 478.902 583.565 478.911C583.375 479.355 583.177 479.792 582.965 480.214C583.242 479.965 583.665 479.571 584.169 479.072C587.154 479.834 595.196 481.463 602.082 479.056L591.532 476.761C589.274 477.717 586.906 478.388 584.482 478.758ZM591.896 465.408L592.149 465.152L592.134 465.536L591.881 465.792L591.896 465.408Z" fill="#A0616A"/>
<path d="M618.167 454.467L618.256 454.492C617.368 452.322 615.568 450.985 613.201 450.479L612.607 460.894C616.043 457.266 618.137 454.507 618.167 454.467Z" fill="#A0616A"/>
<path d="M596.037 474.556C594.712 475.307 593.347 475.984 591.948 476.586L602.398 478.859L602.318 478.971C603.641 478.496 604.897 477.856 606.059 477.065C606.514 476.753 606.959 476.43 607.396 476.099L596.453 474.317C596.314 474.397 596.175 474.478 596.037 474.556Z" fill="#A0616A"/>
<path d="M607.483 465.911C609.291 464.275 610.93 462.652 612.35 461.163L612.958 450.51L613.082 450.454C611.019 450.106 608.905 450.219 606.892 450.786L607.483 465.911Z" fill="#A0616A"/>
<path d="M585.631 440.207C584.418 439.065 582.935 438.249 581.321 437.836C581.243 437.818 581.165 437.803 581.087 437.788C581.281 438.319 582.401 441.447 583.532 445.925L585.631 440.207Z" fill="#A0616A"/>
<path d="M584.921 453.306L571.722 445.646L571.734 445.507C571.24 447.085 570.907 448.709 570.74 450.354L585.619 458.53C585.439 456.689 585.194 454.93 584.921 453.306Z" fill="#A0616A"/>
<path d="M570.606 452.132L570.597 452.272C570.599 452.224 570.604 452.18 570.607 452.132L570.606 452.132Z" fill="#A0616A"/>
<path d="M570.714 450.631L570.715 450.632C570.719 450.586 570.72 450.537 570.725 450.492L570.714 450.631Z" fill="#A0616A"/>
<path d="M585.648 458.837L570.715 450.631C570.667 451.122 570.631 451.622 570.607 452.132L585.76 460.182C585.727 459.73 585.69 459.282 585.648 458.837Z" fill="#A0616A"/>
<path d="M585.871 466.914L571.172 458.966C571.531 460.44 571.989 461.889 572.542 463.302L572.561 463.15L585.349 471.948C585.624 470.282 585.798 468.601 585.871 466.914Z" fill="#A0616A"/>
<path d="M580.92 437.831L580.989 437.769C578.68 437.358 576.588 438.162 574.893 439.891L583.371 445.968C582.147 441.124 580.937 437.878 580.92 437.831Z" fill="#A0616A"/>
<path d="M583.462 446.329L574.789 440.112L574.808 439.978C573.41 441.534 572.374 443.38 571.774 445.384L584.866 452.982C584.453 450.579 583.959 448.326 583.462 446.329Z" fill="#A0616A"/>
<path d="M585.883 466.618C585.959 464.573 585.925 462.526 585.781 460.485L570.59 452.415C570.558 453.237 570.558 454.082 570.59 454.95C570.645 456.19 570.814 457.423 571.094 458.633L585.876 466.626L585.883 466.618Z" fill="#A0616A"/>
<path d="M123.922 482.627H620.51V489.732C620.51 492.721 619.323 495.587 617.21 497.7C615.097 499.813 612.231 501 609.242 501H135.19C132.201 501 129.335 499.813 127.222 497.7C125.109 495.587 123.922 492.721 123.922 489.732V482.627Z" fill="#2F2E41"/>
<path d="M620.51 476.853H123.922V486.827H620.51V476.853Z" fill="#3F3D56"/>
<path d="M508.774 135.632L514.477 139.249L511.015 132.953C511.995 132.17 513.209 131.737 514.464 131.722C514.494 131.722 514.525 131.722 514.555 131.723C514.952 131.729 515.348 131.7 515.739 131.635L517.671 132.861L516.843 131.354C518.212 130.877 519.396 129.979 520.224 128.788L523.684 130.982L521.498 127.009C523.521 124.58 526.248 123.091 529.249 123.091C532.846 123.091 536.051 125.231 538.119 128.564C538.731 129.561 539.596 130.379 540.625 130.934C541.655 131.49 542.813 131.763 543.983 131.725C544.047 131.723 544.112 131.722 544.176 131.722C548.148 131.722 551.367 136.225 551.367 141.779C551.367 147.334 548.148 151.837 544.176 151.837C543.303 151.833 542.443 151.618 541.672 151.21C540.32 150.553 538.841 150.197 537.338 150.168C535.836 150.138 534.344 150.436 532.968 151.039C531.805 151.562 530.545 151.834 529.27 151.837C527.995 151.84 526.734 151.574 525.568 151.057C524.203 150.464 522.725 150.173 521.237 150.202C519.749 150.23 518.284 150.579 516.942 151.223C516.177 151.623 515.327 151.834 514.464 151.837C510.492 151.837 507.273 147.334 507.273 141.779C507.25 139.637 507.766 137.523 508.774 135.632Z" fill="white"/>
<path d="M218.612 165.17L222.24 167.471L220.038 163.466C220.662 162.968 221.434 162.692 222.232 162.683C222.251 162.683 222.271 162.683 222.29 162.683C222.542 162.687 222.794 162.669 223.043 162.628L224.272 163.407L223.745 162.449C224.616 162.145 225.369 161.574 225.896 160.817L228.097 162.212L226.706 159.684C227.292 158.929 228.038 158.314 228.891 157.883C229.744 157.452 230.682 157.216 231.637 157.192C233.925 157.192 235.964 158.553 237.28 160.674C237.669 161.308 238.219 161.829 238.874 162.182C239.529 162.535 240.266 162.709 241.009 162.685C241.05 162.683 241.091 162.683 241.133 162.683C243.659 162.683 245.707 165.547 245.707 169.08C245.707 172.614 243.659 175.478 241.133 175.478C240.577 175.476 240.03 175.339 239.539 175.079C238.679 174.661 237.739 174.435 236.783 174.416C235.827 174.398 234.878 174.587 234.003 174.971C233.263 175.303 232.461 175.476 231.65 175.478C230.839 175.48 230.037 175.311 229.296 174.982C228.427 174.605 227.487 174.42 226.54 174.438C225.594 174.456 224.662 174.678 223.808 175.088C223.321 175.342 222.781 175.476 222.232 175.478C219.705 175.478 217.657 172.614 217.657 169.08C217.643 167.717 217.971 166.373 218.612 165.17Z" fill="white"/>
<path d="M120.975 177.503L124.603 179.804L122.4 175.799C123.024 175.301 123.796 175.025 124.594 175.016C124.613 175.016 124.633 175.016 124.652 175.016C124.904 175.02 125.156 175.002 125.405 174.961L126.634 175.74L126.107 174.782C126.978 174.478 127.731 173.907 128.258 173.15L130.459 174.545L129.069 172.017C129.654 171.262 130.4 170.647 131.253 170.216C132.106 169.785 133.044 169.549 133.999 169.525C136.287 169.525 138.326 170.886 139.642 173.007C140.031 173.641 140.581 174.162 141.236 174.515C141.891 174.868 142.628 175.042 143.372 175.018C143.413 175.016 143.454 175.016 143.495 175.016C146.021 175.016 148.069 177.88 148.069 181.413C148.069 184.947 146.021 187.811 143.495 187.811C142.939 187.809 142.392 187.672 141.901 187.412C141.042 186.994 140.101 186.768 139.145 186.749C138.189 186.731 137.241 186.92 136.365 187.304C135.625 187.636 134.824 187.809 134.013 187.811C133.201 187.813 132.399 187.644 131.658 187.315C130.789 186.938 129.849 186.753 128.903 186.771C127.956 186.789 127.024 187.011 126.17 187.421C125.684 187.675 125.143 187.809 124.594 187.811C122.067 187.811 120.02 184.947 120.02 181.413C120.005 180.05 120.333 178.706 120.975 177.503Z" fill="white"/>
<path d="M251.958 414.314L251.324 414.948C251.324 414.948 251.536 421.918 251.747 423.397C251.958 424.875 252.803 427.41 252.169 429.311C251.536 431.212 251.324 432.69 251.536 432.902C251.747 433.113 251.324 433.958 251.324 433.958L253.014 432.902L255.76 426.565L254.493 419.806L251.958 414.314Z" fill="#A0616A"/>
<path opacity="0.1" d="M251.958 414.314L251.324 414.948C251.324 414.948 251.536 421.918 251.747 423.397C251.958 424.875 252.803 427.41 252.169 429.311C251.536 431.212 251.324 432.69 251.536 432.902C251.747 433.113 251.324 433.958 251.324 433.958L253.014 432.902L255.76 426.565L254.493 419.806L251.958 414.314Z" fill="white"/>
<path d="M263.153 480.003C263.153 480.003 263.153 477.68 262.73 477.257C262.308 476.835 261.674 475.356 260.829 475.356C259.984 475.356 257.027 476.201 257.027 476.413C257.051 477.072 256.906 477.726 256.605 478.314C256.182 478.947 253.859 481.482 256.182 481.904C256.955 482.031 257.745 482.003 258.506 481.822C259.268 481.641 259.986 481.31 260.618 480.848C260.829 480.637 261.674 480.426 261.885 480.637C262.097 480.848 263.153 480.003 263.153 480.003Z" fill="#A0616A"/>
<path d="M269.067 476.201L270.334 478.525C270.334 478.525 270.756 480.637 271.39 480.848H272.024C272.024 480.848 272.657 483.171 274.136 482.96C275.614 482.749 277.304 481.904 277.304 481.482C277.304 481.059 277.304 479.792 276.671 479.369C275.782 478.644 274.936 477.868 274.136 477.046L273.08 475.99L269.067 476.201Z" fill="#A0616A"/>
<path d="M252.857 398.83C252.45 399.038 252.099 399.34 251.834 399.711C251.568 400.082 251.396 400.512 251.331 400.964C251.213 402.472 252.704 403.893 252.225 405.327C251.952 406.142 251.104 406.669 250.86 407.493C250.732 408.149 250.828 408.83 251.134 409.425C251.467 410.242 251.873 411.026 252.347 411.77C253.237 413.168 254.396 414.494 254.634 416.135C254.7 416.421 254.697 416.72 254.625 417.005C254.554 417.291 254.415 417.555 254.222 417.777C254.65 417.452 255.141 417.219 255.663 417.091C257.822 416.37 259.827 415.253 261.577 413.797C262.213 413.35 262.692 412.714 262.945 411.979C263.267 410.682 262.282 409.384 262.377 408.05C262.437 407.196 262.93 406.443 263.208 405.634C263.451 404.829 263.528 403.984 263.435 403.148C263.343 402.313 263.082 401.504 262.669 400.772C262.328 400.064 261.845 399.432 261.252 398.916C260.658 398.399 259.966 398.009 259.217 397.769C258.065 397.501 256.863 397.535 255.728 397.87C254.736 398.075 253.772 398.398 252.857 398.83Z" fill="#2F2E41"/>
<path d="M254.046 410.543C254.511 409.679 255.2 408.955 256.04 408.448C256.88 407.941 257.841 407.67 258.823 407.661C262.202 407.661 261.568 407.45 261.568 407.45L260.512 411.674L258.4 413.786L254.046 410.543Z" fill="#A0616A"/>
<path d="M254.915 406.077C254.915 406.077 256.816 409.245 255.549 410.512C254.281 411.78 254.915 413.047 255.126 413.258C255.338 413.469 261.252 413.892 261.252 413.892L261.463 410.935L262.097 408.4C262.097 408.4 258.717 407.767 259.139 406.288C259.562 404.809 254.915 406.077 254.915 406.077Z" fill="#FBBEBE"/>
<path opacity="0.1" d="M254.915 406.077C254.915 406.077 256.816 409.245 255.549 410.512C254.281 411.78 254.915 413.047 255.126 413.258C255.338 413.469 261.252 413.892 261.252 413.892L261.463 410.935L262.097 408.4C262.097 408.4 258.717 407.767 259.139 406.288C259.562 404.809 254.915 406.077 254.915 406.077Z" fill="white"/>
<path d="M269.7 436.07C269.474 436.795 269.192 437.501 268.856 438.182C268.644 438.393 268.011 436.703 268.011 436.703L268.644 435.225L269.7 436.07Z" fill="#FBBEBE"/>
<path d="M267.271 426.459L268.116 431.318H255.443L256.077 426.459H267.271Z" fill="#FBBEBE"/>
<path d="M257.238 407.767C259.455 407.767 261.252 405.97 261.252 403.753C261.252 401.537 259.455 399.74 257.238 399.74C255.022 399.74 253.225 401.537 253.225 403.753C253.225 405.97 255.022 407.767 257.238 407.767Z" fill="#FBBEBE"/>
<path d="M258.083 411.991C258.083 411.991 255.76 412.202 255.76 411.78C255.76 411.357 255.549 410.09 255.126 410.301C254.704 410.513 251.958 410.724 252.169 411.357C252.38 411.991 252.803 413.258 252.38 413.258C252.198 413.296 252.025 413.37 251.872 413.476C251.718 413.582 251.589 413.719 251.49 413.877C251.391 414.035 251.325 414.211 251.297 414.395C251.269 414.58 251.278 414.768 251.324 414.948C251.536 416.004 253.859 422.341 253.859 422.341C253.859 422.341 254.07 424.453 254.704 425.087C254.962 425.419 255.102 425.828 255.102 426.248C255.102 426.669 254.962 427.078 254.704 427.41C254.281 427.832 255.76 428.255 256.394 429.1C257.027 429.945 261.885 429.311 262.096 429.1C262.308 428.889 267.377 428.889 267.799 428.466C268.222 428.044 267.588 426.776 267.588 426.776C267.588 426.776 267.377 424.875 267.588 424.242C267.799 423.608 266.743 413.258 266.11 412.625C265.476 411.991 268.011 410.09 268.011 410.09C268.011 410.09 267.588 408.4 264.842 408.189C264.842 408.189 263.997 406.922 263.153 406.922C262.308 406.922 260.473 407.905 260.473 407.905C260.473 407.905 259.984 410.724 259.351 410.935C258.85 411.18 258.415 411.543 258.083 411.991Z" fill="#A0616A"/>
<path d="M266.532 409.456L268.011 410.09C268.011 410.09 272.235 423.186 271.813 425.72C271.39 428.255 270.334 436.915 269.7 436.915C269.067 436.915 267.799 435.647 267.799 435.647V433.535C267.799 433.113 267.166 431.845 267.588 431.845C268.011 431.845 268.644 431.423 268.222 431.001C267.799 430.578 267.377 429.944 267.799 429.311C268.222 428.677 268.433 428.466 268.222 427.832C268.011 427.199 267.588 426.565 268.011 426.142C268.433 425.72 266.955 423.608 266.955 423.608L264.631 414.314L265.054 410.512L266.532 409.456Z" fill="#A0616A"/>
<path d="M267.377 429.522C267.377 429.522 259.351 428.889 258.295 428.889C257.239 428.889 254.869 427.894 254.869 427.894C254.869 427.894 248.79 433.958 250.902 443.885C253.014 453.812 253.437 466.063 254.704 469.654C255.565 472.214 256.271 474.824 256.816 477.469C256.816 477.469 258.928 473.667 262.941 477.891C262.941 477.891 263.364 474.723 262.73 473.456C262.097 472.188 261.252 465.429 261.252 465.429C261.252 465.429 259.773 454.657 259.773 453.39C259.773 452.123 258.928 441.35 259.139 441.139C259.351 440.928 260.407 449.377 260.618 450.855C260.829 452.334 261.463 463.74 262.097 465.007C262.73 466.274 265.687 476.413 267.377 477.046C269.067 477.68 274.77 476.835 274.558 476.413C274.347 475.99 272.869 473.667 272.446 473.033L270.756 470.499L266.743 456.769L268.644 440.083C268.644 440.083 269.7 429.311 267.377 429.522Z" fill="#2F2E41"/>
<path d="M259.683 403.225H254.537C254.318 403.225 254.107 403.147 253.941 403.006C253.775 402.864 253.665 402.667 253.631 402.452L253.12 399.212H261.146L260.428 402.621C260.392 402.792 260.299 402.945 260.163 403.055C260.027 403.165 259.858 403.225 259.683 403.225Z" fill="#2F2E41"/>
<path d="M524.921 402.225H533.041V413.825C531.975 413.825 530.919 413.615 529.934 413.207C528.949 412.799 528.054 412.201 527.3 411.447C526.546 410.693 525.947 409.798 525.539 408.813C525.131 407.828 524.921 406.772 524.921 405.705V402.225Z" fill="#2F2E41"/>
<path d="M520.185 470.182L519.605 473.082H523.665L523.858 470.182H520.185Z" fill="#A0616A"/>
<path d="M520.185 472.502C520.185 472.502 519.411 471.922 519.025 472.309C518.638 472.696 517.285 480.236 517.091 480.429C516.898 480.622 511.098 483.522 512.451 483.716C513.805 483.909 519.025 484.102 519.798 483.716C520.571 483.329 522.698 479.656 522.698 479.656V482.942H523.085C523.085 482.942 523.471 479.462 524.438 478.496C525.405 477.529 523.665 474.242 523.665 474.242C523.665 474.242 524.051 472.116 523.858 472.116C523.665 472.116 520.185 472.502 520.185 472.502Z" fill="#A0616A"/>
<path d="M532.171 468.152L531.591 471.053H535.651L535.845 468.152H532.171Z" fill="#A0616A"/>
<path d="M527.531 449.302C527.531 449.302 529.465 455.102 529.851 455.682C530.238 456.262 531.591 467.089 531.591 467.089C531.591 467.089 530.238 469.216 531.978 469.409C533.718 469.602 532.945 469.022 534.105 469.409C534.42 469.528 534.759 469.573 535.094 469.539C535.429 469.506 535.753 469.395 536.038 469.216C536.038 469.216 536.618 468.056 536.231 467.669C535.845 467.282 536.618 457.229 536.618 457.229L535.458 453.749L534.491 442.729C534.491 442.729 535.651 439.829 535.071 439.056C534.491 438.282 532.558 439.636 532.558 439.636L527.531 449.302Z" fill="#2F2E41"/>
<path d="M525.018 434.222C525.018 434.222 524.438 440.409 524.051 440.796C523.665 441.182 519.411 452.009 519.411 452.009C519.411 452.009 518.251 453.362 518.638 458.389C519.025 463.416 519.991 468.442 519.991 468.442C519.991 468.442 519.218 471.342 520.571 471.342C521.925 471.342 522.505 470.569 523.085 471.149C523.665 471.729 524.051 471.149 524.245 470.762C524.438 470.376 525.211 469.022 525.211 468.636C525.211 468.249 525.985 458.389 525.985 458.389C525.985 458.389 532.365 444.276 532.945 443.502C533.525 442.729 536.811 438.476 536.618 435.576L525.018 434.222Z" fill="#2F2E41"/>
<path d="M529.851 408.122C532.094 408.122 533.911 406.304 533.911 404.062C533.911 401.82 532.094 400.002 529.851 400.002C527.609 400.002 525.791 401.82 525.791 404.062C525.791 406.304 527.609 408.122 529.851 408.122Z" fill="#A0616A"/>
<path d="M529.078 407.542C529.078 407.542 530.625 411.022 530.818 411.989C531.011 412.956 534.685 410.056 534.685 410.056C534.685 410.056 532.751 406.769 533.331 405.222L529.078 407.542Z" fill="#A0616A"/>
<path d="M535.265 409.475C535.265 409.475 532.365 407.349 530.238 411.795C528.111 416.242 527.531 416.049 527.531 416.049C527.531 416.049 525.018 416.822 525.791 422.235C526.565 427.649 523.278 434.802 524.631 435.189C525.985 435.575 538.551 437.702 538.551 436.155C538.551 434.609 537.391 428.615 538.358 424.942C539.325 421.269 537.005 408.509 535.265 409.475Z" fill="#3F3D56"/>
<path d="M532.365 410.442C532.365 410.442 530.045 413.922 530.238 416.629C530.431 419.335 530.431 421.075 530.431 421.075C530.431 421.075 526.565 439.635 527.338 439.635C528.111 439.635 530.431 440.602 530.625 440.022C530.818 439.442 535.651 427.649 535.651 427.649C535.651 427.649 536.811 415.855 535.458 413.149C534.105 410.442 532.365 410.442 532.365 410.442Z" fill="#3F3D56"/>
<path d="M527.725 439.056C527.725 439.056 525.791 445.629 528.498 445.822C531.205 446.016 529.658 439.442 529.658 439.442L527.725 439.056Z" fill="#A0616A"/>
<path d="M532.87 469.547C532.87 469.547 532.193 469.039 531.854 469.377C531.516 469.716 530.331 476.319 530.161 476.488C529.992 476.658 524.913 479.197 526.098 479.366C527.283 479.536 531.854 479.705 532.532 479.366C533.209 479.028 535.071 475.811 535.071 475.811V478.689H535.41C535.41 478.689 535.749 475.642 536.595 474.795C537.442 473.949 535.918 471.07 535.918 471.07C535.918 471.07 536.256 469.208 536.087 469.208C535.918 469.208 532.87 469.547 532.87 469.547Z" fill="#A0616A"/>
<path d="M527.844 401.402C527.973 401.244 528.142 401.125 528.333 401.055C528.512 401.023 528.696 401.039 528.867 401.101C530.079 401.455 531.131 402.22 531.841 403.264C531.979 403.53 532.186 403.754 532.44 403.912C532.606 403.962 532.768 404.024 532.924 404.097C533.377 404.396 533.107 405.088 532.847 405.564C532.182 406.786 531.875 408.172 531.961 409.561C531.955 409.803 532.026 410.04 532.164 410.239C532.383 410.441 532.669 410.555 532.967 410.559C533.906 410.677 534.851 410.728 535.797 410.711C536.722 410.694 537.749 410.563 538.348 409.858C538.993 409.1 538.892 407.939 538.473 407.037C538.053 406.134 537.371 405.38 536.887 404.511C536.428 403.593 536.065 402.629 535.805 401.636C535.47 400.368 534.93 399.163 534.207 398.07C533.842 397.525 533.368 397.061 532.816 396.707C532.264 396.353 531.645 396.116 530.997 396.012C529.241 395.816 527.621 396.898 526.21 397.961C524.624 399.154 522.938 400.631 522.81 402.611C522.707 404.216 523.67 405.667 524.174 407.194C524.951 409.551 524.625 412.111 524.292 414.57C525.723 413.713 527.343 412.522 527.249 410.856C527.185 409.732 526.337 408.835 525.809 407.841C524.358 405.106 526.013 403.273 527.844 401.402Z" fill="#2F2E41"/>
<path d="M584.939 421.162C586.167 419.017 586.802 416.584 586.778 414.113C586.778 407.742 582.833 402.577 577.966 402.577C573.1 402.577 569.155 407.742 569.155 414.113C569.13 416.584 569.765 419.017 570.994 421.162C569.788 423.316 569.155 425.743 569.155 428.211C569.155 430.68 569.788 433.107 570.994 435.26C569.788 437.414 569.155 439.841 569.155 442.31C569.155 444.778 569.788 447.205 570.994 449.359C569.788 451.513 569.155 453.94 569.155 456.408C569.155 458.877 569.788 461.304 570.994 463.458C569.765 465.602 569.13 468.035 569.155 470.507C569.155 476.878 573.1 482.042 577.966 482.042C582.833 482.042 586.778 476.878 586.778 470.507C586.802 468.035 586.167 465.602 584.939 463.458C586.145 461.304 586.778 458.877 586.778 456.408C586.778 453.94 586.145 451.513 584.939 449.359C586.145 447.205 586.778 444.778 586.778 442.31C586.778 439.841 586.145 437.414 584.939 435.26C586.145 433.107 586.778 430.68 586.778 428.211C586.778 425.743 586.145 423.316 584.939 421.162Z" fill="#3F3D56"/>
<path d="M577.966 411.549C582.833 411.549 586.778 406.385 586.778 400.014C586.778 393.643 582.833 388.479 577.966 388.479C573.1 388.479 569.155 393.643 569.155 400.014C569.155 406.385 573.1 411.549 577.966 411.549Z" fill="#3F3D56"/>
<path d="M577.966 397.451C582.833 397.451 586.778 392.286 586.778 385.916C586.778 379.545 582.833 374.38 577.966 374.38C573.1 374.38 569.155 379.545 569.155 385.916C569.155 392.286 573.1 397.451 577.966 397.451Z" fill="#3F3D56"/>
<path d="M610.952 289.434C612.156 287.902 613.253 286.288 614.234 284.604L591.081 280.801L616.122 280.988C618.524 275.761 619.834 270.099 619.973 264.349C620.111 258.598 619.075 252.88 616.928 247.544L583.332 264.972L614.315 242.197C611.412 237.181 607.508 232.817 602.845 229.375C598.182 225.934 592.86 223.49 587.212 222.195C581.563 220.9 575.708 220.783 570.012 221.849C564.315 222.916 558.9 225.144 554.102 228.395C549.305 231.646 545.228 235.85 542.126 240.745C539.024 245.64 536.963 251.121 536.072 256.848C535.181 262.574 535.478 268.422 536.946 274.029C538.413 279.635 541.02 284.879 544.602 289.434C542.726 291.82 541.112 294.4 539.789 297.132L569.843 312.746L537.797 301.991C535.547 308.642 534.99 315.75 536.179 322.671C537.367 329.591 540.262 336.107 544.602 341.627C539.705 347.853 536.659 355.331 535.812 363.206C534.964 371.082 536.35 379.037 539.811 386.162C543.272 393.287 548.668 399.294 555.381 403.497C562.095 407.7 569.856 409.929 577.777 409.929C585.698 409.929 593.459 407.7 600.173 403.497C606.887 399.294 612.283 393.287 615.744 386.162C619.204 379.037 620.59 371.082 619.743 363.206C618.896 355.331 615.849 347.853 610.952 341.627C616.804 334.187 619.985 324.996 619.985 315.531C619.985 306.065 616.804 296.874 610.952 289.434V289.434Z" fill="white"/>
<path d="M535.57 315.53C535.555 324.998 538.738 334.194 544.602 341.627C539.705 347.852 536.659 355.331 535.812 363.206C534.965 371.082 536.35 379.036 539.811 386.161C543.272 393.286 548.668 399.294 555.381 403.497C562.095 407.7 569.856 409.929 577.777 409.929C585.698 409.929 593.459 407.7 600.173 403.497C606.887 399.294 612.283 393.286 615.744 386.161C619.204 379.036 620.59 371.082 619.743 363.206C618.896 355.331 615.849 347.852 610.952 341.627C616.61 334.445 535.57 310.793 535.57 315.53Z" fill="white"/>
<path d="M610.952 289.434C612.156 287.902 613.253 286.288 614.234 284.604L591.081 280.801L616.122 280.988C618.524 275.761 619.834 270.099 619.973 264.349C620.111 258.598 619.075 252.88 616.928 247.544L583.332 264.972L614.315 242.197C611.412 237.181 607.508 232.817 602.845 229.375C598.182 225.934 592.86 223.49 587.212 222.195C581.563 220.9 575.708 220.783 570.012 221.849C564.315 222.916 558.9 225.144 554.102 228.395C549.305 231.646 545.228 235.85 542.126 240.745C539.024 245.64 536.963 251.121 536.072 256.848C535.181 262.574 535.478 268.422 536.946 274.029C538.413 279.635 541.02 284.879 544.602 289.434C542.726 291.82 541.112 294.4 539.789 297.132L569.843 312.746L537.797 301.991C535.547 308.642 534.99 315.75 536.179 322.671C537.367 329.591 540.262 336.107 544.602 341.627C539.705 347.853 536.659 355.331 535.812 363.206C534.964 371.082 536.35 379.037 539.811 386.162C543.272 393.287 548.668 399.294 555.381 403.497C562.095 407.7 569.856 409.929 577.777 409.929C585.698 409.929 593.459 407.7 600.173 403.497C606.887 399.294 612.283 393.287 615.744 386.162C619.204 379.037 620.59 371.082 619.743 363.206C618.896 355.331 615.849 347.853 610.952 341.627C616.804 334.187 619.985 324.996 619.985 315.531C619.985 306.065 616.804 296.874 610.952 289.434V289.434Z" fill="#26C967"/>
<path opacity="0.1" d="M535.57 315.53C535.555 324.998 538.738 334.194 544.602 341.627C539.705 347.852 536.659 355.331 535.812 363.206C534.965 371.082 536.35 379.036 539.811 386.161C543.272 393.286 548.668 399.294 555.381 403.497C562.095 407.7 569.856 409.929 577.777 409.929C585.698 409.929 593.459 407.7 600.173 403.497C606.887 399.294 612.283 393.286 615.744 386.161C619.204 379.036 620.59 371.082 619.743 363.206C618.896 355.331 615.849 347.852 610.952 341.627C616.61 334.445 535.57 310.793 535.57 315.53Z" fill="white"/>
<path d="M141.369 421.162C142.598 419.017 143.233 416.584 143.208 414.113C143.208 407.742 139.263 402.577 134.397 402.577C129.53 402.577 125.585 407.742 125.585 414.113C125.561 416.584 126.195 419.017 127.424 421.162C126.218 423.316 125.585 425.743 125.585 428.211C125.585 430.68 126.218 433.107 127.424 435.26C126.218 437.414 125.585 439.841 125.585 442.31C125.585 444.778 126.218 447.205 127.424 449.359C126.218 451.513 125.585 453.94 125.585 456.408C125.585 458.877 126.218 461.304 127.424 463.458C126.195 465.602 125.561 468.035 125.585 470.507C125.585 476.878 129.53 482.042 134.397 482.042C139.263 482.042 143.208 476.878 143.208 470.507C143.233 468.035 142.598 465.602 141.369 463.458C142.575 461.304 143.208 458.877 143.208 456.408C143.208 453.94 142.575 451.513 141.369 449.359C142.575 447.205 143.208 444.778 143.208 442.31C143.208 439.841 142.575 437.414 141.369 435.26C142.575 433.107 143.208 430.68 143.208 428.211C143.208 425.743 142.575 423.316 141.369 421.162Z" fill="#3F3D56"/>
<path d="M134.397 411.549C139.263 411.549 143.208 406.385 143.208 400.014C143.208 393.643 139.263 388.479 134.397 388.479C129.53 388.479 125.585 393.643 125.585 400.014C125.585 406.385 129.53 411.549 134.397 411.549Z" fill="#3F3D56"/>
<path d="M134.397 397.451C139.263 397.451 143.208 392.286 143.208 385.916C143.208 379.545 139.263 374.38 134.397 374.38C129.53 374.38 125.585 379.545 125.585 385.916C125.585 392.286 129.53 397.451 134.397 397.451Z" fill="#3F3D56"/>
<path d="M167.383 289.434C168.587 287.902 169.683 286.288 170.664 284.604L147.511 280.801L172.552 280.988C174.954 275.761 176.265 270.099 176.403 264.349C176.542 258.598 175.506 252.88 173.358 247.544L139.763 264.972L170.745 242.197C167.843 237.181 163.938 232.817 159.275 229.375C154.612 225.934 149.291 223.49 143.642 222.195C137.993 220.9 132.138 220.783 126.442 221.849C120.746 222.916 115.33 225.144 110.533 228.395C105.735 231.646 101.658 235.85 98.5562 240.745C95.4542 245.64 93.3934 251.121 92.5021 256.848C91.6109 262.574 91.9084 268.422 93.376 274.029C94.8437 279.635 97.45 284.879 101.033 289.434C99.1562 291.82 97.5424 294.4 96.2191 297.132L126.274 312.746L94.2271 301.991C91.9769 308.642 91.4208 315.75 92.6091 322.671C93.7974 329.591 96.6926 336.107 101.033 341.627C96.1357 347.853 93.0894 355.331 92.2422 363.206C91.3949 371.082 92.7808 379.037 96.2415 386.162C99.7022 393.287 105.098 399.294 111.812 403.497C118.526 407.7 126.287 409.929 134.208 409.929C142.129 409.929 149.89 407.7 156.604 403.497C163.318 399.294 168.713 393.287 172.174 386.162C175.635 379.037 177.021 371.082 176.173 363.206C175.326 355.331 172.28 347.853 167.383 341.627C173.234 334.187 176.415 324.996 176.415 315.531C176.415 306.065 173.234 296.874 167.383 289.434L167.383 289.434Z" fill="white"/>
<path d="M92 315.53C91.9854 324.998 95.1682 334.194 101.033 341.627C96.1357 347.852 93.0894 355.331 92.2421 363.206C91.3949 371.082 92.7808 379.036 96.2415 386.161C99.7021 393.286 105.098 399.294 111.812 403.497C118.526 407.7 126.287 409.929 134.208 409.929C142.129 409.929 149.89 407.7 156.604 403.497C163.318 399.294 168.713 393.286 172.174 386.161C175.635 379.036 177.021 371.082 176.173 363.206C175.326 355.331 172.28 347.852 167.383 341.627C173.04 334.445 92 310.793 92 315.53Z" fill="white"/>
<path d="M167.383 289.434C168.587 287.902 169.683 286.288 170.664 284.604L147.511 280.801L172.552 280.988C174.954 275.761 176.265 270.099 176.403 264.349C176.542 258.598 175.506 252.88 173.358 247.544L139.763 264.972L170.745 242.197C167.843 237.181 163.938 232.817 159.275 229.375C154.612 225.934 149.291 223.49 143.642 222.195C137.993 220.9 132.138 220.783 126.442 221.849C120.746 222.916 115.33 225.144 110.533 228.395C105.735 231.646 101.658 235.85 98.5562 240.745C95.4542 245.64 93.3934 251.121 92.5021 256.848C91.6109 262.574 91.9084 268.422 93.376 274.029C94.8437 279.635 97.45 284.879 101.033 289.434C99.1562 291.82 97.5424 294.4 96.2191 297.132L126.274 312.746L94.2271 301.991C91.9769 308.642 91.4208 315.75 92.6091 322.671C93.7974 329.591 96.6926 336.107 101.033 341.627C96.1357 347.853 93.0894 355.331 92.2422 363.206C91.3949 371.082 92.7808 379.037 96.2415 386.162C99.7022 393.287 105.098 399.294 111.812 403.497C118.526 407.7 126.287 409.929 134.208 409.929C142.129 409.929 149.89 407.7 156.604 403.497C163.318 399.294 168.713 393.287 172.174 386.162C175.635 379.037 177.021 371.082 176.173 363.206C175.326 355.331 172.28 347.853 167.383 341.627C173.234 334.187 176.415 324.996 176.415 315.531C176.415 306.065 173.234 296.874 167.383 289.434L167.383 289.434Z" fill="#26C967"/>
<path opacity="0.1" d="M92 315.53C91.9854 324.998 95.1682 334.194 101.033 341.627C96.1357 347.852 93.0894 355.331 92.2421 363.206C91.3949 371.082 92.7808 379.036 96.2415 386.161C99.7021 393.286 105.098 399.294 111.812 403.497C118.526 407.7 126.287 409.929 134.208 409.929C142.129 409.929 149.89 407.7 156.604 403.497C163.318 399.294 168.713 393.286 172.174 386.161C175.635 379.036 177.021 371.082 176.173 363.206C175.326 355.331 172.28 347.852 167.383 341.627C173.04 334.445 92 310.793 92 315.53Z" fill="white"/>
<path d="M396.174 287.119L375.232 308.061L365.309 298.139L361.446 302.002L375.218 315.775L400.038 290.982L396.174 287.119Z" fill="#26C967"/>
<path d="M462.841 239.35L441.898 260.292L431.975 250.37L428.112 254.233L441.885 268.006L466.704 243.213L462.841 239.35Z" fill="#26C967"/>
</g>
<defs>
<clipPath id="clip0">
<rect width="528.51" height="400" fill="white" transform="translate(92 101)"/>
</clipPath>
</defs>
</svg>
