<svg width="382" height="414" viewBox="0 0 382 414" fill="none" xmlns="http://www.w3.org/2000/svg">
<g filter="url(#filter0_d)">
<path d="M60.163 393.741L67.3799 395.764L78.5975 368.812L67.9462 365.826L60.163 393.741Z" fill="#FFB8B8"/>
<path d="M79.4254 406.387L56.7428 400.028L59.193 391.239L73.989 395.388C76.0806 395.974 77.8543 397.37 78.9198 399.268C79.9853 401.165 80.2554 403.41 79.6706 405.507L79.4254 406.387Z" fill="#2F2E41"/>
<path d="M146.253 399.409L153.747 399.408L157.311 370.422L146.251 370.423L146.253 399.409Z" fill="#FFB8B8"/>
<path d="M168.2 406.385L144.648 406.387L144.647 397.262L160.011 397.26C161.086 397.26 162.151 397.473 163.144 397.885C164.138 398.298 165.041 398.903 165.801 399.665C166.562 400.428 167.165 401.333 167.577 402.329C167.988 403.325 168.2 404.393 168.2 405.472L168.2 406.385Z" fill="#2F2E41"/>
<path d="M90.5649 279.07L73.3161 321.443L143.749 337.31L144.647 313.603L112.665 279.443L90.5649 279.07Z" fill="#B3B3B3"/>
<path d="M128.779 213.061C136.581 208.784 139.449 198.974 135.184 191.15C130.919 183.326 121.136 180.451 113.334 184.728C105.532 189.005 102.665 198.814 106.93 206.638C111.195 214.462 120.977 217.338 128.779 213.061Z" fill="#FFB8B8"/>
<path d="M132.561 276.725L100.68 263.638L97.8414 244.87C97.0055 239.384 98.3108 233.786 101.486 229.24C104.661 224.695 109.461 221.552 114.888 220.465L119.105 219.616C122.569 218.92 126.15 219.083 129.537 220.091C132.924 221.098 136.015 222.919 138.541 225.396C141.015 227.767 142.865 230.715 143.926 233.977C144.987 237.24 145.225 240.715 144.621 244.092C144.144 246.986 142.974 249.72 141.21 252.06C131.195 265.194 132.481 276.111 132.495 276.22L132.561 276.725Z" fill="#2D7CBF"/>
<path d="M145.542 325.671L129.564 300.19L134.597 253.84L127.645 219.174L128.015 219.183C132.058 219.283 135.908 220.939 138.767 223.808C141.627 226.676 143.276 230.538 143.374 234.592L150.137 268.561L145.542 325.671Z" fill="#2F2E41"/>
<path d="M145.907 393.929C145.233 393.928 144.581 393.694 144.06 393.266C143.539 392.838 143.182 392.243 143.049 391.58L136.049 356.676C134.771 350.281 132.363 344.167 128.94 338.621L109.189 306.582C109.091 306.423 108.951 306.293 108.784 306.209C108.617 306.124 108.43 306.087 108.244 306.102C108.058 306.117 107.879 306.183 107.728 306.293C107.577 306.404 107.459 306.553 107.387 306.726L74.9145 384.951C74.6535 385.577 74.1844 386.092 73.5872 386.409C72.9899 386.727 72.3014 386.827 71.6388 386.693L62.9641 384.92C62.221 384.771 61.5652 384.337 61.1368 383.71C60.7084 383.083 60.5412 382.313 60.671 381.564L67.7475 339.743C69.1911 331.219 71.6507 322.899 75.0736 314.964L99.0396 259.421L134.407 271.069L136.741 295.903L153.083 335.584C154.212 338.324 154.887 341.231 155.081 344.19L158.1 390.05C158.147 390.815 157.894 391.568 157.395 392.149C156.895 392.73 156.189 393.092 155.427 393.158L146.147 393.919C146.066 393.926 145.986 393.929 145.907 393.929Z" fill="#2F2E41"/>
<path d="M81.3873 337.034L70.1747 326.362L91.3649 244.422C92.7093 239.27 95.23 234.502 98.7277 230.495C102.225 226.488 106.604 223.351 111.519 221.333L111.935 221.163L110.803 271.034L81.3873 337.034Z" fill="#2F2E41"/>
<path d="M117.305 214.981C113.327 211.529 112.117 205.089 114.555 200.34C116.992 195.592 122.819 193.036 127.803 194.53C132.496 195.936 137.831 191.244 137.259 186.213C136.687 181.182 130.447 177.905 126.197 180.404C122.979 179.109 119.456 178.774 116.053 179.439C112.649 180.103 109.509 181.74 107.011 184.152C102.019 189.056 100.125 197.074 102.366 203.815C104.607 210.557 110.863 215.661 117.305 214.981Z" fill="#2F2E41"/>
<path d="M103.221 346.197C103.024 346.272 102.82 346.325 102.611 346.354L77.0122 349.938C76.3929 350.027 75.7619 349.901 75.2229 349.583C74.684 349.264 74.2692 348.771 74.0468 348.185L52.0123 290.689C51.8696 290.317 51.8086 289.918 51.8335 289.52C51.8583 289.122 51.9685 288.734 52.1564 288.383C52.3443 288.031 52.6055 287.725 52.9223 287.484C53.2391 287.243 53.604 287.073 53.9922 286.986L53.9923 286.986L78.0654 281.599C78.2512 281.557 78.4308 281.491 78.5997 281.403L102.014 269.127C102.195 269.032 102.386 268.957 102.583 268.905L128.351 262.016C129.011 261.839 129.713 261.913 130.322 262.224C130.931 262.535 131.403 263.062 131.647 263.702L150.859 313.834C151.028 314.271 151.083 314.744 151.02 315.208C150.956 315.672 150.776 316.112 150.496 316.487L143.851 325.435C143.539 325.856 143.113 326.179 142.625 326.367L128.103 331.963C127.999 332.003 127.899 332.052 127.802 332.107L103.604 346.014C103.481 346.085 103.353 346.146 103.221 346.197Z" fill="white"/>
<path d="M115.13 269.681L111.858 270.556L103.187 272.875L103.172 272.879L91.2998 279.103L86.8942 281.414L86.8921 281.415L80.2752 284.884L80.0938 284.925L73.22 286.462L69.8978 287.207L56.3481 290.239L77.6195 345.743L91.5824 343.789L95.006 343.309L102.303 342.286L102.388 342.275L125.836 328.799L140.103 323.301L146.616 314.53L128.1 266.214L115.13 269.681Z" fill="#E6E6E6"/>
<path d="M131.151 274.174L60.6099 301.359L61.8179 304.511L132.359 277.326L131.151 274.174Z" fill="white"/>
<path d="M135.177 284.681L64.6367 311.866L65.8447 315.018L136.385 287.833L135.177 284.681Z" fill="white"/>
<path d="M143.311 305.905L72.7706 333.09L73.9786 336.242L144.519 309.058L143.311 305.905Z" fill="white"/>
<path d="M115.13 269.681L136.249 324.786L133.106 325.997L111.858 270.556L115.13 269.681Z" fill="white"/>
<path d="M91.2999 279.104L86.9635 291.203L85.4599 295.4L81.9523 305.193L81.2008 307.287L80.4486 309.39L79.4582 312.152L72.3493 331.992L70.5011 327.169L76.2975 310.99L77.6088 307.328L77.8012 306.793L79.352 302.462L81.3087 297L82.8124 292.803L86.8922 281.415L86.8939 281.414L91.2999 279.104Z" fill="white"/>
<path opacity="0.1" d="M126.347 328.602L125.836 328.799L102.388 342.276L102.303 342.286L80.0936 284.924L80.2753 284.883L86.8922 281.415L86.894 281.414L91.3 279.103L103.172 272.879L103.187 272.875L126.347 328.602Z" fill="black"/>
<path d="M103.326 346.473C103.109 346.557 102.883 346.615 102.652 346.648L77.0529 350.231C76.3676 350.329 75.6693 350.191 75.073 349.838C74.4766 349.486 74.0176 348.94 73.7715 348.291L51.7369 290.796C51.5791 290.384 51.5116 289.942 51.5391 289.502C51.5667 289.062 51.6886 288.632 51.8965 288.243C52.1044 287.854 52.3935 287.515 52.7441 287.248C53.0947 286.981 53.4984 286.794 53.9279 286.697L78.001 281.31C78.1616 281.274 78.3169 281.217 78.463 281.141L101.877 268.865C102.078 268.76 102.289 268.677 102.507 268.619L128.275 261.731C129.005 261.534 129.782 261.616 130.456 261.96C131.13 262.305 131.652 262.888 131.922 263.596L151.135 313.728C151.321 314.212 151.382 314.735 151.312 315.248C151.242 315.762 151.042 316.249 150.732 316.664L144.088 325.611C143.742 326.077 143.271 326.435 142.73 326.643L128.209 332.24C128.119 332.274 128.032 332.316 127.948 332.364L103.751 346.271C103.615 346.349 103.473 346.417 103.326 346.473ZM53.9193 287.933C53.4536 288.112 53.0781 288.47 52.8754 288.927C52.6726 289.385 52.6593 289.904 52.8382 290.371L74.8728 347.867C75.024 348.266 75.3062 348.601 75.6728 348.818C76.0394 349.034 76.4686 349.12 76.8898 349.059L102.489 345.476C102.727 345.442 102.956 345.364 103.165 345.244L127.362 331.337C127.498 331.259 127.64 331.192 127.786 331.135L142.307 325.539C142.64 325.411 142.929 325.191 143.142 324.905L149.786 315.957C149.977 315.702 150.099 315.403 150.142 315.087C150.186 314.771 150.148 314.45 150.033 314.153L130.821 264.02C130.655 263.585 130.334 263.227 129.92 263.015C129.506 262.803 129.028 262.753 128.579 262.874L102.811 269.762C102.677 269.798 102.548 269.849 102.424 269.913L79.0097 282.189C78.7721 282.313 78.5195 282.406 78.2582 282.465L54.185 287.852C54.0946 287.872 54.0058 287.899 53.9193 287.933Z" fill="#E6E6E6"/>
<path d="M73.22 286.462L95.0057 343.309L91.5825 343.789L69.8976 287.207L73.22 286.462Z" fill="white"/>
<path d="M79.4858 309.408C80.3537 309.408 81.0573 308.702 81.0573 307.832C81.0573 306.961 80.3537 306.256 79.4858 306.256C78.6179 306.256 77.9143 306.961 77.9143 307.832C77.9143 308.702 78.6179 309.408 79.4858 309.408Z" fill="#3F3D56"/>
<path d="M135.205 311.088C136.073 311.088 136.777 310.382 136.777 309.512C136.777 308.641 136.073 307.936 135.205 307.936C134.337 307.936 133.634 308.641 133.634 309.512C133.634 310.382 134.337 311.088 135.205 311.088Z" fill="#2D7CBF"/>
<path d="M135.841 281.049C137.625 285.703 135.479 301.125 134.724 306.076C134.7 306.233 134.635 306.381 134.536 306.505C134.437 306.629 134.307 306.724 134.159 306.781C134.011 306.838 133.851 306.854 133.694 306.829C133.538 306.804 133.391 306.738 133.268 306.637C129.402 303.468 117.508 293.456 115.724 288.802C115.216 287.477 114.974 286.065 115.01 284.647C115.047 283.228 115.362 281.831 115.937 280.534C116.512 279.237 117.336 278.067 118.362 277.09C119.388 276.113 120.596 275.348 121.917 274.839C123.238 274.329 124.646 274.086 126.061 274.123C127.475 274.159 128.869 274.475 130.162 275.052C131.455 275.629 132.622 276.455 133.596 277.484C134.571 278.513 135.334 279.724 135.841 281.049V281.049Z" fill="#2D7CBF"/>
<path d="M125.783 290.778C129.006 290.778 131.62 288.158 131.62 284.925C131.62 281.693 129.006 279.072 125.783 279.072C122.559 279.072 119.946 281.693 119.946 284.925C119.946 288.158 122.559 290.778 125.783 290.778Z" fill="white"/>
<path d="M118.285 272.296C118.521 271.426 118.945 270.619 119.526 269.932C120.107 269.244 120.831 268.693 121.647 268.316C122.463 267.94 123.352 267.747 124.251 267.752C125.149 267.757 126.036 267.96 126.848 268.346L137.268 258.901L144.536 263.85L129.635 276.982C128.898 278.307 127.702 279.315 126.273 279.815C124.845 280.315 123.283 280.272 121.884 279.694C120.485 279.116 119.346 278.044 118.683 276.681C118.019 275.317 117.878 273.757 118.285 272.296Z" fill="#FFB8B8"/>
<path d="M135.075 275.378L126.907 264.263L145.528 252.312L132.181 233.214C131.091 231.654 130.613 229.745 130.839 227.853C131.064 225.961 131.978 224.219 133.405 222.961C134.832 221.703 136.672 221.017 138.572 221.034C140.472 221.052 142.299 221.772 143.702 223.056L160.414 238.345C162.005 239.802 163.241 241.607 164.023 243.62C164.805 245.634 165.113 247.801 164.923 249.953C164.733 252.106 164.05 254.185 162.927 256.029C161.804 257.874 160.272 259.433 158.45 260.586L135.075 275.378Z" fill="#2F2E41"/>
<path d="M71.0814 304.544C71.8197 304.031 72.4368 303.361 72.8892 302.582C73.3415 301.804 73.6181 300.935 73.6995 300.038C73.7809 299.14 73.665 298.236 73.3601 297.388C73.0552 296.541 72.5687 295.77 71.9348 295.131L77.3342 282.128L70.2544 276.911L62.8867 295.381C61.8872 296.52 61.3391 297.987 61.3463 299.504C61.3534 301.021 61.9152 302.483 62.9253 303.613C63.9355 304.742 65.3236 305.461 66.8268 305.633C68.3301 305.804 69.8439 305.417 71.0814 304.544V304.544Z" fill="#FFB8B8"/>
<path d="M74.7295 291.341L61.9603 288.359L71.4759 260.843C73.1157 256.095 75.5349 251.656 78.6335 247.707L94.1575 227.912C95.5773 226.101 97.6548 224.928 99.9351 224.651C102.215 224.373 104.512 225.013 106.323 226.43C108.134 227.847 109.311 229.927 109.595 232.212C109.88 234.498 109.25 236.803 107.843 238.624L90.6174 260.919L74.7295 291.341Z" fill="#2F2E41"/>
<path d="M230.343 407H5.5899C5.43345 407 5.2834 406.938 5.17277 406.827C5.06214 406.716 5 406.565 5 406.408C5 406.252 5.06214 406.101 5.17277 405.99C5.2834 405.879 5.43345 405.817 5.5899 405.817H230.343C230.5 405.817 230.65 405.879 230.76 405.99C230.871 406.101 230.933 406.252 230.933 406.408C230.933 406.565 230.871 406.716 230.76 406.827C230.65 406.938 230.5 407 230.343 407Z" fill="#2D7CBF"/>
<path d="M317.523 406.704H312.214V94.662C312.214 93.956 312.494 93.2789 312.992 92.7797C313.49 92.2805 314.165 92 314.869 92C315.573 92 316.248 92.2805 316.746 92.7797C317.244 93.2789 317.523 93.956 317.523 94.662V406.704Z" fill="#E6E6E6"/>
<path d="M355.993 407H273.406C273.25 407 273.1 406.938 272.989 406.827C272.878 406.716 272.816 406.565 272.816 406.408C272.816 406.252 272.878 406.101 272.989 405.99C273.1 405.879 273.25 405.817 273.406 405.817H355.993C356.149 405.817 356.299 405.879 356.41 405.99C356.52 406.101 356.582 406.252 356.582 406.408C356.582 406.565 356.52 406.716 356.41 406.827C356.299 406.938 356.149 407 355.993 407Z" fill="#2D7CBF"/>
<path d="M354.363 132.817H277.115C276.411 132.816 275.736 132.535 275.239 132.036C274.741 131.537 274.461 130.861 274.46 130.155V107.676C274.461 106.97 274.741 106.294 275.239 105.795C275.736 105.296 276.411 105.015 277.115 105.014H354.368C354.821 105.014 355.267 105.131 355.662 105.352L375.639 116.531C376.051 116.762 376.394 117.098 376.633 117.506C376.872 117.913 376.999 118.377 377 118.85C377.001 119.323 376.876 119.787 376.639 120.196C376.402 120.605 376.06 120.942 375.649 121.175L355.667 132.474C355.269 132.698 354.82 132.817 354.363 132.817Z" fill="#2D7CBF"/>
<path d="M347.314 181.324H270.066C269.609 181.324 269.16 181.205 268.762 180.981L248.779 169.682C248.369 169.449 248.027 169.112 247.79 168.703C247.552 168.294 247.428 167.83 247.429 167.357C247.43 166.884 247.556 166.42 247.795 166.013C248.035 165.605 248.378 165.269 248.79 165.038L268.767 153.859C269.162 153.638 269.607 153.521 270.06 153.521H347.314C348.017 153.522 348.692 153.803 349.19 154.302C349.687 154.801 349.967 155.477 349.968 156.183V178.662C349.967 179.368 349.687 180.044 349.19 180.543C348.692 181.042 348.017 181.323 347.314 181.324Z" fill="#E6E6E6"/>
<path d="M347.608 228.944H270.361C269.904 228.943 269.455 228.825 269.057 228.601L249.074 217.301C248.664 217.069 248.322 216.731 248.084 216.323C247.847 215.914 247.722 215.45 247.724 214.977C247.725 214.504 247.851 214.04 248.09 213.632C248.33 213.225 248.673 212.889 249.085 212.658L269.061 201.478C269.457 201.257 269.902 201.141 270.355 201.141H347.608C348.312 201.142 348.987 201.422 349.485 201.921C349.982 202.42 350.262 203.097 350.263 203.803V226.282C350.262 226.987 349.982 227.664 349.485 228.163C348.987 228.662 348.312 228.943 347.608 228.944Z" fill="#E6E6E6"/>
<path d="M301.66 123H299.266L295.262 116.938V123H292.868V113.172H295.262L299.266 119.262V113.172H301.66V123ZM302.919 119.08C302.919 118.277 303.069 117.573 303.367 116.966C303.675 116.359 304.091 115.893 304.613 115.566C305.136 115.239 305.719 115.076 306.363 115.076C306.914 115.076 307.395 115.188 307.805 115.412C308.225 115.636 308.547 115.93 308.771 116.294V115.188H311.165V123H308.771V121.894C308.538 122.258 308.211 122.552 307.791 122.776C307.381 123 306.9 123.112 306.349 123.112C305.715 123.112 305.136 122.949 304.613 122.622C304.091 122.286 303.675 121.815 303.367 121.208C303.069 120.592 302.919 119.883 302.919 119.08ZM308.771 119.094C308.771 118.497 308.603 118.025 308.267 117.68C307.941 117.335 307.539 117.162 307.063 117.162C306.587 117.162 306.181 117.335 305.845 117.68C305.519 118.016 305.355 118.483 305.355 119.08C305.355 119.677 305.519 120.153 305.845 120.508C306.181 120.853 306.587 121.026 307.063 121.026C307.539 121.026 307.941 120.853 308.267 120.508C308.603 120.163 308.771 119.691 308.771 119.094ZM315.865 115.076C316.416 115.076 316.897 115.188 317.307 115.412C317.727 115.636 318.049 115.93 318.273 116.294V115.188H320.667V122.986C320.667 123.705 320.523 124.353 320.233 124.932C319.953 125.52 319.519 125.987 318.931 126.332C318.353 126.677 317.629 126.85 316.761 126.85C315.604 126.85 314.666 126.575 313.947 126.024C313.229 125.483 312.818 124.745 312.715 123.812H315.081C315.156 124.111 315.333 124.344 315.613 124.512C315.893 124.689 316.239 124.778 316.649 124.778C317.144 124.778 317.536 124.633 317.825 124.344C318.124 124.064 318.273 123.611 318.273 122.986V121.88C318.04 122.244 317.718 122.543 317.307 122.776C316.897 123 316.416 123.112 315.865 123.112C315.221 123.112 314.638 122.949 314.115 122.622C313.593 122.286 313.177 121.815 312.869 121.208C312.571 120.592 312.421 119.883 312.421 119.08C312.421 118.277 312.571 117.573 312.869 116.966C313.177 116.359 313.593 115.893 314.115 115.566C314.638 115.239 315.221 115.076 315.865 115.076ZM318.273 119.094C318.273 118.497 318.105 118.025 317.769 117.68C317.443 117.335 317.041 117.162 316.565 117.162C316.089 117.162 315.683 117.335 315.347 117.68C315.021 118.016 314.857 118.483 314.857 119.08C314.857 119.677 315.021 120.153 315.347 120.508C315.683 120.853 316.089 121.026 316.565 121.026C317.041 121.026 317.443 120.853 317.769 120.508C318.105 120.163 318.273 119.691 318.273 119.094ZM321.923 119.08C321.923 118.277 322.073 117.573 322.371 116.966C322.679 116.359 323.095 115.893 323.617 115.566C324.14 115.239 324.723 115.076 325.367 115.076C325.918 115.076 326.399 115.188 326.809 115.412C327.229 115.636 327.551 115.93 327.775 116.294V115.188H330.169V123H327.775V121.894C327.542 122.258 327.215 122.552 326.795 122.776C326.385 123 325.904 123.112 325.353 123.112C324.719 123.112 324.14 122.949 323.617 122.622C323.095 122.286 322.679 121.815 322.371 121.208C322.073 120.592 321.923 119.883 321.923 119.08ZM327.775 119.094C327.775 118.497 327.607 118.025 327.271 117.68C326.945 117.335 326.543 117.162 326.067 117.162C325.591 117.162 325.185 117.335 324.849 117.68C324.523 118.016 324.359 118.483 324.359 119.08C324.359 119.677 324.523 120.153 324.849 120.508C325.185 120.853 325.591 121.026 326.067 121.026C326.543 121.026 326.945 120.853 327.271 120.508C327.607 120.163 327.775 119.691 327.775 119.094ZM335.457 123.112C334.692 123.112 334.001 122.949 333.385 122.622C332.779 122.295 332.298 121.829 331.943 121.222C331.598 120.615 331.425 119.906 331.425 119.094C331.425 118.291 331.603 117.587 331.957 116.98C332.312 116.364 332.797 115.893 333.413 115.566C334.029 115.239 334.72 115.076 335.485 115.076C336.251 115.076 336.941 115.239 337.557 115.566C338.173 115.893 338.659 116.364 339.013 116.98C339.368 117.587 339.545 118.291 339.545 119.094C339.545 119.897 339.363 120.606 338.999 121.222C338.645 121.829 338.155 122.295 337.529 122.622C336.913 122.949 336.223 123.112 335.457 123.112ZM335.457 121.04C335.915 121.04 336.302 120.872 336.619 120.536C336.946 120.2 337.109 119.719 337.109 119.094C337.109 118.469 336.951 117.988 336.633 117.652C336.325 117.316 335.943 117.148 335.485 117.148C335.019 117.148 334.631 117.316 334.323 117.652C334.015 117.979 333.861 118.459 333.861 119.094C333.861 119.719 334.011 120.2 334.309 120.536C334.617 120.872 335 121.04 335.457 121.04ZM345.575 115.104C346.49 115.104 347.218 115.403 347.759 116C348.31 116.588 348.585 117.4 348.585 118.436V123H346.205V118.758C346.205 118.235 346.07 117.829 345.799 117.54C345.529 117.251 345.165 117.106 344.707 117.106C344.25 117.106 343.886 117.251 343.615 117.54C343.345 117.829 343.209 118.235 343.209 118.758V123H340.815V115.188H343.209V116.224C343.452 115.879 343.779 115.608 344.189 115.412C344.6 115.207 345.062 115.104 345.575 115.104Z" fill="white"/>
</g>
<path d="M116.52 87.36C120.44 87.2 124.16 86.28 127.68 84.6C131.2 82.92 134.04 80.44 136.2 77.16C138.36 73.88 139.44 69.88 139.44 65.16C139.44 59.72 138.04 55.24 135.24 51.72C132.52 48.12 128.44 46.32 123 46.32C117.88 46.32 114.24 48.08 112.08 51.6C110 55.12 108.88 59.28 108.72 64.08C104.72 64.08 101.92 63.44 100.32 62.16C98.8 60.88 98.04 59.16 98.04 57C98.04 54.2 99.08 51.6 101.16 49.2C103.24 46.8 106.24 44.88 110.16 43.44C114.16 41.92 118.8 41.16 124.08 41.16C132.72 41.16 139.76 43.16 145.2 47.16C150.72 51.08 153.48 57.2 153.48 65.52C153.48 71.2 152.12 76.04 149.4 80.04C146.76 83.96 143.36 87 139.2 89.16C135.04 91.24 130.72 92.44 126.24 92.76V106.08H116.52V87.36ZM120.12 130.56C117.88 130.56 116 129.8 114.48 128.28C112.96 126.76 112.2 124.92 112.2 122.76C112.2 120.52 112.96 118.64 114.48 117.12C116 115.52 117.88 114.72 120.12 114.72C122.36 114.72 124.24 115.52 125.76 117.12C127.28 118.64 128.04 120.52 128.04 122.76C128.04 124.92 127.28 126.76 125.76 128.28C124.24 129.8 122.36 130.56 120.12 130.56Z" fill="#FF0000"/>
<defs>
<filter id="filter0_d" x="0" y="89" width="382" height="325" filterUnits="userSpaceOnUse" color-interpolation-filters="sRGB">
<feFlood flood-opacity="0" result="BackgroundImageFix"/>
<feColorMatrix in="SourceAlpha" type="matrix" values="0 0 0 0 0 0 0 0 0 0 0 0 0 0 0 0 0 0 127 0"/>
<feOffset dy="2"/>
<feGaussianBlur stdDeviation="2.5"/>
<feColorMatrix type="matrix" values="0 0 0 0 0 0 0 0 0 0 0 0 0 0 0 0 0 0 0.4 0"/>
<feBlend mode="normal" in2="BackgroundImageFix" result="effect1_dropShadow"/>
<feBlend mode="normal" in="SourceGraphic" in2="effect1_dropShadow" result="shape"/>
</filter>
</defs>
</svg>
