<svg width="446" height="297" viewBox="0 0 446 297" fill="none" xmlns="http://www.w3.org/2000/svg">
<circle cx="196" cy="47" r="250" fill="#FFAA7D"/>
<g filter="url(#filter0_d)">
<path d="M104.15 147.26C101.21 147.26 98.62 146.747 96.38 145.72C94.14 144.693 92.4133 143.27 91.2 141.45C89.9867 139.583 89.38 137.437 89.38 135.01C89.38 132.957 89.8 131.09 90.64 129.41C91.5267 127.73 92.6933 126.4 94.14 125.42C95.6333 124.44 97.2667 123.95 99.04 123.95C100.673 123.95 102.05 124.37 103.17 125.21C104.29 126.003 104.99 127.123 105.27 128.57C102.843 128.57 100.907 129.223 99.46 130.53C98.0133 131.79 97.29 133.517 97.29 135.71C97.29 137.717 97.8967 139.327 99.11 140.54C100.323 141.753 101.933 142.36 103.94 142.36C106.413 142.36 108.443 141.543 110.03 139.91C111.663 138.23 112.48 136.13 112.48 133.61C112.48 131.417 111.873 129.34 110.66 127.38C109.447 125.42 107.627 123.04 105.2 120.24C102.68 117.347 100.767 114.873 99.46 112.82C98.2 110.72 97.57 108.433 97.57 105.96C97.57 103.533 98.2467 101.363 99.6 99.45C100.953 97.49 102.82 95.95 105.2 94.83C107.58 93.71 110.263 93.15 113.25 93.15C117.03 93.15 120.04 94.0367 122.28 95.81C124.567 97.5833 125.71 99.9633 125.71 102.95C125.71 104.91 125.22 106.497 124.24 107.71C123.26 108.923 121.977 109.53 120.39 109.53C118.617 109.53 117.193 108.807 116.12 107.36C117.007 106.707 117.707 105.843 118.22 104.77C118.733 103.697 118.99 102.577 118.99 101.41C118.99 99.9167 118.547 98.7267 117.66 97.84C116.773 96.9533 115.56 96.51 114.02 96.51C112.153 96.51 110.613 97.1867 109.4 98.54C108.233 99.8467 107.65 101.527 107.65 103.58C107.65 105.447 108.187 107.197 109.26 108.83C110.333 110.417 112.013 112.47 114.3 114.99C116.167 116.997 117.66 118.723 118.78 120.17C119.947 121.617 120.927 123.297 121.72 125.21C122.56 127.077 122.98 129.107 122.98 131.3C122.98 134.287 122.14 136.993 120.46 139.42C118.827 141.847 116.563 143.76 113.67 145.16C110.823 146.56 107.65 147.26 104.15 147.26ZM136.932 146.42C133.479 146.42 130.795 145.533 128.882 143.76C126.969 141.94 126.012 139.117 126.012 135.29C126.012 132.07 126.642 128.523 127.902 124.65C129.162 120.777 131.215 117.44 134.062 114.64C136.909 111.793 140.525 110.37 144.912 110.37C150.045 110.37 152.612 112.61 152.612 117.09C152.612 119.703 151.865 122.107 150.372 124.3C148.879 126.493 146.895 128.267 144.422 129.62C141.949 130.927 139.312 131.673 136.512 131.86C136.419 133.26 136.372 134.193 136.372 134.66C136.372 136.947 136.769 138.51 137.562 139.35C138.355 140.143 139.639 140.54 141.412 140.54C143.932 140.54 146.079 139.957 147.852 138.79C149.672 137.623 151.655 135.85 153.802 133.47H156.182C151.002 142.103 144.585 146.42 136.932 146.42ZM137.072 128.5C138.799 128.407 140.432 127.8 141.972 126.68C143.559 125.56 144.819 124.137 145.752 122.41C146.732 120.683 147.222 118.863 147.222 116.95C147.222 115.037 146.639 114.08 145.472 114.08C143.792 114.08 142.135 115.55 140.502 118.49C138.915 121.43 137.772 124.767 137.072 128.5ZM158.547 111H168.627L167.717 115.34C169.304 113.94 170.727 112.867 171.987 112.12C173.294 111.373 174.694 111 176.187 111C177.68 111 178.847 111.513 179.687 112.54C180.574 113.567 181.017 114.803 181.017 116.25C181.017 117.603 180.574 118.793 179.687 119.82C178.8 120.847 177.564 121.36 175.977 121.36C174.95 121.36 174.25 121.127 173.877 120.66C173.55 120.147 173.294 119.423 173.107 118.49C172.967 117.883 172.827 117.44 172.687 117.16C172.547 116.88 172.29 116.74 171.917 116.74C170.937 116.74 170.097 116.95 169.397 117.37C168.744 117.743 167.88 118.42 166.807 119.4L161.207 146H151.127L158.547 111ZM188.085 146.42C185.379 146.42 183.255 145.743 181.715 144.39C180.222 142.99 179.475 140.913 179.475 138.16C179.475 137.04 179.592 135.92 179.825 134.8L184.865 111H194.945L189.905 134.8C189.672 135.967 189.555 136.807 189.555 137.32C189.555 138.86 190.349 139.63 191.935 139.63C194.082 139.63 196.065 138.277 197.885 135.57C199.752 132.863 201.245 129.643 202.365 125.91C203.485 122.177 204.045 118.957 204.045 116.25C203.952 116.483 203.649 116.67 203.135 116.81C202.622 116.903 202.179 116.95 201.805 116.95C201.012 116.95 200.382 116.577 199.915 115.83C199.495 115.083 199.285 114.267 199.285 113.38C199.285 112.26 199.635 111.35 200.335 110.65C201.082 109.95 202.179 109.6 203.625 109.6C205.165 109.6 206.285 110.183 206.985 111.35C207.685 112.47 208.035 113.917 208.035 115.69C208.035 119.89 207.312 124.393 205.865 129.2C204.419 133.96 202.202 138.02 199.215 141.38C196.229 144.74 192.519 146.42 188.085 146.42ZM220.78 107.22C219.24 107.22 217.933 106.683 216.86 105.61C215.787 104.537 215.25 103.23 215.25 101.69C215.25 100.15 215.787 98.8433 216.86 97.77C217.933 96.65 219.24 96.09 220.78 96.09C222.32 96.09 223.627 96.65 224.7 97.77C225.82 98.8433 226.38 100.15 226.38 101.69C226.38 103.23 225.82 104.537 224.7 105.61C223.627 106.683 222.32 107.22 220.78 107.22ZM216.02 146.42C213.78 146.42 211.96 145.72 210.56 144.32C209.207 142.92 208.53 140.82 208.53 138.02C208.53 136.853 208.717 135.337 209.09 133.47L213.85 111H223.93L218.89 134.8C218.703 135.5 218.61 136.247 218.61 137.04C218.61 137.973 218.82 138.65 219.24 139.07C219.707 139.443 220.453 139.63 221.48 139.63C222.833 139.63 224.093 139.07 225.26 137.95C226.427 136.783 227.267 135.29 227.78 133.47H230.72C228.993 138.51 226.777 141.94 224.07 143.76C221.363 145.533 218.68 146.42 216.02 146.42ZM237.762 146.42C234.309 146.42 231.625 145.533 229.712 143.76C227.799 141.94 226.842 139.117 226.842 135.29C226.842 132.07 227.472 128.523 228.732 124.65C230.039 120.777 232.092 117.44 234.892 114.64C237.739 111.793 241.332 110.37 245.672 110.37C248.472 110.37 250.455 110.977 251.622 112.19C252.835 113.403 253.442 114.943 253.442 116.81C253.442 118.443 253.092 119.703 252.392 120.59C251.692 121.477 250.805 121.92 249.732 121.92C248.939 121.92 248.122 121.64 247.282 121.08C247.842 119.54 248.122 118.163 248.122 116.95C248.122 116.063 247.959 115.363 247.632 114.85C247.305 114.337 246.815 114.08 246.162 114.08C244.762 114.08 243.362 115.223 241.962 117.51C240.562 119.797 239.419 122.573 238.532 125.84C237.645 129.107 237.202 132.047 237.202 134.66C237.202 136.947 237.599 138.51 238.392 139.35C239.185 140.143 240.469 140.54 242.242 140.54C244.762 140.54 246.909 139.957 248.682 138.79C250.502 137.623 252.485 135.85 254.632 133.47H257.012C251.832 142.103 245.415 146.42 237.762 146.42ZM264.627 146.42C261.174 146.42 258.491 145.533 256.577 143.76C254.664 141.94 253.707 139.117 253.707 135.29C253.707 132.07 254.337 128.523 255.597 124.65C256.857 120.777 258.911 117.44 261.757 114.64C264.604 111.793 268.221 110.37 272.607 110.37C277.741 110.37 280.307 112.61 280.307 117.09C280.307 119.703 279.561 122.107 278.067 124.3C276.574 126.493 274.591 128.267 272.117 129.62C269.644 130.927 267.007 131.673 264.207 131.86C264.114 133.26 264.067 134.193 264.067 134.66C264.067 136.947 264.464 138.51 265.257 139.35C266.051 140.143 267.334 140.54 269.107 140.54C271.627 140.54 273.774 139.957 275.547 138.79C277.367 137.623 279.351 135.85 281.497 133.47H283.877C278.697 142.103 272.281 146.42 264.627 146.42ZM264.767 128.5C266.494 128.407 268.127 127.8 269.667 126.68C271.254 125.56 272.514 124.137 273.447 122.41C274.427 120.683 274.917 118.863 274.917 116.95C274.917 115.037 274.334 114.08 273.167 114.08C271.487 114.08 269.831 115.55 268.197 118.49C266.611 121.43 265.467 124.767 264.767 128.5ZM289.462 146.42C287.222 146.42 285.332 146 283.792 145.16C282.252 144.273 281.109 143.153 280.362 141.8C279.616 140.4 279.242 138.953 279.242 137.46C279.242 135.92 279.616 134.59 280.362 133.47C281.062 132.303 281.926 131.463 282.952 130.95C284.772 127.683 286.359 124.393 287.712 121.08C289.066 117.72 290.349 114.103 291.562 110.23L301.922 108.83C302.156 114.803 302.552 121.267 303.112 128.22C303.346 131.02 303.462 133.05 303.462 134.31C303.462 137.157 302.739 139.49 301.292 141.31C299.846 143.13 298.049 144.437 295.902 145.23C293.802 146.023 291.656 146.42 289.462 146.42ZM287.222 140.89C288.949 140.89 290.396 140.377 291.562 139.35C292.729 138.323 293.312 136.667 293.312 134.38C293.312 132.98 293.172 131.02 292.892 128.5C292.426 123.18 292.122 119.61 291.982 117.79C290.862 121.477 288.972 125.887 286.312 131.02C287.386 131.58 287.922 132.397 287.922 133.47C287.922 134.357 287.619 135.15 287.012 135.85C286.452 136.55 285.729 136.9 284.842 136.9C283.862 136.9 283.232 136.597 282.952 135.99C282.952 137.67 283.279 138.907 283.932 139.7C284.632 140.493 285.729 140.89 287.222 140.89Z" fill="#2D7CBF"/>
</g>
<defs>
<filter id="filter0_d" x="82.38" y="88.15" width="228.082" height="68.11" filterUnits="userSpaceOnUse" color-interpolation-filters="sRGB">
<feFlood flood-opacity="0" result="BackgroundImageFix"/>
<feColorMatrix in="SourceAlpha" type="matrix" values="0 0 0 0 0 0 0 0 0 0 0 0 0 0 0 0 0 0 127 0"/>
<feOffset dy="2"/>
<feGaussianBlur stdDeviation="3.5"/>
<feColorMatrix type="matrix" values="0 0 0 0 1 0 0 0 0 1 0 0 0 0 1 0 0 0 0.6 0"/>
<feBlend mode="normal" in2="BackgroundImageFix" result="effect1_dropShadow"/>
<feBlend mode="normal" in="SourceGraphic" in2="effect1_dropShadow" result="shape"/>
</filter>
</defs>
</svg>
