<svg width="909" height="378" viewBox="0 0 909 378" fill="none" xmlns="http://www.w3.org/2000/svg">
<path d="M103.2 82.1L91.4 104.85V117H84.4V104.85L72.55 82.1H80.45L87.95 98.05L95.4 82.1H103.2ZM119.537 117.45C116.87 117.45 114.47 116.867 112.337 115.7C110.204 114.5 108.52 112.817 107.287 110.65C106.087 108.483 105.487 105.983 105.487 103.15C105.487 100.317 106.104 97.8167 107.337 95.65C108.604 93.4833 110.32 91.8167 112.487 90.65C114.654 89.45 117.07 88.85 119.737 88.85C122.404 88.85 124.82 89.45 126.987 90.65C129.154 91.8167 130.854 93.4833 132.087 95.65C133.354 97.8167 133.987 100.317 133.987 103.15C133.987 105.983 133.337 108.483 132.037 110.65C130.77 112.817 129.037 114.5 126.837 115.7C124.67 116.867 122.237 117.45 119.537 117.45ZM119.537 111.35C120.804 111.35 121.987 111.05 123.087 110.45C124.22 109.817 125.12 108.883 125.787 107.65C126.454 106.417 126.787 104.917 126.787 103.15C126.787 100.517 126.087 98.5 124.687 97.1C123.32 95.6667 121.637 94.95 119.637 94.95C117.637 94.95 115.954 95.6667 114.587 97.1C113.254 98.5 112.587 100.517 112.587 103.15C112.587 105.783 113.237 107.817 114.537 109.25C115.87 110.65 117.537 111.35 119.537 111.35ZM165.272 89.3V117H158.222V113.5C157.322 114.7 156.139 115.65 154.672 116.35C153.239 117.017 151.672 117.35 149.972 117.35C147.805 117.35 145.889 116.9 144.222 116C142.555 115.067 141.239 113.717 140.272 111.95C139.339 110.15 138.872 108.017 138.872 105.55V89.3H145.872V104.55C145.872 106.75 146.422 108.45 147.522 109.65C148.622 110.817 150.122 111.4 152.022 111.4C153.955 111.4 155.472 110.817 156.572 109.65C157.672 108.45 158.222 106.75 158.222 104.55V89.3H165.272ZM182.293 103.15C182.293 100.283 182.876 97.7833 184.043 95.65C185.209 93.4833 186.826 91.8167 188.893 90.65C190.959 89.45 193.326 88.85 195.993 88.85C199.426 88.85 202.259 89.7167 204.493 91.45C206.759 93.15 208.276 95.55 209.043 98.65H201.493C201.093 97.45 200.409 96.5167 199.443 95.85C198.509 95.15 197.343 94.8 195.943 94.8C193.943 94.8 192.359 95.5333 191.193 97C190.026 98.4333 189.443 100.483 189.443 103.15C189.443 105.783 190.026 107.833 191.193 109.3C192.359 110.733 193.943 111.45 195.943 111.45C198.776 111.45 200.626 110.183 201.493 107.65H209.043C208.276 110.65 206.759 113.033 204.493 114.8C202.226 116.567 199.393 117.45 195.993 117.45C193.326 117.45 190.959 116.867 188.893 115.7C186.826 114.5 185.209 112.833 184.043 110.7C182.876 108.533 182.293 106.017 182.293 103.15ZM212.371 103.05C212.371 100.25 212.921 97.7667 214.021 95.6C215.154 93.4333 216.671 91.7667 218.571 90.6C220.504 89.4333 222.654 88.85 225.021 88.85C227.087 88.85 228.887 89.2667 230.421 90.1C231.987 90.9333 233.237 91.9833 234.171 93.25V89.3H241.221V117H234.171V112.95C233.271 114.25 232.021 115.333 230.421 116.2C228.854 117.033 227.037 117.45 224.971 117.45C222.637 117.45 220.504 116.85 218.571 115.65C216.671 114.45 215.154 112.767 214.021 110.6C212.921 108.4 212.371 105.883 212.371 103.05ZM234.171 103.15C234.171 101.45 233.837 100 233.171 98.8C232.504 97.5667 231.604 96.6333 230.471 96C229.337 95.3333 228.121 95 226.821 95C225.521 95 224.321 95.3167 223.221 95.95C222.121 96.5833 221.221 97.5167 220.521 98.75C219.854 99.95 219.521 101.383 219.521 103.05C219.521 104.717 219.854 106.183 220.521 107.45C221.221 108.683 222.121 109.633 223.221 110.3C224.354 110.967 225.554 111.3 226.821 111.3C228.121 111.3 229.337 110.983 230.471 110.35C231.604 109.683 232.504 108.75 233.171 107.55C233.837 106.317 234.171 104.85 234.171 103.15ZM263.407 88.9C266.707 88.9 269.374 89.95 271.407 92.05C273.441 94.1167 274.457 97.0167 274.457 100.75V117H267.457V101.7C267.457 99.5 266.907 97.8167 265.807 96.65C264.707 95.45 263.207 94.85 261.307 94.85C259.374 94.85 257.841 95.45 256.707 96.65C255.607 97.8167 255.057 99.5 255.057 101.7V117H248.057V89.3H255.057V92.75C255.991 91.55 257.174 90.6167 258.607 89.95C260.074 89.25 261.674 88.9 263.407 88.9ZM308.378 88.9C311.678 88.9 314.345 89.95 316.378 92.05C318.411 94.1167 319.428 97.0167 319.428 100.75V117H312.428V101.7C312.428 99.5 311.878 97.8167 310.778 96.65C309.678 95.45 308.178 94.85 306.278 94.85C304.345 94.85 302.811 95.45 301.678 96.65C300.578 97.8167 300.028 99.5 300.028 101.7V117H293.028V89.3H300.028V92.75C300.961 91.55 302.145 90.6167 303.578 89.95C305.045 89.25 306.645 88.9 308.378 88.9ZM338.385 117.45C335.718 117.45 333.318 116.867 331.185 115.7C329.051 114.5 327.368 112.817 326.135 110.65C324.935 108.483 324.335 105.983 324.335 103.15C324.335 100.317 324.951 97.8167 326.185 95.65C327.451 93.4833 329.168 91.8167 331.335 90.65C333.501 89.45 335.918 88.85 338.585 88.85C341.251 88.85 343.668 89.45 345.835 90.65C348.001 91.8167 349.701 93.4833 350.935 95.65C352.201 97.8167 352.835 100.317 352.835 103.15C352.835 105.983 352.185 108.483 350.885 110.65C349.618 112.817 347.885 114.5 345.685 115.7C343.518 116.867 341.085 117.45 338.385 117.45ZM338.385 111.35C339.651 111.35 340.835 111.05 341.935 110.45C343.068 109.817 343.968 108.883 344.635 107.65C345.301 106.417 345.635 104.917 345.635 103.15C345.635 100.517 344.935 98.5 343.535 97.1C342.168 95.6667 340.485 94.95 338.485 94.95C336.485 94.95 334.801 95.6667 333.435 97.1C332.101 98.5 331.435 100.517 331.435 103.15C331.435 105.783 332.085 107.817 333.385 109.25C334.718 110.65 336.385 111.35 338.385 111.35ZM396.37 89.3L388.27 117H380.72L375.67 97.65L370.62 117H363.02L354.87 89.3H361.97L366.87 110.4L372.17 89.3H379.57L384.77 110.35L389.67 89.3H396.37ZM422.671 117.45C420.404 117.45 418.371 117.05 416.571 116.25C414.771 115.417 413.338 114.3 412.271 112.9C411.238 111.5 410.671 109.95 410.571 108.25H417.621C417.754 109.317 418.271 110.2 419.171 110.9C420.104 111.6 421.254 111.95 422.621 111.95C423.954 111.95 424.988 111.683 425.721 111.15C426.488 110.617 426.871 109.933 426.871 109.1C426.871 108.2 426.404 107.533 425.471 107.1C424.571 106.633 423.121 106.133 421.121 105.6C419.054 105.1 417.354 104.583 416.021 104.05C414.721 103.517 413.588 102.7 412.621 101.6C411.688 100.5 411.221 99.0167 411.221 97.15C411.221 95.6167 411.654 94.2167 412.521 92.95C413.421 91.6833 414.688 90.6833 416.321 89.95C417.988 89.2167 419.938 88.85 422.171 88.85C425.471 88.85 428.104 89.6833 430.071 91.35C432.038 92.9833 433.121 95.2 433.321 98H426.621C426.521 96.9 426.054 96.0333 425.221 95.4C424.421 94.7333 423.338 94.4 421.971 94.4C420.704 94.4 419.721 94.6333 419.021 95.1C418.354 95.5667 418.021 96.2167 418.021 97.05C418.021 97.9833 418.488 98.7 419.421 99.2C420.354 99.6667 421.804 100.15 423.771 100.65C425.771 101.15 427.421 101.667 428.721 102.2C430.021 102.733 431.138 103.567 432.071 104.7C433.038 105.8 433.538 107.267 433.571 109.1C433.571 110.7 433.121 112.133 432.221 113.4C431.354 114.667 430.088 115.667 428.421 116.4C426.788 117.1 424.871 117.45 422.671 117.45ZM465.067 102.55C465.067 103.55 465.001 104.45 464.867 105.25H444.617C444.784 107.25 445.484 108.817 446.717 109.95C447.951 111.083 449.467 111.65 451.267 111.65C453.867 111.65 455.717 110.533 456.817 108.3H464.367C463.567 110.967 462.034 113.167 459.767 114.9C457.501 116.6 454.717 117.45 451.417 117.45C448.751 117.45 446.351 116.867 444.217 115.7C442.117 114.5 440.467 112.817 439.267 110.65C438.101 108.483 437.517 105.983 437.517 103.15C437.517 100.283 438.101 97.7667 439.267 95.6C440.434 93.4333 442.067 91.7667 444.167 90.6C446.267 89.4333 448.684 88.85 451.417 88.85C454.051 88.85 456.401 89.4167 458.467 90.55C460.567 91.6833 462.184 93.3 463.317 95.4C464.484 97.4667 465.067 99.85 465.067 102.55ZM457.817 100.55C457.784 98.75 457.134 97.3167 455.867 96.25C454.601 95.15 453.051 94.6 451.217 94.6C449.484 94.6 448.017 95.1333 446.817 96.2C445.651 97.2333 444.934 98.6833 444.667 100.55H457.817ZM477.177 80V117H470.177V80H477.177ZM509.843 102.55C509.843 103.55 509.776 104.45 509.643 105.25H489.393C489.559 107.25 490.259 108.817 491.493 109.95C492.726 111.083 494.243 111.65 496.043 111.65C498.643 111.65 500.493 110.533 501.593 108.3H509.143C508.343 110.967 506.809 113.167 504.543 114.9C502.276 116.6 499.493 117.45 496.193 117.45C493.526 117.45 491.126 116.867 488.993 115.7C486.893 114.5 485.243 112.817 484.043 110.65C482.876 108.483 482.293 105.983 482.293 103.15C482.293 100.283 482.876 97.7667 484.043 95.6C485.209 93.4333 486.843 91.7667 488.943 90.6C491.043 89.4333 493.459 88.85 496.193 88.85C498.826 88.85 501.176 89.4167 503.243 90.55C505.343 91.6833 506.959 93.3 508.093 95.4C509.259 97.4667 509.843 99.85 509.843 102.55ZM502.593 100.55C502.559 98.75 501.909 97.3167 500.643 96.25C499.376 95.15 497.826 94.6 495.993 94.6C494.259 94.6 492.793 95.1333 491.593 96.2C490.426 97.2333 489.709 98.6833 489.443 100.55H502.593ZM513.152 103.15C513.152 100.283 513.735 97.7833 514.902 95.65C516.069 93.4833 517.685 91.8167 519.752 90.65C521.819 89.45 524.185 88.85 526.852 88.85C530.285 88.85 533.119 89.7167 535.352 91.45C537.619 93.15 539.135 95.55 539.902 98.65H532.352C531.952 97.45 531.269 96.5167 530.302 95.85C529.369 95.15 528.202 94.8 526.802 94.8C524.802 94.8 523.219 95.5333 522.052 97C520.885 98.4333 520.302 100.483 520.302 103.15C520.302 105.783 520.885 107.833 522.052 109.3C523.219 110.733 524.802 111.45 526.802 111.45C529.635 111.45 531.485 110.183 532.352 107.65H539.902C539.135 110.65 537.619 113.033 535.352 114.8C533.085 116.567 530.252 117.45 526.852 117.45C524.185 117.45 521.819 116.867 519.752 115.7C517.685 114.5 516.069 112.833 514.902 110.7C513.735 108.533 513.152 106.017 513.152 103.15ZM553.18 95.05V108.45C553.18 109.383 553.397 110.067 553.83 110.5C554.297 110.9 555.063 111.1 556.13 111.1H559.38V117H554.98C549.08 117 546.13 114.133 546.13 108.4V95.05H542.83V89.3H546.13V82.45H553.18V89.3H559.38V95.05H553.18ZM610.729 88.9C614.129 88.9 616.862 89.95 618.929 92.05C621.029 94.1167 622.079 97.0167 622.079 100.75V117H615.079V101.7C615.079 99.5333 614.529 97.8833 613.429 96.75C612.329 95.5833 610.829 95 608.929 95C607.029 95 605.512 95.5833 604.379 96.75C603.279 97.8833 602.729 99.5333 602.729 101.7V117H595.729V101.7C595.729 99.5333 595.179 97.8833 594.079 96.75C592.979 95.5833 591.479 95 589.579 95C587.646 95 586.112 95.5833 584.979 96.75C583.879 97.8833 583.329 99.5333 583.329 101.7V117H576.329V89.3H583.329V92.65C584.229 91.4833 585.379 90.5667 586.779 89.9C588.212 89.2333 589.779 88.9 591.479 88.9C593.646 88.9 595.579 89.3667 597.279 90.3C598.979 91.2 600.296 92.5 601.229 94.2C602.129 92.6 603.429 91.3167 605.129 90.35C606.862 89.3833 608.729 88.9 610.729 88.9ZM654.871 89.3V117H647.821V113.5C646.921 114.7 645.738 115.65 644.271 116.35C642.838 117.017 641.271 117.35 639.571 117.35C637.405 117.35 635.488 116.9 633.821 116C632.155 115.067 630.838 113.717 629.871 111.95C628.938 110.15 628.471 108.017 628.471 105.55V89.3H635.471V104.55C635.471 106.75 636.021 108.45 637.121 109.65C638.221 110.817 639.721 111.4 641.621 111.4C643.555 111.4 645.071 110.817 646.171 109.65C647.271 108.45 647.821 106.75 647.821 104.55V89.3H654.871ZM668.778 80V117H661.778V80H668.778ZM683.844 95.05V108.45C683.844 109.383 684.061 110.067 684.494 110.5C684.961 110.9 685.727 111.1 686.794 111.1H690.044V117H685.644C679.744 117 676.794 114.133 676.794 108.4V95.05H673.494V89.3H676.794V82.45H683.844V89.3H690.044V95.05H683.844ZM698.629 86C697.396 86 696.362 85.6167 695.529 84.85C694.729 84.05 694.329 83.0667 694.329 81.9C694.329 80.7333 694.729 79.7667 695.529 79C696.362 78.2 697.396 77.8 698.629 77.8C699.862 77.8 700.879 78.2 701.679 79C702.512 79.7667 702.929 80.7333 702.929 81.9C702.929 83.0667 702.512 84.05 701.679 84.85C700.879 85.6167 699.862 86 698.629 86ZM702.079 89.3V117H695.079V89.3H702.079ZM715.995 93.3C716.895 92.0333 718.128 90.9833 719.695 90.15C721.295 89.2833 723.112 88.85 725.145 88.85C727.512 88.85 729.645 89.4333 731.545 90.6C733.478 91.7667 734.995 93.4333 736.095 95.6C737.228 97.7333 737.795 100.217 737.795 103.05C737.795 105.883 737.228 108.4 736.095 110.6C734.995 112.767 733.478 114.45 731.545 115.65C729.645 116.85 727.512 117.45 725.145 117.45C723.112 117.45 721.312 117.033 719.745 116.2C718.212 115.367 716.962 114.317 715.995 113.05V130.2H708.995V89.3H715.995V93.3ZM730.645 103.05C730.645 101.383 730.295 99.95 729.595 98.75C728.928 97.5167 728.028 96.5833 726.895 95.95C725.795 95.3167 724.595 95 723.295 95C722.028 95 720.828 95.3333 719.695 96C718.595 96.6333 717.695 97.5667 716.995 98.8C716.328 100.033 715.995 101.483 715.995 103.15C715.995 104.817 716.328 106.267 716.995 107.5C717.695 108.733 718.595 109.683 719.695 110.35C720.828 110.983 722.028 111.3 723.295 111.3C724.595 111.3 725.795 110.967 726.895 110.3C728.028 109.633 728.928 108.683 729.595 107.45C730.295 106.217 730.645 104.75 730.645 103.05ZM749.882 80V117H742.882V80H749.882ZM782.548 102.55C782.548 103.55 782.481 104.45 782.348 105.25H762.098C762.264 107.25 762.964 108.817 764.198 109.95C765.431 111.083 766.948 111.65 768.748 111.65C771.348 111.65 773.198 110.533 774.298 108.3H781.848C781.048 110.967 779.514 113.167 777.248 114.9C774.981 116.6 772.198 117.45 768.898 117.45C766.231 117.45 763.831 116.867 761.698 115.7C759.598 114.5 757.948 112.817 756.748 110.65C755.581 108.483 754.998 105.983 754.998 103.15C754.998 100.283 755.581 97.7667 756.748 95.6C757.914 93.4333 759.548 91.7667 761.648 90.6C763.748 89.4333 766.164 88.85 768.898 88.85C771.531 88.85 773.881 89.4167 775.948 90.55C778.048 91.6833 779.664 93.3 780.798 95.4C781.964 97.4667 782.548 99.85 782.548 102.55ZM775.298 100.55C775.264 98.75 774.614 97.3167 773.348 96.25C772.081 95.15 770.531 94.6 768.698 94.6C766.964 94.6 765.498 95.1333 764.298 96.2C763.131 97.2333 762.414 98.6833 762.148 100.55H775.298ZM86.05 192.45C83.7833 192.45 81.75 192.05 79.95 191.25C78.15 190.417 76.7167 189.3 75.65 187.9C74.6167 186.5 74.05 184.95 73.95 183.25H81C81.1333 184.317 81.65 185.2 82.55 185.9C83.4833 186.6 84.6333 186.95 86 186.95C87.3333 186.95 88.3667 186.683 89.1 186.15C89.8667 185.617 90.25 184.933 90.25 184.1C90.25 183.2 89.7833 182.533 88.85 182.1C87.95 181.633 86.5 181.133 84.5 180.6C82.4333 180.1 80.7333 179.583 79.4 179.05C78.1 178.517 76.9667 177.7 76 176.6C75.0667 175.5 74.6 174.017 74.6 172.15C74.6 170.617 75.0333 169.217 75.9 167.95C76.8 166.683 78.0667 165.683 79.7 164.95C81.3667 164.217 83.3167 163.85 85.55 163.85C88.85 163.85 91.4833 164.683 93.45 166.35C95.4167 167.983 96.5 170.2 96.7 173H90C89.9 171.9 89.4333 171.033 88.6 170.4C87.8 169.733 86.7167 169.4 85.35 169.4C84.0833 169.4 83.1 169.633 82.4 170.1C81.7333 170.567 81.4 171.217 81.4 172.05C81.4 172.983 81.8667 173.7 82.8 174.2C83.7333 174.667 85.1833 175.15 87.15 175.65C89.15 176.15 90.8 176.667 92.1 177.2C93.4 177.733 94.5167 178.567 95.45 179.7C96.4167 180.8 96.9167 182.267 96.95 184.1C96.95 185.7 96.5 187.133 95.6 188.4C94.7333 189.667 93.4667 190.667 91.8 191.4C90.1667 192.1 88.25 192.45 86.05 192.45ZM128.446 177.55C128.446 178.55 128.379 179.45 128.246 180.25H107.996C108.163 182.25 108.863 183.817 110.096 184.95C111.329 186.083 112.846 186.65 114.646 186.65C117.246 186.65 119.096 185.533 120.196 183.3H127.746C126.946 185.967 125.413 188.167 123.146 189.9C120.879 191.6 118.096 192.45 114.796 192.45C112.129 192.45 109.729 191.867 107.596 190.7C105.496 189.5 103.846 187.817 102.646 185.65C101.479 183.483 100.896 180.983 100.896 178.15C100.896 175.283 101.479 172.767 102.646 170.6C103.813 168.433 105.446 166.767 107.546 165.6C109.646 164.433 112.063 163.85 114.796 163.85C117.429 163.85 119.779 164.417 121.846 165.55C123.946 166.683 125.563 168.3 126.696 170.4C127.863 172.467 128.446 174.85 128.446 177.55ZM121.196 175.55C121.163 173.75 120.513 172.317 119.246 171.25C117.979 170.15 116.429 169.6 114.596 169.6C112.863 169.6 111.396 170.133 110.196 171.2C109.029 172.233 108.313 173.683 108.046 175.55H121.196ZM140.555 168.6C141.455 167.133 142.622 165.983 144.055 165.15C145.522 164.317 147.189 163.9 149.055 163.9V171.25H147.205C145.005 171.25 143.339 171.767 142.205 172.8C141.105 173.833 140.555 175.633 140.555 178.2V192H133.555V164.3H140.555V168.6ZM165.32 185.55L172.32 164.3H179.77L169.52 192H161.02L150.82 164.3H158.32L165.32 185.55ZM187.252 161C186.019 161 184.985 160.617 184.152 159.85C183.352 159.05 182.952 158.067 182.952 156.9C182.952 155.733 183.352 154.767 184.152 154C184.985 153.2 186.019 152.8 187.252 152.8C188.485 152.8 189.502 153.2 190.302 154C191.135 154.767 191.552 155.733 191.552 156.9C191.552 158.067 191.135 159.05 190.302 159.85C189.502 160.617 188.485 161 187.252 161ZM190.702 164.3V192H183.702V164.3H190.702ZM195.818 178.15C195.818 175.283 196.401 172.783 197.568 170.65C198.735 168.483 200.351 166.817 202.418 165.65C204.485 164.45 206.851 163.85 209.518 163.85C212.951 163.85 215.785 164.717 218.018 166.45C220.285 168.15 221.801 170.55 222.568 173.65H215.018C214.618 172.45 213.935 171.517 212.968 170.85C212.035 170.15 210.868 169.8 209.468 169.8C207.468 169.8 205.885 170.533 204.718 172C203.551 173.433 202.968 175.483 202.968 178.15C202.968 180.783 203.551 182.833 204.718 184.3C205.885 185.733 207.468 186.45 209.468 186.45C212.301 186.45 214.151 185.183 215.018 182.65H222.568C221.801 185.65 220.285 188.033 218.018 189.8C215.751 191.567 212.918 192.45 209.518 192.45C206.851 192.45 204.485 191.867 202.418 190.7C200.351 189.5 198.735 187.833 197.568 185.7C196.401 183.533 195.818 181.017 195.818 178.15ZM253.446 177.55C253.446 178.55 253.379 179.45 253.246 180.25H232.996C233.163 182.25 233.863 183.817 235.096 184.95C236.329 186.083 237.846 186.65 239.646 186.65C242.246 186.65 244.096 185.533 245.196 183.3H252.746C251.946 185.967 250.413 188.167 248.146 189.9C245.879 191.6 243.096 192.45 239.796 192.45C237.129 192.45 234.729 191.867 232.596 190.7C230.496 189.5 228.846 187.817 227.646 185.65C226.479 183.483 225.896 180.983 225.896 178.15C225.896 175.283 226.479 172.767 227.646 170.6C228.813 168.433 230.446 166.767 232.546 165.6C234.646 164.433 237.063 163.85 239.796 163.85C242.429 163.85 244.779 164.417 246.846 165.55C248.946 166.683 250.563 168.3 251.696 170.4C252.863 172.467 253.446 174.85 253.446 177.55ZM246.196 175.55C246.163 173.75 245.513 172.317 244.246 171.25C242.979 170.15 241.429 169.6 239.596 169.6C237.863 169.6 236.396 170.133 235.196 171.2C234.029 172.233 233.313 173.683 233.046 175.55H246.196ZM269.155 192.45C266.889 192.45 264.855 192.05 263.055 191.25C261.255 190.417 259.822 189.3 258.755 187.9C257.722 186.5 257.155 184.95 257.055 183.25H264.105C264.239 184.317 264.755 185.2 265.655 185.9C266.589 186.6 267.739 186.95 269.105 186.95C270.439 186.95 271.472 186.683 272.205 186.15C272.972 185.617 273.355 184.933 273.355 184.1C273.355 183.2 272.889 182.533 271.955 182.1C271.055 181.633 269.605 181.133 267.605 180.6C265.539 180.1 263.839 179.583 262.505 179.05C261.205 178.517 260.072 177.7 259.105 176.6C258.172 175.5 257.705 174.017 257.705 172.15C257.705 170.617 258.139 169.217 259.005 167.95C259.905 166.683 261.172 165.683 262.805 164.95C264.472 164.217 266.422 163.85 268.655 163.85C271.955 163.85 274.589 164.683 276.555 166.35C278.522 167.983 279.605 170.2 279.805 173H273.105C273.005 171.9 272.539 171.033 271.705 170.4C270.905 169.733 269.822 169.4 268.455 169.4C267.189 169.4 266.205 169.633 265.505 170.1C264.839 170.567 264.505 171.217 264.505 172.05C264.505 172.983 264.972 173.7 265.905 174.2C266.839 174.667 268.289 175.15 270.255 175.65C272.255 176.15 273.905 176.667 275.205 177.2C276.505 177.733 277.622 178.567 278.555 179.7C279.522 180.8 280.022 182.267 280.055 184.1C280.055 185.7 279.605 187.133 278.705 188.4C277.839 189.667 276.572 190.667 274.905 191.4C273.272 192.1 271.355 192.45 269.155 192.45ZM324.216 164.3L307.066 205.1H299.616L305.616 191.3L294.516 164.3H302.366L309.516 183.65L316.766 164.3H324.216ZM340.289 192.45C337.622 192.45 335.222 191.867 333.089 190.7C330.956 189.5 329.272 187.817 328.039 185.65C326.839 183.483 326.239 180.983 326.239 178.15C326.239 175.317 326.856 172.817 328.089 170.65C329.356 168.483 331.072 166.817 333.239 165.65C335.406 164.45 337.822 163.85 340.489 163.85C343.156 163.85 345.572 164.45 347.739 165.65C349.906 166.817 351.606 168.483 352.839 170.65C354.106 172.817 354.739 175.317 354.739 178.15C354.739 180.983 354.089 183.483 352.789 185.65C351.522 187.817 349.789 189.5 347.589 190.7C345.422 191.867 342.989 192.45 340.289 192.45ZM340.289 186.35C341.556 186.35 342.739 186.05 343.839 185.45C344.972 184.817 345.872 183.883 346.539 182.65C347.206 181.417 347.539 179.917 347.539 178.15C347.539 175.517 346.839 173.5 345.439 172.1C344.072 170.667 342.389 169.95 340.389 169.95C338.389 169.95 336.706 170.667 335.339 172.1C334.006 173.5 333.339 175.517 333.339 178.15C333.339 180.783 333.989 182.817 335.289 184.25C336.622 185.65 338.289 186.35 340.289 186.35ZM386.024 164.3V192H378.974V188.5C378.074 189.7 376.89 190.65 375.424 191.35C373.99 192.017 372.424 192.35 370.724 192.35C368.557 192.35 366.64 191.9 364.974 191C363.307 190.067 361.99 188.717 361.024 186.95C360.09 185.15 359.624 183.017 359.624 180.55V164.3H366.624V179.55C366.624 181.75 367.174 183.45 368.274 184.65C369.374 185.817 370.874 186.4 372.774 186.4C374.707 186.4 376.224 185.817 377.324 184.65C378.424 183.45 378.974 181.75 378.974 179.55V164.3H386.024ZM420.195 163.9C423.495 163.9 426.161 164.95 428.195 167.05C430.228 169.117 431.245 172.017 431.245 175.75V192H424.245V176.7C424.245 174.5 423.695 172.817 422.595 171.65C421.495 170.45 419.995 169.85 418.095 169.85C416.161 169.85 414.628 170.45 413.495 171.65C412.395 172.817 411.845 174.5 411.845 176.7V192H404.845V164.3H411.845V167.75C412.778 166.55 413.961 165.617 415.395 164.95C416.861 164.25 418.461 163.9 420.195 163.9ZM463.651 177.55C463.651 178.55 463.585 179.45 463.451 180.25H443.201C443.368 182.25 444.068 183.817 445.301 184.95C446.535 186.083 448.051 186.65 449.851 186.65C452.451 186.65 454.301 185.533 455.401 183.3H462.951C462.151 185.967 460.618 188.167 458.351 189.9C456.085 191.6 453.301 192.45 450.001 192.45C447.335 192.45 444.935 191.867 442.801 190.7C440.701 189.5 439.051 187.817 437.851 185.65C436.685 183.483 436.101 180.983 436.101 178.15C436.101 175.283 436.685 172.767 437.851 170.6C439.018 168.433 440.651 166.767 442.751 165.6C444.851 164.433 447.268 163.85 450.001 163.85C452.635 163.85 454.985 164.417 457.051 165.55C459.151 166.683 460.768 168.3 461.901 170.4C463.068 172.467 463.651 174.85 463.651 177.55ZM456.401 175.55C456.368 173.75 455.718 172.317 454.451 171.25C453.185 170.15 451.635 169.6 449.801 169.6C448.068 169.6 446.601 170.133 445.401 171.2C444.235 172.233 443.518 173.683 443.251 175.55H456.401ZM494.511 177.55C494.511 178.55 494.444 179.45 494.311 180.25H474.061C474.227 182.25 474.927 183.817 476.161 184.95C477.394 186.083 478.911 186.65 480.711 186.65C483.311 186.65 485.161 185.533 486.261 183.3H493.811C493.011 185.967 491.477 188.167 489.211 189.9C486.944 191.6 484.161 192.45 480.861 192.45C478.194 192.45 475.794 191.867 473.661 190.7C471.561 189.5 469.911 187.817 468.711 185.65C467.544 183.483 466.961 180.983 466.961 178.15C466.961 175.283 467.544 172.767 468.711 170.6C469.877 168.433 471.511 166.767 473.611 165.6C475.711 164.433 478.127 163.85 480.861 163.85C483.494 163.85 485.844 164.417 487.911 165.55C490.011 166.683 491.627 168.3 492.761 170.4C493.927 172.467 494.511 174.85 494.511 177.55ZM487.261 175.55C487.227 173.75 486.577 172.317 485.311 171.25C484.044 170.15 482.494 169.6 480.661 169.6C478.927 169.6 477.461 170.133 476.261 171.2C475.094 172.233 474.377 173.683 474.111 175.55H487.261ZM497.82 178.05C497.82 175.25 498.37 172.767 499.47 170.6C500.603 168.433 502.137 166.767 504.07 165.6C506.003 164.433 508.153 163.85 510.52 163.85C512.32 163.85 514.037 164.25 515.67 165.05C517.303 165.817 518.603 166.85 519.57 168.15V155H526.67V192H519.57V187.9C518.703 189.267 517.487 190.367 515.92 191.2C514.353 192.033 512.537 192.45 510.47 192.45C508.137 192.45 506.003 191.85 504.07 190.65C502.137 189.45 500.603 187.767 499.47 185.6C498.37 183.4 497.82 180.883 497.82 178.05ZM519.62 178.15C519.62 176.45 519.287 175 518.62 173.8C517.953 172.567 517.053 171.633 515.92 171C514.787 170.333 513.57 170 512.27 170C510.97 170 509.77 170.317 508.67 170.95C507.57 171.583 506.67 172.517 505.97 173.75C505.303 174.95 504.97 176.383 504.97 178.05C504.97 179.717 505.303 181.183 505.97 182.45C506.67 183.683 507.57 184.633 508.67 185.3C509.803 185.967 511.003 186.3 512.27 186.3C513.57 186.3 514.787 185.983 515.92 185.35C517.053 184.683 517.953 183.75 518.62 182.55C519.287 181.317 519.62 179.85 519.62 178.15ZM583.821 164.3L575.721 192H568.171L563.121 172.65L558.071 192H550.471L542.321 164.3H549.421L554.321 185.4L559.621 164.3H567.021L572.221 185.35L577.121 164.3H583.821ZM603.208 163.9C605.308 163.9 607.175 164.367 608.808 165.3C610.442 166.2 611.708 167.55 612.608 169.35C613.542 171.117 614.008 173.25 614.008 175.75V192H607.008V176.7C607.008 174.5 606.458 172.817 605.358 171.65C604.258 170.45 602.758 169.85 600.858 169.85C598.925 169.85 597.392 170.45 596.258 171.65C595.158 172.817 594.608 174.5 594.608 176.7V192H587.608V155H594.608V167.75C595.508 166.55 596.708 165.617 598.208 164.95C599.708 164.25 601.375 163.9 603.208 163.9ZM624.215 161C622.982 161 621.948 160.617 621.115 159.85C620.315 159.05 619.915 158.067 619.915 156.9C619.915 155.733 620.315 154.767 621.115 154C621.948 153.2 622.982 152.8 624.215 152.8C625.448 152.8 626.465 153.2 627.265 154C628.098 154.767 628.515 155.733 628.515 156.9C628.515 158.067 628.098 159.05 627.265 159.85C626.465 160.617 625.448 161 624.215 161ZM627.665 164.3V192H620.665V164.3H627.665ZM632.781 178.15C632.781 175.283 633.364 172.783 634.531 170.65C635.698 168.483 637.314 166.817 639.381 165.65C641.448 164.45 643.814 163.85 646.481 163.85C649.914 163.85 652.748 164.717 654.981 166.45C657.248 168.15 658.764 170.55 659.531 173.65H651.981C651.581 172.45 650.898 171.517 649.931 170.85C648.998 170.15 647.831 169.8 646.431 169.8C644.431 169.8 642.848 170.533 641.681 172C640.514 173.433 639.931 175.483 639.931 178.15C639.931 180.783 640.514 182.833 641.681 184.3C642.848 185.733 644.431 186.45 646.431 186.45C649.264 186.45 651.114 185.183 651.981 182.65H659.531C658.764 185.65 657.248 188.033 654.981 189.8C652.714 191.567 649.881 192.45 646.481 192.45C643.814 192.45 641.448 191.867 639.381 190.7C637.314 189.5 635.698 187.833 634.531 185.7C633.364 183.533 632.781 181.017 632.781 178.15ZM680.259 163.9C682.359 163.9 684.226 164.367 685.859 165.3C687.492 166.2 688.759 167.55 689.659 169.35C690.592 171.117 691.059 173.25 691.059 175.75V192H684.059V176.7C684.059 174.5 683.509 172.817 682.409 171.65C681.309 170.45 679.809 169.85 677.909 169.85C675.976 169.85 674.442 170.45 673.309 171.65C672.209 172.817 671.659 174.5 671.659 176.7V192H664.659V155H671.659V167.75C672.559 166.55 673.759 165.617 675.259 164.95C676.759 164.25 678.426 163.9 680.259 163.9ZM707.83 178.05C707.83 175.25 708.38 172.767 709.48 170.6C710.613 168.433 712.13 166.767 714.03 165.6C715.963 164.433 718.113 163.85 720.48 163.85C722.546 163.85 724.346 164.267 725.88 165.1C727.446 165.933 728.696 166.983 729.63 168.25V164.3H736.68V192H729.63V187.95C728.73 189.25 727.48 190.333 725.88 191.2C724.313 192.033 722.496 192.45 720.43 192.45C718.096 192.45 715.963 191.85 714.03 190.65C712.13 189.45 710.613 187.767 709.48 185.6C708.38 183.4 707.83 180.883 707.83 178.05ZM729.63 178.15C729.63 176.45 729.296 175 728.63 173.8C727.963 172.567 727.063 171.633 725.93 171C724.796 170.333 723.58 170 722.28 170C720.98 170 719.78 170.317 718.68 170.95C717.58 171.583 716.68 172.517 715.98 173.75C715.313 174.95 714.98 176.383 714.98 178.05C714.98 179.717 715.313 181.183 715.98 182.45C716.68 183.683 717.58 184.633 718.68 185.3C719.813 185.967 721.013 186.3 722.28 186.3C723.58 186.3 724.796 185.983 725.93 185.35C727.063 184.683 727.963 183.75 728.63 182.55C729.296 181.317 729.63 179.85 729.63 178.15ZM750.516 168.6C751.416 167.133 752.583 165.983 754.016 165.15C755.483 164.317 757.15 163.9 759.016 163.9V171.25H757.166C754.966 171.25 753.3 171.767 752.166 172.8C751.066 173.833 750.516 175.633 750.516 178.2V192H743.516V164.3H750.516V168.6ZM789.481 177.55C789.481 178.55 789.415 179.45 789.281 180.25H769.031C769.198 182.25 769.898 183.817 771.131 184.95C772.365 186.083 773.881 186.65 775.681 186.65C778.281 186.65 780.131 185.533 781.231 183.3H788.781C787.981 185.967 786.448 188.167 784.181 189.9C781.915 191.6 779.131 192.45 775.831 192.45C773.165 192.45 770.765 191.867 768.631 190.7C766.531 189.5 764.881 187.817 763.681 185.65C762.515 183.483 761.931 180.983 761.931 178.15C761.931 175.283 762.515 172.767 763.681 170.6C764.848 168.433 766.481 166.767 768.581 165.6C770.681 164.433 773.098 163.85 775.831 163.85C778.465 163.85 780.815 164.417 782.881 165.55C784.981 166.683 786.598 168.3 787.731 170.4C788.898 172.467 789.481 174.85 789.481 177.55ZM782.231 175.55C782.198 173.75 781.548 172.317 780.281 171.25C779.015 170.15 777.465 169.6 775.631 169.6C773.898 169.6 772.431 170.133 771.231 171.2C770.065 172.233 769.348 173.683 769.081 175.55H782.231ZM73.65 253.05C73.65 250.25 74.2 247.767 75.3 245.6C76.4333 243.433 77.95 241.767 79.85 240.6C81.7833 239.433 83.9333 238.85 86.3 238.85C88.3667 238.85 90.1667 239.267 91.7 240.1C93.2667 240.933 94.5167 241.983 95.45 243.25V239.3H102.5V267H95.45V262.95C94.55 264.25 93.3 265.333 91.7 266.2C90.1333 267.033 88.3167 267.45 86.25 267.45C83.9167 267.45 81.7833 266.85 79.85 265.65C77.95 264.45 76.4333 262.767 75.3 260.6C74.2 258.4 73.65 255.883 73.65 253.05ZM95.45 253.15C95.45 251.45 95.1167 250 94.45 248.8C93.7833 247.567 92.8833 246.633 91.75 246C90.6167 245.333 89.4 245 88.1 245C86.8 245 85.6 245.317 84.5 245.95C83.4 246.583 82.5 247.517 81.8 248.75C81.1333 249.95 80.8 251.383 80.8 253.05C80.8 254.717 81.1333 256.183 81.8 257.45C82.5 258.683 83.4 259.633 84.5 260.3C85.6333 260.967 86.8333 261.3 88.1 261.3C89.4 261.3 90.6167 260.983 91.75 260.35C92.8833 259.683 93.7833 258.75 94.45 257.55C95.1167 256.317 95.45 254.85 95.45 253.15ZM120.887 260.55L127.887 239.3H135.337L125.087 267H116.587L106.387 239.3H113.887L120.887 260.55ZM137.468 253.05C137.468 250.25 138.018 247.767 139.118 245.6C140.252 243.433 141.768 241.767 143.668 240.6C145.602 239.433 147.752 238.85 150.118 238.85C152.185 238.85 153.985 239.267 155.518 240.1C157.085 240.933 158.335 241.983 159.268 243.25V239.3H166.318V267H159.268V262.95C158.368 264.25 157.118 265.333 155.518 266.2C153.952 267.033 152.135 267.45 150.068 267.45C147.735 267.45 145.602 266.85 143.668 265.65C141.768 264.45 140.252 262.767 139.118 260.6C138.018 258.4 137.468 255.883 137.468 253.05ZM159.268 253.15C159.268 251.45 158.935 250 158.268 248.8C157.602 247.567 156.702 246.633 155.568 246C154.435 245.333 153.218 245 151.918 245C150.618 245 149.418 245.317 148.318 245.95C147.218 246.583 146.318 247.517 145.618 248.75C144.952 249.95 144.618 251.383 144.618 253.05C144.618 254.717 144.952 256.183 145.618 257.45C146.318 258.683 147.218 259.633 148.318 260.3C149.452 260.967 150.652 261.3 151.918 261.3C153.218 261.3 154.435 260.983 155.568 260.35C156.702 259.683 157.602 258.75 158.268 257.55C158.935 256.317 159.268 254.85 159.268 253.15ZM176.705 236C175.472 236 174.438 235.617 173.605 234.85C172.805 234.05 172.405 233.067 172.405 231.9C172.405 230.733 172.805 229.767 173.605 229C174.438 228.2 175.472 227.8 176.705 227.8C177.938 227.8 178.955 228.2 179.755 229C180.588 229.767 181.005 230.733 181.005 231.9C181.005 233.067 180.588 234.05 179.755 234.85C178.955 235.617 177.938 236 176.705 236ZM180.155 239.3V267H173.155V239.3H180.155ZM194.071 230V267H187.071V230H194.071ZM199.187 253.05C199.187 250.25 199.737 247.767 200.837 245.6C201.97 243.433 203.487 241.767 205.387 240.6C207.32 239.433 209.47 238.85 211.837 238.85C213.904 238.85 215.704 239.267 217.237 240.1C218.804 240.933 220.054 241.983 220.987 243.25V239.3H228.037V267H220.987V262.95C220.087 264.25 218.837 265.333 217.237 266.2C215.67 267.033 213.854 267.45 211.787 267.45C209.454 267.45 207.32 266.85 205.387 265.65C203.487 264.45 201.97 262.767 200.837 260.6C199.737 258.4 199.187 255.883 199.187 253.05ZM220.987 253.15C220.987 251.45 220.654 250 219.987 248.8C219.32 247.567 218.42 246.633 217.287 246C216.154 245.333 214.937 245 213.637 245C212.337 245 211.137 245.317 210.037 245.95C208.937 246.583 208.037 247.517 207.337 248.75C206.67 249.95 206.337 251.383 206.337 253.05C206.337 254.717 206.67 256.183 207.337 257.45C208.037 258.683 208.937 259.633 210.037 260.3C211.17 260.967 212.37 261.3 213.637 261.3C214.937 261.3 216.154 260.983 217.287 260.35C218.42 259.683 219.32 258.75 219.987 257.55C220.654 256.317 220.987 254.85 220.987 253.15ZM241.874 243.35C242.774 242.017 244.007 240.933 245.574 240.1C247.174 239.267 248.99 238.85 251.024 238.85C253.39 238.85 255.524 239.433 257.424 240.6C259.357 241.767 260.874 243.433 261.974 245.6C263.107 247.733 263.674 250.217 263.674 253.05C263.674 255.883 263.107 258.4 261.974 260.6C260.874 262.767 259.357 264.45 257.424 265.65C255.524 266.85 253.39 267.45 251.024 267.45C248.957 267.45 247.14 267.05 245.574 266.25C244.04 265.417 242.807 264.35 241.874 263.05V267H234.874V230H241.874V243.35ZM256.524 253.05C256.524 251.383 256.174 249.95 255.474 248.75C254.807 247.517 253.907 246.583 252.774 245.95C251.674 245.317 250.474 245 249.174 245C247.907 245 246.707 245.333 245.574 246C244.474 246.633 243.574 247.567 242.874 248.8C242.207 250.033 241.874 251.483 241.874 253.15C241.874 254.817 242.207 256.267 242.874 257.5C243.574 258.733 244.474 259.683 245.574 260.35C246.707 260.983 247.907 261.3 249.174 261.3C250.474 261.3 251.674 260.967 252.774 260.3C253.907 259.633 254.807 258.683 255.474 257.45C256.174 256.217 256.524 254.75 256.524 253.05ZM275.761 230V267H268.761V230H275.761ZM308.427 252.55C308.427 253.55 308.36 254.45 308.227 255.25H287.977C288.143 257.25 288.843 258.817 290.077 259.95C291.31 261.083 292.827 261.65 294.627 261.65C297.227 261.65 299.077 260.533 300.177 258.3H307.727C306.927 260.967 305.393 263.167 303.127 264.9C300.86 266.6 298.077 267.45 294.777 267.45C292.11 267.45 289.71 266.867 287.577 265.7C285.477 264.5 283.827 262.817 282.627 260.65C281.46 258.483 280.877 255.983 280.877 253.15C280.877 250.283 281.46 247.767 282.627 245.6C283.793 243.433 285.427 241.767 287.527 240.6C289.627 239.433 292.043 238.85 294.777 238.85C297.41 238.85 299.76 239.417 301.827 240.55C303.927 241.683 305.543 243.3 306.677 245.4C307.843 247.467 308.427 249.85 308.427 252.55ZM301.177 250.55C301.143 248.75 300.493 247.317 299.227 246.25C297.96 245.15 296.41 244.6 294.577 244.6C292.843 244.6 291.377 245.133 290.177 246.2C289.01 247.233 288.293 248.683 288.027 250.55H301.177ZM323.65 253.05C323.65 250.25 324.2 247.767 325.3 245.6C326.433 243.433 327.95 241.767 329.85 240.6C331.783 239.433 333.933 238.85 336.3 238.85C338.367 238.85 340.167 239.267 341.7 240.1C343.267 240.933 344.517 241.983 345.45 243.25V239.3H352.5V267H345.45V262.95C344.55 264.25 343.3 265.333 341.7 266.2C340.133 267.033 338.317 267.45 336.25 267.45C333.917 267.45 331.783 266.85 329.85 265.65C327.95 264.45 326.433 262.767 325.3 260.6C324.2 258.4 323.65 255.883 323.65 253.05ZM345.45 253.15C345.45 251.45 345.117 250 344.45 248.8C343.783 247.567 342.883 246.633 341.75 246C340.617 245.333 339.4 245 338.1 245C336.8 245 335.6 245.317 334.5 245.95C333.4 246.583 332.5 247.517 331.8 248.75C331.133 249.95 330.8 251.383 330.8 253.05C330.8 254.717 331.133 256.183 331.8 257.45C332.5 258.683 333.4 259.633 334.5 260.3C335.633 260.967 336.833 261.3 338.1 261.3C339.4 261.3 340.617 260.983 341.75 260.35C342.883 259.683 343.783 258.75 344.45 257.55C345.117 256.317 345.45 254.85 345.45 253.15ZM367.487 245.05V258.45C367.487 259.383 367.703 260.067 368.137 260.5C368.603 260.9 369.37 261.1 370.437 261.1H373.687V267H369.287C363.387 267 360.437 264.133 360.437 258.4V245.05H357.137V239.3H360.437V232.45H367.487V239.3H373.687V245.05H367.487ZM420.486 267H413.486L397.636 243.05V267H390.636V232.05H397.636L413.486 256.05V232.05H420.486V267ZM425.603 253.05C425.603 250.25 426.153 247.767 427.253 245.6C428.386 243.433 429.903 241.767 431.803 240.6C433.736 239.433 435.886 238.85 438.253 238.85C440.32 238.85 442.12 239.267 443.653 240.1C445.22 240.933 446.47 241.983 447.403 243.25V239.3H454.453V267H447.403V262.95C446.503 264.25 445.253 265.333 443.653 266.2C442.086 267.033 440.27 267.45 438.203 267.45C435.87 267.45 433.736 266.85 431.803 265.65C429.903 264.45 428.386 262.767 427.253 260.6C426.153 258.4 425.603 255.883 425.603 253.05ZM447.403 253.15C447.403 251.45 447.07 250 446.403 248.8C445.736 247.567 444.836 246.633 443.703 246C442.57 245.333 441.353 245 440.053 245C438.753 245 437.553 245.317 436.453 245.95C435.353 246.583 434.453 247.517 433.753 248.75C433.086 249.95 432.753 251.383 432.753 253.05C432.753 254.717 433.086 256.183 433.753 257.45C434.453 258.683 435.353 259.633 436.453 260.3C437.586 260.967 438.786 261.3 440.053 261.3C441.353 261.3 442.57 260.983 443.703 260.35C444.836 259.683 445.736 258.75 446.403 257.55C447.07 256.317 447.403 254.85 447.403 253.15ZM472.14 238.85C474.207 238.85 476.023 239.267 477.59 240.1C479.157 240.9 480.39 241.95 481.29 243.25V239.3H488.34V267.2C488.34 269.767 487.823 272.05 486.79 274.05C485.757 276.083 484.207 277.683 482.14 278.85C480.073 280.05 477.573 280.65 474.64 280.65C470.707 280.65 467.473 279.733 464.94 277.9C462.44 276.067 461.023 273.567 460.69 270.4H467.64C468.007 271.667 468.79 272.667 469.99 273.4C471.223 274.167 472.707 274.55 474.44 274.55C476.473 274.55 478.123 273.933 479.39 272.7C480.657 271.5 481.29 269.667 481.29 267.2V262.9C480.39 264.2 479.14 265.283 477.54 266.15C475.973 267.017 474.173 267.45 472.14 267.45C469.807 267.45 467.673 266.85 465.74 265.65C463.807 264.45 462.273 262.767 461.14 260.6C460.04 258.4 459.49 255.883 459.49 253.05C459.49 250.25 460.04 247.767 461.14 245.6C462.273 243.433 463.79 241.767 465.69 240.6C467.623 239.433 469.773 238.85 472.14 238.85ZM481.29 253.15C481.29 251.45 480.957 250 480.29 248.8C479.623 247.567 478.723 246.633 477.59 246C476.457 245.333 475.24 245 473.94 245C472.64 245 471.44 245.317 470.34 245.95C469.24 246.583 468.34 247.517 467.64 248.75C466.973 249.95 466.64 251.383 466.64 253.05C466.64 254.717 466.973 256.183 467.64 257.45C468.34 258.683 469.24 259.633 470.34 260.3C471.473 260.967 472.673 261.3 473.94 261.3C475.24 261.3 476.457 260.983 477.59 260.35C478.723 259.683 479.623 258.75 480.29 257.55C480.957 256.317 481.29 254.85 481.29 253.15ZM493.377 253.05C493.377 250.25 493.927 247.767 495.027 245.6C496.16 243.433 497.677 241.767 499.577 240.6C501.51 239.433 503.66 238.85 506.027 238.85C508.093 238.85 509.893 239.267 511.427 240.1C512.993 240.933 514.243 241.983 515.177 243.25V239.3H522.227V267H515.177V262.95C514.277 264.25 513.027 265.333 511.427 266.2C509.86 267.033 508.043 267.45 505.977 267.45C503.643 267.45 501.51 266.85 499.577 265.65C497.677 264.45 496.16 262.767 495.027 260.6C493.927 258.4 493.377 255.883 493.377 253.05ZM515.177 253.15C515.177 251.45 514.843 250 514.177 248.8C513.51 247.567 512.61 246.633 511.477 246C510.343 245.333 509.127 245 507.827 245C506.527 245 505.327 245.317 504.227 245.95C503.127 246.583 502.227 247.517 501.527 248.75C500.86 249.95 500.527 251.383 500.527 253.05C500.527 254.717 500.86 256.183 501.527 257.45C502.227 258.683 503.127 259.633 504.227 260.3C505.36 260.967 506.56 261.3 507.827 261.3C509.127 261.3 510.343 260.983 511.477 260.35C512.61 259.683 513.51 258.75 514.177 257.55C514.843 256.317 515.177 254.85 515.177 253.15ZM541.363 267.45C538.697 267.45 536.297 266.867 534.163 265.7C532.03 264.5 530.347 262.817 529.113 260.65C527.913 258.483 527.313 255.983 527.313 253.15C527.313 250.317 527.93 247.817 529.163 245.65C530.43 243.483 532.147 241.817 534.313 240.65C536.48 239.45 538.897 238.85 541.563 238.85C544.23 238.85 546.647 239.45 548.813 240.65C550.98 241.817 552.68 243.483 553.913 245.65C555.18 247.817 555.813 250.317 555.813 253.15C555.813 255.983 555.163 258.483 553.863 260.65C552.597 262.817 550.863 264.5 548.663 265.7C546.497 266.867 544.063 267.45 541.363 267.45ZM541.363 261.35C542.63 261.35 543.813 261.05 544.913 260.45C546.047 259.817 546.947 258.883 547.613 257.65C548.28 256.417 548.613 254.917 548.613 253.15C548.613 250.517 547.913 248.5 546.513 247.1C545.147 245.667 543.463 244.95 541.463 244.95C539.463 244.95 537.78 245.667 536.413 247.1C535.08 248.5 534.413 250.517 534.413 253.15C534.413 255.783 535.063 257.817 536.363 259.25C537.697 260.65 539.363 261.35 541.363 261.35ZM576.298 238.9C579.598 238.9 582.265 239.95 584.298 242.05C586.331 244.117 587.348 247.017 587.348 250.75V267H580.348V251.7C580.348 249.5 579.798 247.817 578.698 246.65C577.598 245.45 576.098 244.85 574.198 244.85C572.265 244.85 570.731 245.45 569.598 246.65C568.498 247.817 567.948 249.5 567.948 251.7V267H560.948V239.3H567.948V242.75C568.881 241.55 570.065 240.617 571.498 239.95C572.965 239.25 574.565 238.9 576.298 238.9ZM618.219 267.45C615.552 267.45 613.152 266.867 611.019 265.7C608.885 264.5 607.202 262.817 605.969 260.65C604.769 258.483 604.169 255.983 604.169 253.15C604.169 250.317 604.785 247.817 606.019 245.65C607.285 243.483 609.002 241.817 611.169 240.65C613.335 239.45 615.752 238.85 618.419 238.85C621.085 238.85 623.502 239.45 625.669 240.65C627.835 241.817 629.535 243.483 630.769 245.65C632.035 247.817 632.669 250.317 632.669 253.15C632.669 255.983 632.019 258.483 630.719 260.65C629.452 262.817 627.719 264.5 625.519 265.7C623.352 266.867 620.919 267.45 618.219 267.45ZM618.219 261.35C619.485 261.35 620.669 261.05 621.769 260.45C622.902 259.817 623.802 258.883 624.469 257.65C625.135 256.417 625.469 254.917 625.469 253.15C625.469 250.517 624.769 248.5 623.369 247.1C622.002 245.667 620.319 244.95 618.319 244.95C616.319 244.95 614.635 245.667 613.269 247.1C611.935 248.5 611.269 250.517 611.269 253.15C611.269 255.783 611.919 257.817 613.219 259.25C614.552 260.65 616.219 261.35 618.219 261.35ZM644.804 243.6C645.704 242.133 646.87 240.983 648.304 240.15C649.77 239.317 651.437 238.9 653.304 238.9V246.25H651.454C649.254 246.25 647.587 246.767 646.454 247.8C645.354 248.833 644.804 250.633 644.804 253.2V267H637.804V239.3H644.804V243.6ZM685.282 238.9C688.582 238.9 691.249 239.95 693.282 242.05C695.316 244.117 696.332 247.017 696.332 250.75V267H689.332V251.7C689.332 249.5 688.782 247.817 687.682 246.65C686.582 245.45 685.082 244.85 683.182 244.85C681.249 244.85 679.716 245.45 678.582 246.65C677.482 247.817 676.932 249.5 676.932 251.7V267H669.932V239.3H676.932V242.75C677.866 241.55 679.049 240.617 680.482 239.95C681.949 239.25 683.549 238.9 685.282 238.9ZM728.739 252.55C728.739 253.55 728.672 254.45 728.539 255.25H708.289C708.456 257.25 709.156 258.817 710.389 259.95C711.622 261.083 713.139 261.65 714.939 261.65C717.539 261.65 719.389 260.533 720.489 258.3H728.039C727.239 260.967 725.706 263.167 723.439 264.9C721.172 266.6 718.389 267.45 715.089 267.45C712.422 267.45 710.022 266.867 707.889 265.7C705.789 264.5 704.139 262.817 702.939 260.65C701.772 258.483 701.189 255.983 701.189 253.15C701.189 250.283 701.772 247.767 702.939 245.6C704.106 243.433 705.739 241.767 707.839 240.6C709.939 239.433 712.356 238.85 715.089 238.85C717.722 238.85 720.072 239.417 722.139 240.55C724.239 241.683 725.856 243.3 726.989 245.4C728.156 247.467 728.739 249.85 728.739 252.55ZM721.489 250.55C721.456 248.75 720.806 247.317 719.539 246.25C718.272 245.15 716.722 244.6 714.889 244.6C713.156 244.6 711.689 245.133 710.489 246.2C709.322 247.233 708.606 248.683 708.339 250.55H721.489ZM732.048 253.05C732.048 250.25 732.598 247.767 733.698 245.6C734.832 243.433 736.348 241.767 738.248 240.6C740.182 239.433 742.332 238.85 744.698 238.85C746.765 238.85 748.565 239.267 750.098 240.1C751.665 240.933 752.915 241.983 753.848 243.25V239.3H760.898V267H753.848V262.95C752.948 264.25 751.698 265.333 750.098 266.2C748.532 267.033 746.715 267.45 744.648 267.45C742.315 267.45 740.182 266.85 738.248 265.65C736.348 264.45 734.832 262.767 733.698 260.6C732.598 258.4 732.048 255.883 732.048 253.05ZM753.848 253.15C753.848 251.45 753.515 250 752.848 248.8C752.182 247.567 751.282 246.633 750.148 246C749.015 245.333 747.798 245 746.498 245C745.198 245 743.998 245.317 742.898 245.95C741.798 246.583 740.898 247.517 740.198 248.75C739.532 249.95 739.198 251.383 739.198 253.05C739.198 254.717 739.532 256.183 740.198 257.45C740.898 258.683 741.798 259.633 742.898 260.3C744.032 260.967 745.232 261.3 746.498 261.3C747.798 261.3 749.015 260.983 750.148 260.35C751.282 259.683 752.182 258.75 752.848 257.55C753.515 256.317 753.848 254.85 753.848 253.15ZM774.735 243.6C775.635 242.133 776.802 240.983 778.235 240.15C779.702 239.317 781.368 238.9 783.235 238.9V246.25H781.385C779.185 246.25 777.518 246.767 776.385 247.8C775.285 248.833 774.735 250.633 774.735 253.2V267H767.735V239.3H774.735V243.6ZM101.95 314.3L84.8 355.1H77.35L83.35 341.3L72.25 314.3H80.1L87.25 333.65L94.5 314.3H101.95ZM118.023 342.45C115.357 342.45 112.957 341.867 110.823 340.7C108.69 339.5 107.007 337.817 105.773 335.65C104.573 333.483 103.973 330.983 103.973 328.15C103.973 325.317 104.59 322.817 105.823 320.65C107.09 318.483 108.807 316.817 110.973 315.65C113.14 314.45 115.557 313.85 118.223 313.85C120.89 313.85 123.307 314.45 125.473 315.65C127.64 316.817 129.34 318.483 130.573 320.65C131.84 322.817 132.473 325.317 132.473 328.15C132.473 330.983 131.823 333.483 130.523 335.65C129.257 337.817 127.523 339.5 125.323 340.7C123.157 341.867 120.723 342.45 118.023 342.45ZM118.023 336.35C119.29 336.35 120.473 336.05 121.573 335.45C122.707 334.817 123.607 333.883 124.273 332.65C124.94 331.417 125.273 329.917 125.273 328.15C125.273 325.517 124.573 323.5 123.173 322.1C121.807 320.667 120.123 319.95 118.123 319.95C116.123 319.95 114.44 320.667 113.073 322.1C111.74 323.5 111.073 325.517 111.073 328.15C111.073 330.783 111.723 332.817 113.023 334.25C114.357 335.65 116.023 336.35 118.023 336.35ZM163.758 314.3V342H156.708V338.5C155.808 339.7 154.625 340.65 153.158 341.35C151.725 342.017 150.158 342.35 148.458 342.35C146.292 342.35 144.375 341.9 142.708 341C141.042 340.067 139.725 338.717 138.758 336.95C137.825 335.15 137.358 333.017 137.358 330.55V314.3H144.358V329.55C144.358 331.75 144.908 333.45 146.008 334.65C147.108 335.817 148.608 336.4 150.508 336.4C152.442 336.4 153.958 335.817 155.058 334.65C156.158 333.45 156.708 331.75 156.708 329.55V314.3H163.758ZM173.765 342.35C172.498 342.35 171.448 341.967 170.615 341.2C169.815 340.4 169.415 339.417 169.415 338.25C169.415 337.083 169.815 336.117 170.615 335.35C171.448 334.55 172.498 334.15 173.765 334.15C174.998 334.15 176.015 334.55 176.815 335.35C177.615 336.117 178.015 337.083 178.015 338.25C178.015 339.417 177.615 340.4 176.815 341.2C176.015 341.967 174.998 342.35 173.765 342.35ZM186.753 342.35C185.486 342.35 184.436 341.967 183.603 341.2C182.803 340.4 182.403 339.417 182.403 338.25C182.403 337.083 182.803 336.117 183.603 335.35C184.436 334.55 185.486 334.15 186.753 334.15C187.986 334.15 189.003 334.55 189.803 335.35C190.603 336.117 191.003 337.083 191.003 338.25C191.003 339.417 190.603 340.4 189.803 341.2C189.003 341.967 187.986 342.35 186.753 342.35Z" fill="black"/>
<path d="M24.45 72.9C21.35 72.9 18.8 71.95 16.8 70.05C14.9 68.05 13.95 65.5 13.95 62.4C13.95 58.5 15.55 54.25 18.75 49.65C22.05 44.95 26.4 40.8 31.8 37.2L34.05 39.45C31.95 41.65 30.3 43.7 29.1 45.6C27.9 47.5 27.3 49.05 27.3 50.25C27.3 50.95 27.5 51.6 27.9 52.2C28.4 52.8 29.1 53.45 30 54.15C31.4 55.25 32.5 56.4 33.3 57.6C34.1 58.8 34.5 60.4 34.5 62.4C34.5 65.5 33.55 68.05 31.65 70.05C29.75 71.95 27.35 72.9 24.45 72.9ZM53.55 72.9C50.45 72.9 47.9 71.95 45.9 70.05C44 68.05 43.05 65.5 43.05 62.4C43.05 58.5 44.65 54.25 47.85 49.65C51.15 44.95 55.5 40.8 60.9 37.2L63.15 39.45C61.05 41.65 59.4 43.7 58.2 45.6C57 47.5 56.4 49.05 56.4 50.25C56.4 50.95 56.6 51.6 57 52.2C57.5 52.8 58.2 53.45 59.1 54.15C60.5 55.25 61.6 56.4 62.4 57.6C63.2 58.8 63.6 60.4 63.6 62.4C63.6 65.5 62.65 68.05 60.75 70.05C58.85 71.95 56.45 72.9 53.55 72.9Z" fill="black"/>
<path d="M236.8 323.65C238.9 321.45 240.55 319.4 241.75 317.5C242.95 315.6 243.55 314.05 243.55 312.85C243.55 312.15 243.3 311.5 242.8 310.9C242.4 310.3 241.75 309.65 240.85 308.95C239.45 307.85 238.35 306.7 237.55 305.5C236.75 304.3 236.35 302.7 236.35 300.7C236.35 297.6 237.3 295.1 239.2 293.2C241.1 291.2 243.5 290.2 246.4 290.2C249.5 290.2 252 291.2 253.9 293.2C255.9 295.1 256.9 297.6 256.9 300.7C256.9 304.6 255.25 308.9 251.95 313.6C248.75 318.2 244.45 322.3 239.05 325.9L236.8 323.65ZM265.9 323.65C268 321.45 269.65 319.4 270.85 317.5C272.05 315.6 272.65 314.05 272.65 312.85C272.65 312.15 272.4 311.5 271.9 310.9C271.5 310.3 270.85 309.65 269.95 308.95C268.55 307.85 267.45 306.7 266.65 305.5C265.85 304.3 265.45 302.7 265.45 300.7C265.45 297.6 266.4 295.1 268.3 293.2C270.2 291.2 272.6 290.2 275.5 290.2C278.6 290.2 281.1 291.2 283 293.2C285 295.1 286 297.6 286 300.7C286 304.6 284.35 308.9 281.05 313.6C277.85 318.2 273.55 322.3 268.15 325.9L265.9 323.65Z" fill="black"/>
</svg>
